<svg width="75" height="44" viewBox="0 0 75 44" fill="none" xmlns="http://www.w3.org/2000/svg">
<path d="M5.29423 18.9L7.07423 8.84L4.09423 10.92L3.27423 9.48L7.95423 6.5H9.27423L7.09423 18.9H9.47423L9.19423 20.5H2.15423L2.43423 18.9H5.29423ZM17.4264 20.74C16.0931 20.74 15.0731 20.2733 14.3664 19.34C13.6731 18.3933 13.3264 17.1133 13.3264 15.5C13.3264 14.38 13.4464 13.2733 13.6864 12.18C13.9264 11.0733 14.2931 10.08 14.7864 9.2C15.2798 8.30667 15.9064 7.59333 16.6664 7.06C17.4398 6.52667 18.3464 6.26 19.3864 6.26C20.7198 6.26 21.7331 6.73333 22.4264 7.68C23.1331 8.61333 23.4864 9.88667 23.4864 11.5C23.4864 12.62 23.3664 13.7333 23.1264 14.84C22.8864 15.9333 22.5198 16.9267 22.0264 17.82C21.5331 18.7 20.8998 19.4067 20.1264 19.94C19.3664 20.4733 18.4664 20.74 17.4264 20.74ZM17.6264 19.1C18.2664 19.1 18.8264 18.8933 19.3064 18.48C19.7998 18.0533 20.2131 17.48 20.5464 16.76C20.8798 16.04 21.1264 15.22 21.2864 14.3C21.4598 13.3667 21.5464 12.3933 21.5464 11.38C21.5464 10.26 21.3464 9.4 20.9464 8.8C20.5598 8.2 19.9731 7.9 19.1864 7.9C18.5464 7.9 17.9798 8.11333 17.4864 8.54C17.0064 8.95333 16.5998 9.52 16.2664 10.24C15.9331 10.96 15.6798 11.7867 15.5064 12.72C15.3464 13.64 15.2664 14.6067 15.2664 15.62C15.2664 16.74 15.4664 17.6 15.8664 18.2C16.2664 18.8 16.8531 19.1 17.6264 19.1ZM29.4186 20.74C28.0853 20.74 27.0653 20.2733 26.3586 19.34C25.6653 18.3933 25.3186 17.1133 25.3186 15.5C25.3186 14.38 25.4386 13.2733 25.6786 12.18C25.9186 11.0733 26.2853 10.08 26.7786 9.2C27.2719 8.30667 27.8986 7.59333 28.6586 7.06C29.4319 6.52667 30.3386 6.26 31.3786 6.26C32.7119 6.26 33.7253 6.73333 34.4186 7.68C35.1253 8.61333 35.4786 9.88667 35.4786 11.5C35.4786 12.62 35.3586 13.7333 35.1186 14.84C34.8786 15.9333 34.5119 16.9267 34.0186 17.82C33.5253 18.7 32.8919 19.4067 32.1186 19.94C31.3586 20.4733 30.4586 20.74 29.4186 20.74ZM29.6186 19.1C30.2586 19.1 30.8186 18.8933 31.2986 18.48C31.7919 18.0533 32.2053 17.48 32.5386 16.76C32.8719 16.04 33.1186 15.22 33.2786 14.3C33.4519 13.3667 33.5386 12.3933 33.5386 11.38C33.5386 10.26 33.3386 9.4 32.9386 8.8C32.5519 8.2 31.9653 7.9 31.1786 7.9C30.5386 7.9 29.9719 8.11333 29.4786 8.54C28.9986 8.95333 28.5919 9.52 28.2586 10.24C27.9253 10.96 27.6719 11.7867 27.4986 12.72C27.3386 13.64 27.2586 14.6067 27.2586 15.62C27.2586 16.74 27.4586 17.6 27.8586 18.2C28.2586 18.8 28.8453 19.1 29.6186 19.1ZM39.3308 20.48L50.5908 5.7L51.6908 6.5L40.4308 21.28L39.3308 20.48ZM44.4908 9.56C44.4908 10.0933 44.4175 10.68 44.2708 11.32C44.1375 11.96 43.9041 12.5667 43.5708 13.14C43.2508 13.7133 42.8175 14.1867 42.2708 14.56C41.7375 14.92 41.0708 15.1 40.2708 15.1C39.3375 15.1 38.6108 14.8133 38.0908 14.24C37.5841 13.6533 37.3308 12.8667 37.3308 11.88C37.3308 11.32 37.3975 10.7267 37.5308 10.1C37.6775 9.46 37.9108 8.86 38.2308 8.3C38.5641 7.72667 39.0041 7.26 39.5508 6.9C40.1108 6.54 40.7975 6.36 41.6108 6.36C42.5441 6.36 43.2575 6.64 43.7508 7.2C44.2441 7.76 44.4908 8.54667 44.4908 9.56ZM40.3908 13.76C40.8841 13.76 41.2908 13.6067 41.6108 13.3C41.9308 12.9933 42.1775 12.6067 42.3508 12.14C42.5241 11.6733 42.6441 11.2 42.7108 10.72C42.7775 10.24 42.8108 9.82667 42.8108 9.48C42.8108 8.28 42.3508 7.68 41.4308 7.68C40.9375 7.68 40.5308 7.83333 40.2108 8.14C39.9041 8.44667 39.6641 8.83333 39.4908 9.3C39.3175 9.75333 39.1908 10.2267 39.1108 10.72C39.0441 11.2 39.0108 11.6133 39.0108 11.96C39.0108 13.16 39.4708 13.76 40.3908 13.76ZM53.6508 15.1C53.6508 15.6333 53.5775 16.22 53.4308 16.86C53.2975 17.5 53.0641 18.1067 52.7308 18.68C52.4108 19.2533 51.9775 19.7267 51.4308 20.1C50.8975 20.46 50.2308 20.64 49.4308 20.64C48.4975 20.64 47.7708 20.3533 47.2508 19.78C46.7441 19.1933 46.4908 18.4067 46.4908 17.42C46.4908 16.86 46.5575 16.2667 46.6908 15.64C46.8375 15 47.0708 14.4 47.3908 13.84C47.7241 13.2667 48.1641 12.8 48.7108 12.44C49.2708 12.08 49.9575 11.9 50.7708 11.9C51.7041 11.9 52.4175 12.18 52.9108 12.74C53.4041 13.3 53.6508 14.0867 53.6508 15.1ZM49.5508 19.3C50.0441 19.3 50.4508 19.1467 50.7708 18.84C51.0908 18.5333 51.3375 18.1467 51.5108 17.68C51.6841 17.2133 51.8041 16.74 51.8708 16.26C51.9375 15.78 51.9708 15.3667 51.9708 15.02C51.9708 13.82 51.5108 13.22 50.5908 13.22C50.0975 13.22 49.6908 13.3733 49.3708 13.68C49.0641 13.9867 48.8241 14.3733 48.6508 14.84C48.4775 15.2933 48.3508 15.7667 48.2708 16.26C48.2041 16.74 48.1708 17.1533 48.1708 17.5C48.1708 18.7 48.6308 19.3 49.5508 19.3Z" fill="#2B2F34"/>
<path d="M0.106233 40.904C0.490233 40.904 0.774233 40.7 0.958233 40.292C1.15023 39.884 1.24623 39.308 1.24623 38.564V31.58H2.32623V38.564C2.32623 39.188 2.25823 39.684 2.12223 40.052C1.99423 40.428 1.77023 40.704 1.45023 40.88C1.13023 41.056 0.682233 41.144 0.106233 41.144V40.904ZM6.56111 39.62C6.01711 39.62 5.54511 39.492 5.14511 39.236C4.74511 38.972 4.44111 38.616 4.23311 38.168C4.02511 37.72 3.92111 37.224 3.92111 36.68C3.92111 36.136 4.02511 35.64 4.23311 35.192C4.44111 34.744 4.74511 34.392 5.14511 34.136C5.54511 33.872 6.01711 33.74 6.56111 33.74C7.10511 33.74 7.57711 33.872 7.97711 34.136C8.37711 34.392 8.68111 34.744 8.88911 35.192C9.09711 35.64 9.20111 36.136 9.20111 36.68C9.20111 37.224 9.09711 37.72 8.88911 38.168C8.68111 38.616 8.37711 38.972 7.97711 39.236C7.57711 39.492 7.10511 39.62 6.56111 39.62ZM6.56111 39.14C6.85711 39.14 7.11711 39.032 7.34111 38.816C7.57311 38.6 7.74911 38.304 7.86911 37.928C7.99711 37.552 8.06111 37.136 8.06111 36.68C8.06111 36.224 7.99711 35.808 7.86911 35.432C7.74911 35.056 7.57311 34.76 7.34111 34.544C7.11711 34.328 6.85711 34.22 6.56111 34.22C6.26511 34.22 6.00111 34.328 5.76911 34.544C5.54511 34.76 5.36911 35.056 5.24111 35.432C5.12111 35.808 5.06111 36.224 5.06111 36.68C5.06111 37.136 5.12111 37.552 5.24111 37.928C5.36911 38.304 5.54511 38.6 5.76911 38.816C6.00111 39.032 6.26511 39.14 6.56111 39.14ZM13.4284 39.62C13.0204 39.62 12.6844 39.556 12.4204 39.428C12.1564 39.3 11.9524 39.144 11.8084 38.96H11.7484L11.3284 39.5H10.7284V33.02C10.7284 32.612 10.6724 32.312 10.5604 32.12C10.4484 31.92 10.2244 31.82 9.88839 31.82H9.64839V31.58H10.7284C11.0244 31.58 11.2444 31.62 11.3884 31.7C11.5404 31.772 11.6484 31.908 11.7124 32.108C11.7764 32.308 11.8084 32.612 11.8084 33.02V34.1C12.0404 33.988 12.2724 33.9 12.5044 33.836C12.7364 33.772 13.0044 33.74 13.3084 33.74C14.0524 33.74 14.6164 34.016 15.0004 34.568C15.3924 35.12 15.5884 35.824 15.5884 36.68C15.5884 37.528 15.4004 38.232 15.0244 38.792C14.6484 39.344 14.1164 39.62 13.4284 39.62ZM13.0684 39.14C13.5244 39.14 13.8684 38.916 14.1004 38.468C14.3324 38.012 14.4484 37.416 14.4484 36.68C14.4484 35.936 14.3244 35.34 14.0764 34.892C13.8364 34.444 13.4604 34.22 12.9484 34.22C12.7804 34.22 12.6084 34.252 12.4324 34.316C12.2564 34.38 12.0484 34.468 11.8084 34.58V38.42C11.9524 38.636 12.1204 38.812 12.3124 38.948C12.5124 39.076 12.7644 39.14 13.0684 39.14ZM23.9936 39.74C23.2096 39.74 22.5056 39.548 21.8816 39.164C21.2656 38.78 20.7816 38.26 20.4296 37.604C20.0856 36.94 19.9136 36.212 19.9136 35.42C19.9136 34.66 20.0656 33.972 20.3696 33.356C20.6736 32.732 21.1056 32.24 21.6656 31.88C22.2336 31.52 22.8896 31.34 23.6336 31.34C24.3216 31.34 24.9136 31.432 25.4096 31.616C25.9136 31.792 26.2816 32.02 26.5136 32.3C26.6416 32.46 26.7216 32.672 26.7536 32.936C26.7936 33.2 26.8136 33.528 26.8136 33.92H26.5736C26.4216 33.216 26.1336 32.692 25.7096 32.348C25.2856 31.996 24.7136 31.82 23.9936 31.82C23.3456 31.82 22.8056 31.992 22.3736 32.336C21.9416 32.672 21.6216 33.112 21.4136 33.656C21.2136 34.2 21.1136 34.788 21.1136 35.42C21.1136 36.772 21.3776 37.752 21.9056 38.36C22.4336 38.96 23.1296 39.26 23.9936 39.26C24.4016 39.26 24.7496 39.224 25.0376 39.152C25.3256 39.08 25.5976 38.976 25.8536 38.84V36.752C25.8536 36.48 25.8976 36.244 25.9856 36.044C26.0736 35.844 26.2616 35.68 26.5496 35.552C26.8456 35.416 27.2736 35.348 27.8336 35.348V35.588C27.4736 35.588 27.2336 35.68 27.1136 35.864C26.9936 36.048 26.9336 36.336 26.9336 36.728V38.984C26.5016 39.248 26.0496 39.44 25.5776 39.56C25.1056 39.68 24.5776 39.74 23.9936 39.74ZM31.0584 39.62C30.4584 39.62 29.9664 39.46 29.5824 39.14C29.2064 38.82 29.0184 38.26 29.0184 37.46V35.3C29.0184 34.892 28.9624 34.592 28.8504 34.4C28.7384 34.2 28.5144 34.1 28.1784 34.1H28.0584V33.86H29.0184C29.3144 33.86 29.5344 33.9 29.6784 33.98C29.8304 34.052 29.9384 34.188 30.0024 34.388C30.0664 34.588 30.0984 34.892 30.0984 35.3V37.46C30.0984 38.02 30.2224 38.432 30.4704 38.696C30.7264 38.952 31.0424 39.08 31.4184 39.08C31.8424 39.08 32.2424 38.868 32.6184 38.444V33.86H33.6984V39.5H33.0984L32.6784 39.02H32.6184C32.4504 39.188 32.2304 39.332 31.9584 39.452C31.6944 39.564 31.3944 39.62 31.0584 39.62ZM36.8922 39.62C36.6362 39.62 36.3762 39.568 36.1122 39.464C35.8482 39.352 35.6202 39.172 35.4282 38.924C35.2442 38.676 35.1522 38.348 35.1522 37.94C35.1522 37.332 35.4322 36.9 35.9922 36.644C36.5602 36.388 37.3002 36.26 38.2122 36.26H38.5722C38.5722 35.476 38.4642 34.94 38.2482 34.652C38.0322 34.364 37.7202 34.22 37.3122 34.22C36.9522 34.22 36.6642 34.296 36.4482 34.448C36.2322 34.6 36.0802 34.864 35.9922 35.24H35.4522C35.4522 34.968 35.4682 34.756 35.5002 34.604C35.5322 34.444 35.6162 34.296 35.7522 34.16C35.8962 34.016 36.1322 33.912 36.4602 33.848C36.7962 33.776 37.1602 33.74 37.5522 33.74C38.2002 33.74 38.7122 33.916 39.0882 34.268C39.4642 34.612 39.6522 35.276 39.6522 36.26V39.5H39.0522L38.6322 38.96H38.5722C38.4282 39.144 38.2162 39.3 37.9362 39.428C37.6562 39.556 37.3082 39.62 36.8922 39.62ZM37.4322 39.08C37.6962 39.08 37.9162 39.016 38.0922 38.888C38.2682 38.76 38.4282 38.584 38.5722 38.36V36.74H38.2122C37.6202 36.74 37.1522 36.852 36.8082 37.076C36.4642 37.292 36.2922 37.58 36.2922 37.94C36.2922 38.308 36.4002 38.592 36.6162 38.792C36.8402 38.984 37.1122 39.08 37.4322 39.08ZM41.5416 35.3C41.5416 34.892 41.4856 34.592 41.3736 34.4C41.2616 34.2 41.0376 34.1 40.7016 34.1H40.5816V33.86H41.5416C41.8456 33.86 42.0736 33.904 42.2256 33.992C42.3856 34.072 42.4976 34.208 42.5616 34.4H42.6216C42.7656 34.216 42.9576 34.06 43.1976 33.932C43.4456 33.804 43.7336 33.74 44.0616 33.74C44.3816 33.74 44.6216 33.8 44.7816 33.92C44.9176 34.024 45.0576 34.204 45.2016 34.46L44.7216 34.82C44.6336 34.7 44.5056 34.612 44.3376 34.556C44.1696 34.492 43.9776 34.46 43.7616 34.46C43.5216 34.46 43.3016 34.516 43.1016 34.628C42.9016 34.732 42.7416 34.876 42.6216 35.06V39.5H41.5416V35.3ZM47.6791 39.62C47.4231 39.62 47.1631 39.568 46.8991 39.464C46.6351 39.352 46.4071 39.172 46.2151 38.924C46.0311 38.676 45.9391 38.348 45.9391 37.94C45.9391 37.332 46.2191 36.9 46.7791 36.644C47.3471 36.388 48.0871 36.26 48.9991 36.26H49.3591C49.3591 35.476 49.2511 34.94 49.0351 34.652C48.8191 34.364 48.5071 34.22 48.0991 34.22C47.7391 34.22 47.4511 34.296 47.2351 34.448C47.0191 34.6 46.8671 34.864 46.7791 35.24H46.2391C46.2391 34.968 46.2551 34.756 46.2871 34.604C46.3191 34.444 46.4031 34.296 46.5391 34.16C46.6831 34.016 46.9191 33.912 47.2471 33.848C47.5831 33.776 47.9471 33.74 48.3391 33.74C48.9871 33.74 49.4991 33.916 49.8751 34.268C50.2511 34.612 50.4391 35.276 50.4391 36.26V39.5H49.8391L49.4191 38.96H49.3591C49.2151 39.144 49.0031 39.3 48.7231 39.428C48.4431 39.556 48.0951 39.62 47.6791 39.62ZM48.2191 39.08C48.4831 39.08 48.7031 39.016 48.8791 38.888C49.0551 38.76 49.2151 38.584 49.3591 38.36V36.74H48.9991C48.4071 36.74 47.9391 36.852 47.5951 37.076C47.2511 37.292 47.0791 37.58 47.0791 37.94C47.0791 38.308 47.1871 38.592 47.4031 38.792C47.6271 38.984 47.8991 39.08 48.2191 39.08ZM52.4125 35.3C52.4125 34.892 52.3565 34.592 52.2445 34.4C52.1325 34.2 51.9085 34.1 51.5725 34.1H51.3325V33.86H52.4125C52.7085 33.86 52.9325 33.9 53.0845 33.98C53.2445 34.06 53.3605 34.18 53.4325 34.34H53.4925C53.6605 34.172 53.8765 34.032 54.1405 33.92C54.4125 33.8 54.7165 33.74 55.0525 33.74C55.6525 33.74 56.1405 33.9 56.5165 34.22C56.9005 34.54 57.0925 35.1 57.0925 35.9V39.5H56.0125V35.9C56.0125 35.34 55.8845 34.932 55.6285 34.676C55.3805 34.412 55.0685 34.28 54.6925 34.28C54.2685 34.28 53.8685 34.492 53.4925 34.916V39.5H52.4125V35.3ZM60.5478 39.62C60.0998 39.62 59.7478 39.492 59.4918 39.236C59.2358 38.98 59.1078 38.588 59.1078 38.06V34.34H58.2678V33.86H59.1078V32.78L59.7078 32.06H60.1878V33.86H61.6278V34.34H60.1878V38.06C60.1878 38.78 60.4678 39.14 61.0278 39.14C61.2198 39.14 61.3798 39.12 61.5078 39.08C61.6438 39.04 61.7838 38.98 61.9278 38.9L62.0478 39.14C61.8638 39.276 61.6598 39.392 61.4358 39.488C61.2118 39.576 60.9158 39.62 60.5478 39.62ZM65.2505 39.62C64.7065 39.62 64.2465 39.492 63.8705 39.236C63.4945 38.972 63.2105 38.62 63.0185 38.18C62.8265 37.732 62.7305 37.232 62.7305 36.68C62.7305 36.136 62.8265 35.64 63.0185 35.192C63.2105 34.744 63.4865 34.392 63.8465 34.136C64.2145 33.872 64.6425 33.74 65.1305 33.74C65.9385 33.74 66.5385 33.968 66.9305 34.424C67.3305 34.872 67.5305 35.524 67.5305 36.38L67.5065 36.86H63.8705C63.8705 37.532 64.0145 38.08 64.3025 38.504C64.5905 38.928 64.9865 39.14 65.4905 39.14C65.8665 39.14 66.1825 39.06 66.4385 38.9C66.7025 38.74 66.9465 38.5 67.1705 38.18L67.4105 38.36C67.1465 38.8 66.8385 39.12 66.4865 39.32C66.1345 39.52 65.7225 39.62 65.2505 39.62ZM66.3905 36.38C66.3905 35.676 66.2865 35.14 66.0785 34.772C65.8705 34.404 65.5545 34.22 65.1305 34.22C64.8905 34.22 64.6745 34.316 64.4825 34.508C64.2905 34.692 64.1385 34.948 64.0265 35.276C63.9225 35.604 63.8705 35.972 63.8705 36.38H66.3905ZM71.2299 39.62C70.6859 39.62 70.2259 39.492 69.8499 39.236C69.4739 38.972 69.1899 38.62 68.9979 38.18C68.8059 37.732 68.7099 37.232 68.7099 36.68C68.7099 36.136 68.8059 35.64 68.9979 35.192C69.1899 34.744 69.4659 34.392 69.8259 34.136C70.1939 33.872 70.6219 33.74 71.1099 33.74C71.9179 33.74 72.5179 33.968 72.9099 34.424C73.3099 34.872 73.5099 35.524 73.5099 36.38L73.4859 36.86H69.8499C69.8499 37.532 69.9939 38.08 70.2819 38.504C70.5699 38.928 70.9659 39.14 71.4699 39.14C71.8459 39.14 72.1619 39.06 72.4179 38.9C72.6819 38.74 72.9259 38.5 73.1499 38.18L73.3899 38.36C73.1259 38.8 72.8179 39.12 72.4659 39.32C72.1139 39.52 71.7019 39.62 71.2299 39.62ZM72.3699 36.38C72.3699 35.676 72.2659 35.14 72.0579 34.772C71.8499 34.404 71.5339 34.22 71.1099 34.22C70.8699 34.22 70.6539 34.316 70.4619 34.508C70.2699 34.692 70.1179 34.948 70.0059 35.276C69.9019 35.604 69.8499 35.972 69.8499 36.38H72.3699Z" fill="#4F4F4F"/>
</svg>
