<svg width="101" height="45" viewBox="0 0 101 45" fill="none" xmlns="http://www.w3.org/2000/svg">
<path d="M3.43423 13.44L3.67423 11.98H4.31423C5.6209 11.98 6.66757 11.7467 7.45423 11.28C8.2409 10.8 8.63423 10.1533 8.63423 9.34C8.63423 8.72667 8.4209 8.24 7.99423 7.88C7.5809 7.50667 7.04757 7.32 6.39423 7.32C5.7809 7.32 5.25423 7.42 4.81423 7.62C4.37423 7.80667 3.9809 8.02667 3.63423 8.28L2.93423 6.92C3.4009 6.58667 3.93423 6.31333 4.53423 6.1C5.14757 5.87333 5.8409 5.76 6.61423 5.76C7.42757 5.76 8.1209 5.91333 8.69423 6.22C9.2809 6.52667 9.72757 6.93333 10.0342 7.44C10.3409 7.93333 10.4942 8.46667 10.4942 9.04C10.4942 9.97333 10.2209 10.7333 9.67423 11.32C9.12757 11.8933 8.32757 12.34 7.27423 12.66C8.11423 12.9533 8.7609 13.3867 9.21423 13.96C9.66757 14.5333 9.89423 15.2133 9.89423 16C9.89423 16.8533 9.67423 17.6 9.23423 18.24C8.79423 18.88 8.18757 19.3733 7.41423 19.72C6.65423 20.0667 5.7809 20.24 4.79423 20.24C4.03423 20.24 3.31423 20.14 2.63423 19.94C1.96757 19.7267 1.4009 19.44 0.934233 19.08L1.99423 17.66C2.32757 17.94 2.72757 18.1733 3.19423 18.36C3.6609 18.5467 4.19423 18.64 4.79423 18.64C5.7009 18.64 6.45423 18.42 7.05423 17.98C7.65423 17.54 7.95423 16.9067 7.95423 16.08C7.95423 15.3467 7.66757 14.7267 7.09423 14.22C6.5209 13.7 5.6409 13.44 4.45423 13.44H3.43423ZM17.4264 20.24C16.0931 20.24 15.0731 19.7733 14.3664 18.84C13.6731 17.8933 13.3264 16.6133 13.3264 15C13.3264 13.88 13.4464 12.7733 13.6864 11.68C13.9264 10.5733 14.2931 9.58 14.7864 8.7C15.2798 7.80667 15.9064 7.09333 16.6664 6.56C17.4398 6.02667 18.3464 5.76 19.3864 5.76C20.7198 5.76 21.7331 6.23333 22.4264 7.18C23.1331 8.11333 23.4864 9.38667 23.4864 11C23.4864 12.12 23.3664 13.2333 23.1264 14.34C22.8864 15.4333 22.5198 16.4267 22.0264 17.32C21.5331 18.2 20.8998 18.9067 20.1264 19.44C19.3664 19.9733 18.4664 20.24 17.4264 20.24ZM17.6264 18.6C18.2664 18.6 18.8264 18.3933 19.3064 17.98C19.7998 17.5533 20.2131 16.98 20.5464 16.26C20.8798 15.54 21.1264 14.72 21.2864 13.8C21.4598 12.8667 21.5464 11.8933 21.5464 10.88C21.5464 9.76 21.3464 8.9 20.9464 8.3C20.5598 7.7 19.9731 7.4 19.1864 7.4C18.5464 7.4 17.9798 7.61333 17.4864 8.04C17.0064 8.45333 16.5998 9.02 16.2664 9.74C15.9331 10.46 15.6798 11.2867 15.5064 12.22C15.3464 13.14 15.2664 14.1067 15.2664 15.12C15.2664 16.24 15.4664 17.1 15.8664 17.7C16.2664 18.3 16.8531 18.6 17.6264 18.6ZM29.4186 20.24C28.0853 20.24 27.0653 19.7733 26.3586 18.84C25.6653 17.8933 25.3186 16.6133 25.3186 15C25.3186 13.88 25.4386 12.7733 25.6786 11.68C25.9186 10.5733 26.2853 9.58 26.7786 8.7C27.2719 7.80667 27.8986 7.09333 28.6586 6.56C29.4319 6.02667 30.3386 5.76 31.3786 5.76C32.7119 5.76 33.7253 6.23333 34.4186 7.18C35.1253 8.11333 35.4786 9.38667 35.4786 11C35.4786 12.12 35.3586 13.2333 35.1186 14.34C34.8786 15.4333 34.5119 16.4267 34.0186 17.32C33.5253 18.2 32.8919 18.9067 32.1186 19.44C31.3586 19.9733 30.4586 20.24 29.4186 20.24ZM29.6186 18.6C30.2586 18.6 30.8186 18.3933 31.2986 17.98C31.7919 17.5533 32.2053 16.98 32.5386 16.26C32.8719 15.54 33.1186 14.72 33.2786 13.8C33.4519 12.8667 33.5386 11.8933 33.5386 10.88C33.5386 9.76 33.3386 8.9 32.9386 8.3C32.5519 7.7 31.9653 7.4 31.1786 7.4C30.5386 7.4 29.9719 7.61333 29.4786 8.04C28.9986 8.45333 28.5919 9.02 28.2586 9.74C27.9253 10.46 27.6719 11.2867 27.4986 12.22C27.3386 13.14 27.2586 14.1067 27.2586 15.12C27.2586 16.24 27.4586 17.1 27.8586 17.7C28.2586 18.3 28.8453 18.6 29.6186 18.6ZM43.0308 13.92L42.4508 17.16H40.7508L41.3308 13.92H38.2708L38.5308 12.36H41.5908L42.1708 9.1H43.8708L43.2908 12.36H46.3308L46.0708 13.92H43.0308Z" fill="#2B2F34"/>
<path d="M1.48623 33.52C1.48623 33.112 1.43023 32.812 1.31823 32.62C1.20623 32.42 0.982233 32.32 0.646233 32.32H0.406233V32.08H3.52623C4.29423 32.08 4.98623 32.244 5.60223 32.572C6.21823 32.9 6.52623 33.536 6.52623 34.48C6.52623 35.104 6.36623 35.584 6.04623 35.92C5.72623 36.256 5.36623 36.48 4.96623 36.592C4.57423 36.704 4.21423 36.76 3.88623 36.76H2.56623V40H1.48623V33.52ZM3.46623 36.34C3.72223 36.34 3.99423 36.276 4.28223 36.148C4.57023 36.012 4.81423 35.8 5.01423 35.512C5.22223 35.224 5.32623 34.86 5.32623 34.42C5.32623 33.98 5.22223 33.616 5.01423 33.328C4.81423 33.04 4.57023 32.832 4.28223 32.704C3.99423 32.568 3.72223 32.5 3.46623 32.5C3.18623 32.5 2.88623 32.54 2.56623 32.62V36.22C2.88623 36.3 3.18623 36.34 3.46623 36.34ZM9.10473 40.12C8.84873 40.12 8.58873 40.068 8.32473 39.964C8.06073 39.852 7.83273 39.672 7.64073 39.424C7.45673 39.176 7.36473 38.848 7.36473 38.44C7.36473 37.832 7.64473 37.4 8.20473 37.144C8.77273 36.888 9.51273 36.76 10.4247 36.76H10.7847C10.7847 35.976 10.6767 35.44 10.4607 35.152C10.2447 34.864 9.93273 34.72 9.52473 34.72C9.16473 34.72 8.87673 34.796 8.66073 34.948C8.44473 35.1 8.29273 35.364 8.20473 35.74H7.66473C7.66473 35.468 7.68073 35.256 7.71273 35.104C7.74473 34.944 7.82873 34.796 7.96473 34.66C8.10873 34.516 8.34473 34.412 8.67273 34.348C9.00873 34.276 9.37273 34.24 9.76473 34.24C10.4127 34.24 10.9247 34.416 11.3007 34.768C11.6767 35.112 11.8647 35.776 11.8647 36.76V40H11.2647L10.8447 39.46H10.7847C10.6407 39.644 10.4287 39.8 10.1487 39.928C9.86873 40.056 9.52073 40.12 9.10473 40.12ZM9.64473 39.58C9.90873 39.58 10.1287 39.516 10.3047 39.388C10.4807 39.26 10.6407 39.084 10.7847 38.86V37.24H10.4247C9.83273 37.24 9.36473 37.352 9.02073 37.576C8.67673 37.792 8.50473 38.08 8.50473 38.44C8.50473 38.808 8.61273 39.092 8.82873 39.292C9.05273 39.484 9.32473 39.58 9.64473 39.58ZM13.7541 35.8C13.7541 35.392 13.6981 35.092 13.5861 34.9C13.4741 34.7 13.2501 34.6 12.9141 34.6H12.7941V34.36H13.7541C14.0581 34.36 14.2861 34.404 14.4381 34.492C14.5981 34.572 14.7101 34.708 14.7741 34.9H14.8341C14.9781 34.716 15.1701 34.56 15.4101 34.432C15.6581 34.304 15.9461 34.24 16.2741 34.24C16.5941 34.24 16.8341 34.3 16.9941 34.42C17.1301 34.524 17.2701 34.704 17.4141 34.96L16.9341 35.32C16.8461 35.2 16.7181 35.112 16.5501 35.056C16.3821 34.992 16.1901 34.96 15.9741 34.96C15.7341 34.96 15.5141 35.016 15.3141 35.128C15.1141 35.232 14.9541 35.376 14.8341 35.56V40H13.7541V35.8ZM20.2156 40.12C19.7676 40.12 19.4156 39.992 19.1596 39.736C18.9036 39.48 18.7756 39.088 18.7756 38.56V34.84H17.9356V34.36H18.7756V33.28L19.3756 32.56H19.8556V34.36H21.2956V34.84H19.8556V38.56C19.8556 39.28 20.1356 39.64 20.6956 39.64C20.8876 39.64 21.0476 39.62 21.1756 39.58C21.3116 39.54 21.4516 39.48 21.5956 39.4L21.7156 39.64C21.5316 39.776 21.3276 39.892 21.1036 39.988C20.8796 40.076 20.5836 40.12 20.2156 40.12ZM22.9023 35.8C22.9023 35.392 22.8463 35.092 22.7343 34.9C22.6223 34.7 22.3983 34.6 22.0623 34.6H21.8223V34.36H22.9023C23.1983 34.36 23.4223 34.4 23.5743 34.48C23.7343 34.56 23.8503 34.68 23.9223 34.84H23.9823C24.1503 34.672 24.3663 34.532 24.6303 34.42C24.9023 34.3 25.2063 34.24 25.5423 34.24C26.1423 34.24 26.6303 34.4 27.0063 34.72C27.3903 35.04 27.5823 35.6 27.5823 36.4V40H26.5023V36.4C26.5023 35.84 26.3743 35.432 26.1183 35.176C25.8703 34.912 25.5583 34.78 25.1823 34.78C24.7583 34.78 24.3583 34.992 23.9823 35.416V40H22.9023V35.8ZM31.5656 40.12C31.0216 40.12 30.5616 39.992 30.1856 39.736C29.8096 39.472 29.5256 39.12 29.3336 38.68C29.1416 38.232 29.0456 37.732 29.0456 37.18C29.0456 36.636 29.1416 36.14 29.3336 35.692C29.5256 35.244 29.8016 34.892 30.1616 34.636C30.5296 34.372 30.9576 34.24 31.4456 34.24C32.2536 34.24 32.8536 34.468 33.2456 34.924C33.6456 35.372 33.8456 36.024 33.8456 36.88L33.8216 37.36H30.1856C30.1856 38.032 30.3296 38.58 30.6176 39.004C30.9056 39.428 31.3016 39.64 31.8056 39.64C32.1816 39.64 32.4976 39.56 32.7536 39.4C33.0176 39.24 33.2616 39 33.4856 38.68L33.7256 38.86C33.4616 39.3 33.1536 39.62 32.8016 39.82C32.4496 40.02 32.0376 40.12 31.5656 40.12ZM32.7056 36.88C32.7056 36.176 32.6016 35.64 32.3936 35.272C32.1856 34.904 31.8696 34.72 31.4456 34.72C31.2056 34.72 30.9896 34.816 30.7976 35.008C30.6056 35.192 30.4536 35.448 30.3416 35.776C30.2376 36.104 30.1856 36.472 30.1856 36.88H32.7056ZM35.445 35.8C35.445 35.392 35.389 35.092 35.277 34.9C35.165 34.7 34.941 34.6 34.605 34.6H34.485V34.36H35.445C35.749 34.36 35.977 34.404 36.129 34.492C36.289 34.572 36.401 34.708 36.465 34.9H36.525C36.669 34.716 36.861 34.56 37.101 34.432C37.349 34.304 37.637 34.24 37.965 34.24C38.285 34.24 38.525 34.3 38.685 34.42C38.821 34.524 38.961 34.704 39.105 34.96L38.625 35.32C38.537 35.2 38.409 35.112 38.241 35.056C38.073 34.992 37.881 34.96 37.665 34.96C37.425 34.96 37.205 35.016 37.005 35.128C36.805 35.232 36.645 35.376 36.525 35.56V40H35.445V35.8ZM46.7425 40.24C45.9985 40.24 45.3425 40.06 44.7745 39.7C44.2145 39.34 43.7825 38.852 43.4785 38.236C43.1745 37.612 43.0225 36.92 43.0225 36.16C43.0225 35.376 43.1865 34.652 43.5145 33.988C43.8505 33.324 44.3025 32.8 44.8705 32.416C45.4465 32.032 46.0705 31.84 46.7425 31.84C47.3825 31.84 47.9425 31.932 48.4225 32.116C48.9105 32.292 49.2705 32.52 49.5025 32.8C49.6385 32.968 49.7225 33.192 49.7545 33.472C49.7865 33.744 49.8025 34.12 49.8025 34.6H49.5625C49.4105 33.824 49.1305 33.252 48.7225 32.884C48.3145 32.508 47.7745 32.32 47.1025 32.32C46.2385 32.32 45.5425 32.624 45.0145 33.232C44.4865 33.84 44.2225 34.816 44.2225 36.16C44.2225 36.792 44.3225 37.38 44.5225 37.924C44.7305 38.468 45.0505 38.912 45.4825 39.256C45.9145 39.592 46.4545 39.76 47.1025 39.76C47.6865 39.76 48.1945 39.62 48.6265 39.34C49.0665 39.06 49.4585 38.64 49.8025 38.08L50.0425 38.26C49.6745 38.98 49.2185 39.492 48.6745 39.796C48.1385 40.092 47.4945 40.24 46.7425 40.24ZM53.775 40.12C53.231 40.12 52.759 39.992 52.359 39.736C51.959 39.472 51.655 39.116 51.447 38.668C51.239 38.22 51.135 37.724 51.135 37.18C51.135 36.636 51.239 36.14 51.447 35.692C51.655 35.244 51.959 34.892 52.359 34.636C52.759 34.372 53.231 34.24 53.775 34.24C54.319 34.24 54.791 34.372 55.191 34.636C55.591 34.892 55.895 35.244 56.103 35.692C56.311 36.14 56.415 36.636 56.415 37.18C56.415 37.724 56.311 38.22 56.103 38.668C55.895 39.116 55.591 39.472 55.191 39.736C54.791 39.992 54.319 40.12 53.775 40.12ZM53.775 39.64C54.071 39.64 54.331 39.532 54.555 39.316C54.787 39.1 54.963 38.804 55.083 38.428C55.211 38.052 55.275 37.636 55.275 37.18C55.275 36.724 55.211 36.308 55.083 35.932C54.963 35.556 54.787 35.26 54.555 35.044C54.331 34.828 54.071 34.72 53.775 34.72C53.479 34.72 53.215 34.828 52.983 35.044C52.759 35.26 52.583 35.556 52.455 35.932C52.335 36.308 52.275 36.724 52.275 37.18C52.275 37.636 52.335 38.052 52.455 38.428C52.583 38.804 52.759 39.1 52.983 39.316C53.215 39.532 53.479 39.64 53.775 39.64ZM58.1223 35.8C58.1223 35.392 58.0663 35.092 57.9543 34.9C57.8423 34.7 57.6183 34.6 57.2823 34.6H57.0423V34.36H58.1223C58.4183 34.36 58.6423 34.4 58.7943 34.48C58.9543 34.56 59.0703 34.68 59.1423 34.84H59.2023C59.3703 34.672 59.5863 34.532 59.8503 34.42C60.1223 34.3 60.4263 34.24 60.7623 34.24C61.0983 34.24 61.3863 34.304 61.6263 34.432C61.8663 34.552 62.0583 34.768 62.2023 35.08C62.4103 34.816 62.6743 34.612 62.9943 34.468C63.3223 34.316 63.6583 34.24 64.0023 34.24C64.5143 34.24 64.9223 34.4 65.2263 34.72C65.5303 35.04 65.6823 35.6 65.6823 36.4V40H64.6023V36.4C64.6023 35.824 64.5223 35.412 64.3623 35.164C64.2023 34.908 63.9623 34.78 63.6423 34.78C63.4183 34.78 63.1823 34.864 62.9343 35.032C62.6863 35.192 62.5023 35.368 62.3823 35.56C62.4223 35.68 62.4423 35.96 62.4423 36.4V40H61.3623V36.4C61.3623 35.824 61.2823 35.412 61.1223 35.164C60.9623 34.908 60.7223 34.78 60.4023 34.78C59.9783 34.78 59.5783 34.992 59.2023 35.416V40H58.1223V35.8ZM67.6642 35.8C67.6642 35.392 67.6082 35.092 67.4962 34.9C67.3842 34.7 67.1602 34.6 66.8242 34.6H66.5842V34.36H67.6642C67.9682 34.36 68.1962 34.404 68.3482 34.492C68.5082 34.572 68.6202 34.708 68.6842 34.9H68.7442C68.8882 34.716 69.0922 34.56 69.3562 34.432C69.6202 34.304 69.9562 34.24 70.3642 34.24C71.0522 34.24 71.5842 34.52 71.9602 35.08C72.3362 35.632 72.5242 36.332 72.5242 37.18C72.5242 38.036 72.3282 38.74 71.9362 39.292C71.5522 39.844 70.9882 40.12 70.2442 40.12C69.9402 40.12 69.6722 40.088 69.4402 40.024C69.2082 39.96 68.9762 39.872 68.7442 39.76V42.28H67.6642V35.8ZM69.8842 39.64C70.3962 39.64 70.7722 39.416 71.0122 38.968C71.2602 38.52 71.3842 37.924 71.3842 37.18C71.3842 36.444 71.2682 35.852 71.0362 35.404C70.8042 34.948 70.4602 34.72 70.0042 34.72C69.4682 34.72 69.0482 34.96 68.7442 35.44V39.28C68.9842 39.392 69.1922 39.48 69.3682 39.544C69.5442 39.608 69.7162 39.64 69.8842 39.64ZM75.4052 40.12C75.1492 40.12 74.8892 40.068 74.6252 39.964C74.3612 39.852 74.1332 39.672 73.9412 39.424C73.7572 39.176 73.6652 38.848 73.6652 38.44C73.6652 37.832 73.9452 37.4 74.5052 37.144C75.0732 36.888 75.8132 36.76 76.7252 36.76H77.0852C77.0852 35.976 76.9772 35.44 76.7612 35.152C76.5452 34.864 76.2332 34.72 75.8252 34.72C75.4652 34.72 75.1772 34.796 74.9612 34.948C74.7452 35.1 74.5932 35.364 74.5052 35.74H73.9652C73.9652 35.468 73.9812 35.256 74.0132 35.104C74.0452 34.944 74.1292 34.796 74.2652 34.66C74.4092 34.516 74.6452 34.412 74.9732 34.348C75.3092 34.276 75.6732 34.24 76.0652 34.24C76.7132 34.24 77.2252 34.416 77.6012 34.768C77.9772 35.112 78.1652 35.776 78.1652 36.76V40H77.5652L77.1452 39.46H77.0852C76.9412 39.644 76.7292 39.8 76.4492 39.928C76.1692 40.056 75.8212 40.12 75.4052 40.12ZM75.9452 39.58C76.2092 39.58 76.4292 39.516 76.6052 39.388C76.7812 39.26 76.9412 39.084 77.0852 38.86V37.24H76.7252C76.1332 37.24 75.6652 37.352 75.3212 37.576C74.9772 37.792 74.8052 38.08 74.8052 38.44C74.8052 38.808 74.9132 39.092 75.1292 39.292C75.3532 39.484 75.6252 39.58 75.9452 39.58ZM80.1385 35.8C80.1385 35.392 80.0825 35.092 79.9705 34.9C79.8585 34.7 79.6345 34.6 79.2985 34.6H79.0585V34.36H80.1385C80.4345 34.36 80.6585 34.4 80.8105 34.48C80.9705 34.56 81.0865 34.68 81.1585 34.84H81.2185C81.3865 34.672 81.6025 34.532 81.8665 34.42C82.1385 34.3 82.4425 34.24 82.7785 34.24C83.3785 34.24 83.8665 34.4 84.2425 34.72C84.6265 35.04 84.8185 35.6 84.8185 36.4V40H83.7385V36.4C83.7385 35.84 83.6105 35.432 83.3545 35.176C83.1065 34.912 82.7945 34.78 82.4185 34.78C81.9945 34.78 81.5945 34.992 81.2185 35.416V40H80.1385V35.8ZM87.2419 33.64C87.0579 33.64 86.8979 33.564 86.7619 33.412C86.6339 33.26 86.5699 33.08 86.5699 32.872C86.5699 32.704 86.6179 32.572 86.7139 32.476C86.8179 32.38 86.9539 32.332 87.1219 32.332C87.3059 32.332 87.4619 32.408 87.5899 32.56C87.7259 32.712 87.7939 32.892 87.7939 33.1C87.7939 33.268 87.7419 33.4 87.6379 33.496C87.5419 33.592 87.4099 33.64 87.2419 33.64ZM86.7859 35.8C86.7859 35.392 86.7299 35.092 86.6179 34.9C86.5059 34.7 86.2819 34.6 85.9459 34.6H85.7059V34.36H86.7859C87.0819 34.36 87.3019 34.4 87.4459 34.48C87.5979 34.552 87.7059 34.688 87.7699 34.888C87.8339 35.088 87.8659 35.392 87.8659 35.8V40H86.7859V35.8ZM91.875 40.12C91.331 40.12 90.871 39.992 90.495 39.736C90.119 39.472 89.835 39.12 89.643 38.68C89.451 38.232 89.355 37.732 89.355 37.18C89.355 36.636 89.451 36.14 89.643 35.692C89.835 35.244 90.111 34.892 90.471 34.636C90.839 34.372 91.267 34.24 91.755 34.24C92.563 34.24 93.163 34.468 93.555 34.924C93.955 35.372 94.155 36.024 94.155 36.88L94.131 37.36H90.495C90.495 38.032 90.639 38.58 90.927 39.004C91.215 39.428 91.611 39.64 92.115 39.64C92.491 39.64 92.807 39.56 93.063 39.4C93.327 39.24 93.571 39 93.795 38.68L94.035 38.86C93.771 39.3 93.463 39.62 93.111 39.82C92.759 40.02 92.347 40.12 91.875 40.12ZM93.015 36.88C93.015 36.176 92.911 35.64 92.703 35.272C92.495 34.904 92.179 34.72 91.755 34.72C91.515 34.72 91.299 34.816 91.107 35.008C90.915 35.192 90.763 35.448 90.651 35.776C90.547 36.104 90.495 36.472 90.495 36.88H93.015ZM97.5424 40.12C96.6224 40.12 96.0024 39.96 95.6824 39.64C95.5464 39.504 95.4624 39.352 95.4304 39.184C95.3984 39.008 95.3824 38.74 95.3824 38.38H95.6224C95.6944 38.78 95.8664 39.092 96.1384 39.316C96.4184 39.532 96.8064 39.64 97.3024 39.64C97.7424 39.64 98.0704 39.564 98.2864 39.412C98.5104 39.26 98.6224 39.056 98.6224 38.8C98.6224 38.568 98.5344 38.368 98.3584 38.2C98.1904 38.032 97.9184 37.872 97.5424 37.72L96.8224 37.42C96.3424 37.228 95.9824 37.004 95.7424 36.748C95.5024 36.492 95.3824 36.176 95.3824 35.8C95.3824 35.312 95.5664 34.932 95.9344 34.66C96.3024 34.38 96.7784 34.24 97.3624 34.24C98.2424 34.24 98.8424 34.4 99.1624 34.72C99.2984 34.856 99.3824 35.008 99.4144 35.176C99.4464 35.344 99.4624 35.612 99.4624 35.98H99.2224C99.1584 35.58 98.9904 35.272 98.7184 35.056C98.4464 34.832 98.0744 34.72 97.6024 34.72C97.2264 34.72 96.9304 34.8 96.7144 34.96C96.5064 35.112 96.4024 35.312 96.4024 35.56C96.4024 35.976 96.7224 36.316 97.3624 36.58L98.0824 36.88C98.6264 37.104 99.0224 37.344 99.2704 37.6C99.5184 37.848 99.6424 38.168 99.6424 38.56C99.6424 39.048 99.4464 39.432 99.0544 39.712C98.6624 39.984 98.1584 40.12 97.5424 40.12Z" fill="#4F4F4F"/>
</svg>
