<svg width="85" height="45" viewBox="0 0 85 45" fill="none" xmlns="http://www.w3.org/2000/svg">
<path d="M8.87423 16.98L8.35423 20H6.59423L7.11423 16.98H1.15423L1.39423 15.58L7.25423 5.86L8.79423 6.52L3.49423 15.38H7.39423L8.11423 11.4H9.87423L9.15423 15.38H10.8742L10.5942 16.98H8.87423ZM17.2864 18.4L19.0664 8.34L16.0864 10.42L15.2664 8.98L19.9464 6H21.2664L19.0864 18.4H21.4664L21.1864 20H14.1464L14.4264 18.4H17.2864ZM33.4947 6H35.3947L33.2347 18.3H39.6547L39.3547 20H31.0347L33.4947 6ZM40.837 15.9C40.837 14.6067 41.117 13.4733 41.677 12.5C42.2504 11.5133 43.037 10.7467 44.037 10.2C45.037 9.64 46.177 9.36 47.457 9.36C48.2437 9.36 48.9304 9.44 49.517 9.6C50.117 9.76 50.6104 9.92 50.997 10.08L49.737 17.18C49.7237 17.2467 49.7104 17.3267 49.697 17.42C49.697 17.5 49.697 17.5867 49.697 17.68C49.697 18.0533 49.8037 18.32 50.017 18.48C50.2304 18.6267 50.5104 18.7 50.857 18.7L50.237 20.1C49.517 20.1 48.9637 19.9267 48.577 19.58C48.2037 19.22 48.017 18.6667 48.017 17.92C47.6437 18.56 47.1704 19.1067 46.597 19.56C46.037 20.0133 45.377 20.24 44.617 20.24C43.9637 20.24 43.3504 20.0667 42.777 19.72C42.2037 19.36 41.737 18.86 41.377 18.22C41.017 17.5667 40.837 16.7933 40.837 15.9ZM49.017 11.14C48.7637 11.06 48.497 11 48.217 10.96C47.9504 10.9067 47.6237 10.88 47.237 10.88C46.317 10.88 45.517 11.0867 44.837 11.5C44.157 11.9133 43.6237 12.4867 43.237 13.22C42.8637 13.94 42.677 14.76 42.677 15.68C42.677 16.32 42.7904 16.86 43.017 17.3C43.257 17.74 43.5637 18.0733 43.937 18.3C44.3104 18.5267 44.697 18.64 45.097 18.64C45.6437 18.64 46.1437 18.4533 46.597 18.08C47.0504 17.7067 47.437 17.1867 47.757 16.52C48.0904 15.8533 48.3304 15.0933 48.477 14.24L49.017 11.14ZM55.273 5.2H57.073L55.993 11.34C56.353 10.7267 56.8263 10.2467 57.413 9.9C57.9997 9.54 58.6597 9.36 59.393 9.36C59.9663 9.36 60.473 9.48 60.913 9.72C61.3663 9.96 61.7197 10.2867 61.973 10.7C62.2263 11.1 62.353 11.5467 62.353 12.04C62.353 13.0933 61.993 13.8733 61.273 14.38C60.5663 14.8733 59.6663 15.12 58.573 15.12C58.5063 15.12 58.4397 15.12 58.373 15.12C58.3063 15.12 58.2263 15.1133 58.133 15.1L59.833 17.7C60.0597 18.0467 60.313 18.3 60.593 18.46C60.8863 18.62 61.2797 18.7 61.773 18.7L61.153 20.1C60.5397 20.1 60.0197 20.0133 59.593 19.84C59.1663 19.6533 58.7863 19.2733 58.453 18.7L55.993 14.46L56.173 13.88C56.373 13.9733 56.6263 14.0533 56.933 14.12C57.2397 14.1733 57.5863 14.2 57.973 14.2C58.8397 14.2 59.493 14.02 59.933 13.66C60.3863 13.2867 60.613 12.8133 60.613 12.24C60.613 11.8267 60.4597 11.48 60.153 11.2C59.8597 10.9067 59.4597 10.76 58.953 10.76C58.5797 10.76 58.1463 10.88 57.653 11.12C57.173 11.3467 56.7197 11.7533 56.293 12.34C55.8663 12.9267 55.5597 13.7533 55.373 14.82L54.473 20H52.673L55.273 5.2ZM71.7124 12.64C71.7124 12.1333 71.559 11.7267 71.2524 11.42C70.959 11.1 70.5724 10.94 70.0924 10.94C69.6257 10.94 69.1124 11.1067 68.5524 11.44C68.0057 11.7733 67.5057 12.2933 67.0524 13C66.599 13.7067 66.2724 14.62 66.0724 15.74L65.3324 20H63.5324L66.1324 5.2H67.9324L66.7724 11.78C67.1857 11.0467 67.7257 10.46 68.3924 10.02C69.0724 9.58 69.7857 9.36 70.5324 9.36C71.4524 9.36 72.179 9.64 72.7124 10.2C73.259 10.7467 73.5324 11.42 73.5324 12.22C73.5324 12.5533 73.4924 12.9733 73.4124 13.48L72.2724 20H70.4724L71.5724 13.78C71.639 13.46 71.679 13.2267 71.6924 13.08C71.7057 12.92 71.7124 12.7733 71.7124 12.64ZM82.5897 11.86C82.203 11.5933 81.7697 11.36 81.2897 11.16C80.823 10.96 80.2897 10.86 79.6897 10.86C79.063 10.86 78.5764 10.9667 78.2297 11.18C77.883 11.3933 77.7097 11.6733 77.7097 12.02C77.7097 12.22 77.763 12.4133 77.8697 12.6C77.9897 12.7733 78.1964 12.96 78.4897 13.16C78.7964 13.36 79.223 13.6 79.7697 13.88C80.6764 14.3333 81.3497 14.8067 81.7897 15.3C82.2297 15.78 82.4497 16.3733 82.4497 17.08C82.4497 17.7867 82.263 18.3733 81.8897 18.84C81.5164 19.3067 81.0164 19.66 80.3897 19.9C79.763 20.1267 79.0564 20.24 78.2697 20.24C77.4564 20.24 76.7364 20.14 76.1097 19.94C75.4964 19.7267 74.963 19.4533 74.5097 19.12L75.5297 17.64C75.8897 17.9333 76.3164 18.18 76.8097 18.38C77.303 18.58 77.843 18.68 78.4297 18.68C79.0964 18.68 79.623 18.5533 80.0097 18.3C80.3964 18.0467 80.5897 17.7333 80.5897 17.36C80.5897 17.0133 80.443 16.6933 80.1497 16.4C79.8697 16.1067 79.3164 15.7533 78.4897 15.34C77.823 15.0067 77.303 14.6867 76.9297 14.38C76.5564 14.06 76.2964 13.72 76.1497 13.36C76.003 13 75.9297 12.5867 75.9297 12.12C75.9297 11.5867 76.0897 11.1133 76.4097 10.7C76.7297 10.2867 77.1764 9.96 77.7497 9.72C78.323 9.48 78.983 9.36 79.7297 9.36C80.4764 9.36 81.143 9.46 81.7297 9.66C82.3297 9.84667 82.8564 10.0733 83.3097 10.34L82.5897 11.86Z" fill="#2B2F34"/>
<path d="M1.48623 33.52C1.48623 33.112 1.43023 32.812 1.31823 32.62C1.20623 32.42 0.982233 32.32 0.646233 32.32H0.406233V32.08H1.48623C1.78223 32.08 2.00223 32.12 2.14623 32.2C2.29823 32.272 2.40623 32.408 2.47023 32.608C2.53423 32.808 2.56623 33.112 2.56623 33.52V35.68H6.16623V32.08H7.24623V38.56C7.24623 38.968 7.30223 39.272 7.41423 39.472C7.52623 39.664 7.75023 39.76 8.08623 39.76H8.32623V40H7.24623C6.95023 40 6.72623 39.964 6.57423 39.892C6.43023 39.812 6.32623 39.672 6.26223 39.472C6.19823 39.272 6.16623 38.968 6.16623 38.56V36.16H2.56623V40H1.48623V33.52ZM10.3186 33.64C10.1346 33.64 9.97461 33.564 9.83861 33.412C9.71061 33.26 9.64661 33.08 9.64661 32.872C9.64661 32.704 9.69461 32.572 9.79061 32.476C9.89461 32.38 10.0306 32.332 10.1986 32.332C10.3826 32.332 10.5386 32.408 10.6666 32.56C10.8026 32.712 10.8706 32.892 10.8706 33.1C10.8706 33.268 10.8186 33.4 10.7146 33.496C10.6186 33.592 10.4866 33.64 10.3186 33.64ZM9.86261 35.8C9.86261 35.392 9.80661 35.092 9.69461 34.9C9.58261 34.7 9.35861 34.6 9.02261 34.6H8.78261V34.36H9.86261C10.1586 34.36 10.3786 34.4 10.5226 34.48C10.6746 34.552 10.7826 34.688 10.8466 34.888C10.9106 35.088 10.9426 35.392 10.9426 35.8V40H9.86261V35.8ZM14.8437 42.4C14.0357 42.4 13.3917 42.252 12.9117 41.956C12.4397 41.66 12.2037 41.188 12.2037 40.54C12.2037 40.172 12.3277 39.852 12.5757 39.58C12.8237 39.308 13.1397 39.108 13.5237 38.98C13.2037 38.804 13.0437 38.564 13.0437 38.26C13.0437 38.1 13.0797 37.976 13.1517 37.888C13.2237 37.8 13.3277 37.704 13.4637 37.6C13.2077 37.472 12.9917 37.272 12.8157 37C12.6477 36.728 12.5637 36.408 12.5637 36.04C12.5637 34.84 13.3237 34.24 14.8437 34.24H17.0637V34.54L16.2837 34.66V34.72C16.5317 34.848 16.7317 35.028 16.8837 35.26C17.0437 35.484 17.1237 35.744 17.1237 36.04C17.1237 37.24 16.3637 37.84 14.8437 37.84C14.0037 37.84 13.5837 37.98 13.5837 38.26C13.5837 38.54 14.0037 38.68 14.8437 38.68C15.6197 38.68 16.2517 38.836 16.7397 39.148C17.2357 39.452 17.4837 39.916 17.4837 40.54C17.4837 41.188 17.2437 41.66 16.7637 41.956C16.2917 42.252 15.6517 42.4 14.8437 42.4ZM14.8437 37.42C15.2037 37.42 15.4917 37.312 15.7077 37.096C15.9317 36.872 16.0437 36.52 16.0437 36.04C16.0437 35.584 15.9317 35.24 15.7077 35.008C15.4917 34.776 15.2037 34.66 14.8437 34.66C14.4837 34.66 14.1917 34.772 13.9677 34.996C13.7517 35.212 13.6437 35.56 13.6437 36.04C13.6437 36.52 13.7517 36.872 13.9677 37.096C14.1917 37.312 14.4837 37.42 14.8437 37.42ZM14.8437 41.92C15.3237 41.92 15.7037 41.804 15.9837 41.572C16.2637 41.348 16.4037 41.004 16.4037 40.54C16.4037 39.74 15.9237 39.28 14.9637 39.16L14.3037 39.1C13.9757 39.228 13.7237 39.408 13.5477 39.64C13.3717 39.872 13.2837 40.172 13.2837 40.54C13.2837 41.004 13.4237 41.348 13.7037 41.572C13.9837 41.804 14.3637 41.92 14.8437 41.92ZM18.782 33.52C18.782 33.112 18.726 32.812 18.614 32.62C18.502 32.42 18.278 32.32 17.942 32.32H17.702V32.08H18.782C19.078 32.08 19.298 32.12 19.442 32.2C19.594 32.272 19.702 32.408 19.766 32.608C19.83 32.808 19.862 33.112 19.862 33.52V34.84C20.03 34.672 20.246 34.532 20.51 34.42C20.782 34.3 21.086 34.24 21.422 34.24C22.022 34.24 22.51 34.4 22.886 34.72C23.27 35.04 23.462 35.6 23.462 36.4V40H22.382V36.4C22.382 35.84 22.254 35.432 21.998 35.176C21.75 34.912 21.438 34.78 21.062 34.78C20.638 34.78 20.238 34.992 19.862 35.416V40H18.782V33.52ZM27.4495 40.12C26.9055 40.12 26.4455 39.992 26.0695 39.736C25.6935 39.472 25.4095 39.12 25.2175 38.68C25.0255 38.232 24.9295 37.732 24.9295 37.18C24.9295 36.636 25.0255 36.14 25.2175 35.692C25.4095 35.244 25.6855 34.892 26.0455 34.636C26.4135 34.372 26.8415 34.24 27.3295 34.24C28.1375 34.24 28.7375 34.468 29.1295 34.924C29.5295 35.372 29.7295 36.024 29.7295 36.88L29.7055 37.36H26.0695C26.0695 38.032 26.2135 38.58 26.5015 39.004C26.7895 39.428 27.1855 39.64 27.6895 39.64C28.0655 39.64 28.3815 39.56 28.6375 39.4C28.9015 39.24 29.1455 39 29.3695 38.68L29.6095 38.86C29.3455 39.3 29.0375 39.62 28.6855 39.82C28.3335 40.02 27.9215 40.12 27.4495 40.12ZM28.5895 36.88C28.5895 36.176 28.4855 35.64 28.2775 35.272C28.0695 34.904 27.7535 34.72 27.3295 34.72C27.0895 34.72 26.8735 34.816 26.6815 35.008C26.4895 35.192 26.3375 35.448 26.2255 35.776C26.1215 36.104 26.0695 36.472 26.0695 36.88H28.5895ZM33.1169 40.12C32.1969 40.12 31.5769 39.96 31.2569 39.64C31.1209 39.504 31.0369 39.352 31.0049 39.184C30.9729 39.008 30.9569 38.74 30.9569 38.38H31.1969C31.2689 38.78 31.4409 39.092 31.7129 39.316C31.9929 39.532 32.3809 39.64 32.8769 39.64C33.3169 39.64 33.6449 39.564 33.8609 39.412C34.0849 39.26 34.1969 39.056 34.1969 38.8C34.1969 38.568 34.1089 38.368 33.9329 38.2C33.7649 38.032 33.4929 37.872 33.1169 37.72L32.3969 37.42C31.9169 37.228 31.5569 37.004 31.3169 36.748C31.0769 36.492 30.9569 36.176 30.9569 35.8C30.9569 35.312 31.1409 34.932 31.5089 34.66C31.8769 34.38 32.3529 34.24 32.9369 34.24C33.8169 34.24 34.4169 34.4 34.7369 34.72C34.8729 34.856 34.9569 35.008 34.9889 35.176C35.0209 35.344 35.0369 35.612 35.0369 35.98H34.7969C34.7329 35.58 34.5649 35.272 34.2929 35.056C34.0209 34.832 33.6489 34.72 33.1769 34.72C32.8009 34.72 32.5049 34.8 32.2889 34.96C32.0809 35.112 31.9769 35.312 31.9769 35.56C31.9769 35.976 32.2969 36.316 32.9369 36.58L33.6569 36.88C34.2009 37.104 34.5969 37.344 34.8449 37.6C35.0929 37.848 35.2169 38.168 35.2169 38.56C35.2169 39.048 35.0209 39.432 34.6289 39.712C34.2369 39.984 33.7329 40.12 33.1169 40.12ZM38.3764 40.12C37.9284 40.12 37.5764 39.992 37.3204 39.736C37.0644 39.48 36.9364 39.088 36.9364 38.56V34.84H36.0964V34.36H36.9364V33.28L37.5364 32.56H38.0164V34.36H39.4564V34.84H38.0164V38.56C38.0164 39.28 38.2964 39.64 38.8564 39.64C39.0484 39.64 39.2084 39.62 39.3364 39.58C39.4724 39.54 39.6124 39.48 39.7564 39.4L39.8764 39.64C39.6924 39.776 39.4884 39.892 39.2644 39.988C39.0404 40.076 38.7444 40.12 38.3764 40.12ZM46.5231 40.204C46.0831 40.204 45.6511 40.144 45.2271 40.024C44.8031 39.904 44.4551 39.732 44.1831 39.508C43.9191 39.284 43.7871 39.028 43.7871 38.74V37.456H44.0031C44.1391 38.256 44.4031 38.836 44.7951 39.196C45.1871 39.548 45.7271 39.724 46.4151 39.724C46.8471 39.724 47.2151 39.616 47.5191 39.4C47.8311 39.184 47.9871 38.884 47.9871 38.5C47.9871 38.164 47.8831 37.872 47.6751 37.624C47.4671 37.376 47.1311 37.116 46.6671 36.844L45.1911 35.968C44.6791 35.664 44.3151 35.356 44.0991 35.044C43.8911 34.732 43.7871 34.352 43.7871 33.904C43.7871 33.288 43.9991 32.796 44.4231 32.428C44.8551 32.052 45.4191 31.864 46.1151 31.864C46.5231 31.864 46.9271 31.924 47.3271 32.044C47.7271 32.156 48.0551 32.324 48.3111 32.548C48.5751 32.764 48.7071 33.016 48.7071 33.304V34.588H48.4911C48.3551 33.788 48.0951 33.216 47.7111 32.872C47.3351 32.52 46.8031 32.344 46.1151 32.344C45.7471 32.344 45.4231 32.456 45.1431 32.68C44.8631 32.904 44.7231 33.196 44.7231 33.556C44.7231 33.884 44.8231 34.156 45.0231 34.372C45.2311 34.588 45.5751 34.84 46.0551 35.128L47.5311 36.004C48.0751 36.332 48.4591 36.636 48.6831 36.916C48.9071 37.196 49.0191 37.552 49.0191 37.984C49.0191 38.656 48.7951 39.196 48.3471 39.604C47.8991 40.004 47.2911 40.204 46.5231 40.204ZM51.8655 40.12C51.6095 40.12 51.3495 40.068 51.0855 39.964C50.8215 39.852 50.5935 39.672 50.4015 39.424C50.2175 39.176 50.1255 38.848 50.1255 38.44C50.1255 37.832 50.4055 37.4 50.9655 37.144C51.5335 36.888 52.2735 36.76 53.1855 36.76H53.5455C53.5455 35.976 53.4375 35.44 53.2215 35.152C53.0055 34.864 52.6935 34.72 52.2855 34.72C51.9255 34.72 51.6375 34.796 51.4215 34.948C51.2055 35.1 51.0535 35.364 50.9655 35.74H50.4255C50.4255 35.468 50.4415 35.256 50.4735 35.104C50.5055 34.944 50.5895 34.796 50.7255 34.66C50.8695 34.516 51.1055 34.412 51.4335 34.348C51.7695 34.276 52.1335 34.24 52.5255 34.24C53.1735 34.24 53.6855 34.416 54.0615 34.768C54.4375 35.112 54.6255 35.776 54.6255 36.76V40H54.0255L53.6055 39.46H53.5455C53.4015 39.644 53.1895 39.8 52.9095 39.928C52.6295 40.056 52.2815 40.12 51.8655 40.12ZM52.4055 39.58C52.6695 39.58 52.8895 39.516 53.0655 39.388C53.2415 39.26 53.4015 39.084 53.5455 38.86V37.24H53.1855C52.5935 37.24 52.1255 37.352 51.7815 37.576C51.4375 37.792 51.2655 38.08 51.2655 38.44C51.2655 38.808 51.3735 39.092 51.5895 39.292C51.8135 39.484 52.0855 39.58 52.4055 39.58ZM56.4669 33.52C56.4669 33.112 56.4109 32.812 56.2989 32.62C56.1869 32.42 55.9629 32.32 55.6269 32.32H55.3869V32.08H56.4669C56.7629 32.08 56.9829 32.12 57.1269 32.2C57.2789 32.272 57.3869 32.408 57.4509 32.608C57.5149 32.808 57.5469 33.112 57.5469 33.52V40H56.4669V33.52ZM60.7891 40.12C60.5331 40.12 60.2731 40.068 60.0091 39.964C59.7451 39.852 59.5171 39.672 59.3251 39.424C59.1411 39.176 59.0491 38.848 59.0491 38.44C59.0491 37.832 59.3291 37.4 59.8891 37.144C60.4571 36.888 61.1971 36.76 62.1091 36.76H62.4691C62.4691 35.976 62.3611 35.44 62.1451 35.152C61.9291 34.864 61.6171 34.72 61.2091 34.72C60.8491 34.72 60.5611 34.796 60.3451 34.948C60.1291 35.1 59.9771 35.364 59.8891 35.74H59.3491C59.3491 35.468 59.3651 35.256 59.3971 35.104C59.4291 34.944 59.5131 34.796 59.6491 34.66C59.7931 34.516 60.0291 34.412 60.3571 34.348C60.6931 34.276 61.0571 34.24 61.4491 34.24C62.0971 34.24 62.6091 34.416 62.9851 34.768C63.3611 35.112 63.5491 35.776 63.5491 36.76V40H62.9491L62.5291 39.46H62.4691C62.3251 39.644 62.1131 39.8 61.8331 39.928C61.5531 40.056 61.2051 40.12 60.7891 40.12ZM61.3291 39.58C61.5931 39.58 61.8131 39.516 61.9891 39.388C62.1651 39.26 62.3251 39.084 62.4691 38.86V37.24H62.1091C61.5171 37.24 61.0491 37.352 60.7051 37.576C60.3611 37.792 60.1891 38.08 60.1891 38.44C60.1891 38.808 60.2971 39.092 60.5131 39.292C60.7371 39.484 61.0091 39.58 61.3291 39.58ZM65.4385 35.8C65.4385 35.392 65.3825 35.092 65.2705 34.9C65.1585 34.7 64.9345 34.6 64.5985 34.6H64.4785V34.36H65.4385C65.7425 34.36 65.9705 34.404 66.1225 34.492C66.2825 34.572 66.3945 34.708 66.4585 34.9H66.5185C66.6625 34.716 66.8545 34.56 67.0945 34.432C67.3425 34.304 67.6305 34.24 67.9585 34.24C68.2785 34.24 68.5185 34.3 68.6785 34.42C68.8145 34.524 68.9545 34.704 69.0985 34.96L68.6185 35.32C68.5305 35.2 68.4025 35.112 68.2345 35.056C68.0665 34.992 67.8745 34.96 67.6585 34.96C67.4185 34.96 67.1985 35.016 66.9985 35.128C66.7985 35.232 66.6385 35.376 66.5185 35.56V40H65.4385V35.8ZM70.628 42.04C71.02 42.04 71.34 41.948 71.588 41.764C71.844 41.588 72.064 41.26 72.248 40.78L72.488 40.12L70.568 35.44C70.344 34.864 69.904 34.544 69.248 34.48V34.24H70.268C70.964 34.24 71.444 34.56 71.708 35.2L73.076 38.524L74.588 34.36H75.188L72.848 40.78C72.616 41.412 72.36 41.84 72.08 42.064C71.8 42.288 71.436 42.4 70.988 42.4H70.628V42.04Z" fill="#4F4F4F"/>
</svg>
