<svg width="79" height="45" viewBox="0 0 79 45" fill="none" xmlns="http://www.w3.org/2000/svg">
<path d="M4.78711 12.32C4.14711 11.92 3.66711 11.4933 3.34711 11.04C3.04045 10.5733 2.88711 10.02 2.88711 9.38C2.88711 8.68667 3.08711 8.06667 3.48711 7.52C3.88711 6.97333 4.41378 6.54667 5.06711 6.24C5.73378 5.92 6.46711 5.76 7.26711 5.76C8.08045 5.76 8.78711 5.91333 9.38711 6.22C9.98711 6.52667 10.4471 6.93333 10.7671 7.44C11.1004 7.93333 11.2671 8.46 11.2671 9.02C11.2671 9.9 11.0004 10.6133 10.4671 11.16C9.94711 11.6933 9.18045 12.1467 8.16711 12.52C9.07378 12.9467 9.74045 13.4333 10.1671 13.98C10.6071 14.5267 10.8271 15.1933 10.8271 15.98C10.8271 16.8467 10.5871 17.6 10.1071 18.24C9.64045 18.88 9.00711 19.3733 8.20711 19.72C7.40711 20.0667 6.50711 20.24 5.50711 20.24C4.64045 20.24 3.86045 20.0867 3.16711 19.78C2.47378 19.4733 1.92711 19.0467 1.52711 18.5C1.12711 17.9533 0.927113 17.3267 0.927113 16.62C0.927113 15.5667 1.24711 14.6933 1.88711 14C2.54045 13.2933 3.50711 12.7333 4.78711 12.32ZM7.16711 7.24C6.75378 7.24 6.35378 7.32 5.96711 7.48C5.59378 7.64 5.28711 7.88 5.04711 8.2C4.80711 8.50667 4.68711 8.89333 4.68711 9.36C4.68711 9.86667 4.88711 10.3267 5.28711 10.74C5.70045 11.14 6.20711 11.4867 6.80711 11.78C7.54045 11.5667 8.16711 11.24 8.68711 10.8C9.20711 10.3467 9.46711 9.82667 9.46711 9.24C9.46711 8.69333 9.25378 8.22667 8.82711 7.84C8.41378 7.44 7.86045 7.24 7.16711 7.24ZM5.70711 18.64C6.26711 18.64 6.79378 18.54 7.28711 18.34C7.78045 18.1267 8.17378 17.8267 8.46711 17.44C8.77378 17.0533 8.92711 16.5933 8.92711 16.06C8.92711 15.4733 8.69378 14.9333 8.22711 14.44C7.76045 13.9467 7.09378 13.54 6.22711 13.22C5.65378 13.34 5.10711 13.54 4.58711 13.82C4.06711 14.0867 3.64045 14.4333 3.30711 14.86C2.98711 15.2733 2.82711 15.7667 2.82711 16.34C2.82711 16.9933 3.10045 17.54 3.64711 17.98C4.19378 18.42 4.88045 18.64 5.70711 18.64ZM14.4793 20.24C14.106 20.24 13.806 20.1267 13.5793 19.9C13.3526 19.66 13.2393 19.3933 13.2393 19.1C13.2393 18.6067 13.3926 18.2267 13.6993 17.96C14.006 17.6933 14.346 17.56 14.7193 17.56C15.106 17.56 15.406 17.6733 15.6193 17.9C15.846 18.1267 15.9593 18.3933 15.9593 18.7C15.9593 19.1933 15.806 19.5733 15.4993 19.84C15.206 20.1067 14.866 20.24 14.4793 20.24ZM21.3154 13.44L21.5554 11.98H22.1954C23.5021 11.98 24.5487 11.7467 25.3354 11.28C26.1221 10.8 26.5154 10.1533 26.5154 9.34C26.5154 8.72667 26.3021 8.24 25.8754 7.88C25.4621 7.50667 24.9287 7.32 24.2754 7.32C23.6621 7.32 23.1354 7.42 22.6954 7.62C22.2554 7.80667 21.8621 8.02667 21.5154 8.28L20.8154 6.92C21.2821 6.58667 21.8154 6.31333 22.4154 6.1C23.0287 5.87333 23.7221 5.76 24.4954 5.76C25.3087 5.76 26.0021 5.91333 26.5754 6.22C27.1621 6.52667 27.6087 6.93333 27.9154 7.44C28.2221 7.93333 28.3754 8.46667 28.3754 9.04C28.3754 9.97333 28.1021 10.7333 27.5554 11.32C27.0087 11.8933 26.2087 12.34 25.1554 12.66C25.9954 12.9533 26.6421 13.3867 27.0954 13.96C27.5487 14.5333 27.7754 15.2133 27.7754 16C27.7754 16.8533 27.5554 17.6 27.1154 18.24C26.6754 18.88 26.0687 19.3733 25.2954 19.72C24.5354 20.0667 23.6621 20.24 22.6754 20.24C21.9154 20.24 21.1954 20.14 20.5154 19.94C19.8487 19.7267 19.2821 19.44 18.8154 19.08L19.8754 17.66C20.2087 17.94 20.6087 18.1733 21.0754 18.36C21.5421 18.5467 22.0754 18.64 22.6754 18.64C23.5821 18.64 24.3354 18.42 24.9354 17.98C25.5354 17.54 25.8354 16.9067 25.8354 16.08C25.8354 15.3467 25.5487 14.7267 24.9754 14.22C24.4021 13.7 23.5221 13.44 22.3354 13.44H21.3154ZM39.3837 6H41.2837L39.1237 18.3H45.5437L45.2437 20H36.9237L39.3837 6ZM49.539 6.2C50.0457 6.09333 50.5857 6.00667 51.159 5.94C51.7457 5.87333 52.3923 5.84 53.099 5.84C54.179 5.84 55.079 6.03333 55.799 6.42C56.519 6.79333 57.0523 7.29333 57.399 7.92C57.759 8.53333 57.939 9.19333 57.939 9.9C57.939 10.9933 57.6723 11.9133 57.139 12.66C56.6057 13.3933 55.8723 13.9533 54.939 14.34C54.0057 14.7133 52.9457 14.9 51.759 14.9C51.439 14.9 51.119 14.8867 50.799 14.86C50.4923 14.82 50.2057 14.7667 49.939 14.7L49.019 20H47.119L49.539 6.2ZM52.899 7.42C52.539 7.42 52.219 7.43333 51.939 7.46C51.6723 7.48667 51.4257 7.52 51.199 7.56L50.219 13.1C50.4857 13.18 50.7723 13.24 51.079 13.28C51.399 13.3067 51.7123 13.32 52.019 13.32C53.4457 13.32 54.479 13.02 55.119 12.42C55.759 11.82 56.079 11.0533 56.079 10.12C56.079 9.33333 55.799 8.68667 55.239 8.18C54.6923 7.67333 53.9123 7.42 52.899 7.42ZM56.3049 19.26L63.9849 6H66.1249L69.1849 19.78L67.3649 20.2L66.5249 16.2H60.0449L57.8249 20.16L56.3049 19.26ZM60.9449 14.6H66.1849L64.7649 7.86L60.9449 14.6Z" fill="#2B2F34"/>
<path d="M7.57111 40.06C7.18711 40.06 6.80711 39.956 6.43111 39.748C6.05511 39.532 5.75511 39.116 5.53111 38.5L5.23111 37.72H1.87111L0.911113 40H0.371113L3.73111 32.08H4.09111L6.73111 38.5C6.93111 38.964 7.11911 39.284 7.29511 39.46C7.47111 39.628 7.72311 39.728 8.05111 39.76V40C7.90711 40.04 7.74711 40.06 7.57111 40.06ZM4.99111 37.24L3.55111 33.76L2.05111 37.24H4.99111ZM8.35261 35.74C8.16061 35.292 7.97661 34.98 7.80061 34.804C7.62461 34.62 7.39261 34.52 7.10461 34.504V34.264C7.14461 34.264 7.20061 34.26 7.27261 34.252C7.35261 34.244 7.43261 34.24 7.51261 34.24C7.93661 34.24 8.32061 34.348 8.66461 34.564C9.00861 34.772 9.30461 35.164 9.55261 35.74L10.6326 38.32L12.3126 34.36H12.9126L10.4526 40.12H10.2126L8.35261 35.74ZM16.2157 40.12C15.6717 40.12 15.2117 39.992 14.8357 39.736C14.4597 39.472 14.1757 39.12 13.9837 38.68C13.7917 38.232 13.6957 37.732 13.6957 37.18C13.6957 36.636 13.7917 36.14 13.9837 35.692C14.1757 35.244 14.4517 34.892 14.8117 34.636C15.1797 34.372 15.6077 34.24 16.0957 34.24C16.9037 34.24 17.5037 34.468 17.8957 34.924C18.2957 35.372 18.4957 36.024 18.4957 36.88L18.4717 37.36H14.8357C14.8357 38.032 14.9797 38.58 15.2677 39.004C15.5557 39.428 15.9517 39.64 16.4557 39.64C16.8317 39.64 17.1477 39.56 17.4037 39.4C17.6677 39.24 17.9117 39 18.1357 38.68L18.3757 38.86C18.1117 39.3 17.8037 39.62 17.4517 39.82C17.0997 40.02 16.6877 40.12 16.2157 40.12ZM17.3557 36.88C17.3557 36.176 17.2517 35.64 17.0437 35.272C16.8357 34.904 16.5197 34.72 16.0957 34.72C15.8557 34.72 15.6397 34.816 15.4477 35.008C15.2557 35.192 15.1037 35.448 14.9917 35.776C14.8877 36.104 14.8357 36.472 14.8357 36.88H17.3557ZM20.0951 35.8C20.0951 35.392 20.0391 35.092 19.9271 34.9C19.8151 34.7 19.5911 34.6 19.2551 34.6H19.1351V34.36H20.0951C20.3991 34.36 20.6271 34.404 20.7791 34.492C20.9391 34.572 21.0511 34.708 21.1151 34.9H21.1751C21.3191 34.716 21.5111 34.56 21.7511 34.432C21.9991 34.304 22.2871 34.24 22.6151 34.24C22.9351 34.24 23.1751 34.3 23.3351 34.42C23.4711 34.524 23.6111 34.704 23.7551 34.96L23.2751 35.32C23.1871 35.2 23.0591 35.112 22.8911 35.056C22.7231 34.992 22.5311 34.96 22.3151 34.96C22.0751 34.96 21.8551 35.016 21.6551 35.128C21.4551 35.232 21.2951 35.376 21.1751 35.56V40H20.0951V35.8ZM26.2326 40.12C25.9766 40.12 25.7166 40.068 25.4526 39.964C25.1886 39.852 24.9606 39.672 24.7686 39.424C24.5846 39.176 24.4926 38.848 24.4926 38.44C24.4926 37.832 24.7726 37.4 25.3326 37.144C25.9006 36.888 26.6406 36.76 27.5526 36.76H27.9126C27.9126 35.976 27.8046 35.44 27.5886 35.152C27.3726 34.864 27.0606 34.72 26.6526 34.72C26.2926 34.72 26.0046 34.796 25.7886 34.948C25.5726 35.1 25.4206 35.364 25.3326 35.74H24.7926C24.7926 35.468 24.8086 35.256 24.8406 35.104C24.8726 34.944 24.9566 34.796 25.0926 34.66C25.2366 34.516 25.4726 34.412 25.8006 34.348C26.1366 34.276 26.5006 34.24 26.8926 34.24C27.5406 34.24 28.0526 34.416 28.4286 34.768C28.8046 35.112 28.9926 35.776 28.9926 36.76V40H28.3926L27.9726 39.46H27.9126C27.7686 39.644 27.5566 39.8 27.2766 39.928C26.9966 40.056 26.6486 40.12 26.2326 40.12ZM26.7726 39.58C27.0366 39.58 27.2566 39.516 27.4326 39.388C27.6086 39.26 27.7686 39.084 27.9126 38.86V37.24H27.5526C26.9606 37.24 26.4926 37.352 26.1486 37.576C25.8046 37.792 25.6326 38.08 25.6326 38.44C25.6326 38.808 25.7406 39.092 25.9566 39.292C26.1806 39.484 26.4526 39.58 26.7726 39.58ZM32.874 42.4C32.066 42.4 31.422 42.252 30.942 41.956C30.47 41.66 30.234 41.188 30.234 40.54C30.234 40.172 30.358 39.852 30.606 39.58C30.854 39.308 31.17 39.108 31.554 38.98C31.234 38.804 31.074 38.564 31.074 38.26C31.074 38.1 31.11 37.976 31.182 37.888C31.254 37.8 31.358 37.704 31.494 37.6C31.238 37.472 31.022 37.272 30.846 37C30.678 36.728 30.594 36.408 30.594 36.04C30.594 34.84 31.354 34.24 32.874 34.24H35.094V34.54L34.314 34.66V34.72C34.562 34.848 34.762 35.028 34.914 35.26C35.074 35.484 35.154 35.744 35.154 36.04C35.154 37.24 34.394 37.84 32.874 37.84C32.034 37.84 31.614 37.98 31.614 38.26C31.614 38.54 32.034 38.68 32.874 38.68C33.65 38.68 34.282 38.836 34.77 39.148C35.266 39.452 35.514 39.916 35.514 40.54C35.514 41.188 35.274 41.66 34.794 41.956C34.322 42.252 33.682 42.4 32.874 42.4ZM32.874 37.42C33.234 37.42 33.522 37.312 33.738 37.096C33.962 36.872 34.074 36.52 34.074 36.04C34.074 35.584 33.962 35.24 33.738 35.008C33.522 34.776 33.234 34.66 32.874 34.66C32.514 34.66 32.222 34.772 31.998 34.996C31.782 35.212 31.674 35.56 31.674 36.04C31.674 36.52 31.782 36.872 31.998 37.096C32.222 37.312 32.514 37.42 32.874 37.42ZM32.874 41.92C33.354 41.92 33.734 41.804 34.014 41.572C34.294 41.348 34.434 41.004 34.434 40.54C34.434 39.74 33.954 39.28 32.994 39.16L32.334 39.1C32.006 39.228 31.754 39.408 31.578 39.64C31.402 39.872 31.314 40.172 31.314 40.54C31.314 41.004 31.454 41.348 31.734 41.572C32.014 41.804 32.394 41.92 32.874 41.92ZM39.0082 40.12C38.4642 40.12 38.0042 39.992 37.6282 39.736C37.2522 39.472 36.9682 39.12 36.7762 38.68C36.5842 38.232 36.4882 37.732 36.4882 37.18C36.4882 36.636 36.5842 36.14 36.7762 35.692C36.9682 35.244 37.2442 34.892 37.6042 34.636C37.9722 34.372 38.4002 34.24 38.8882 34.24C39.6962 34.24 40.2962 34.468 40.6882 34.924C41.0882 35.372 41.2882 36.024 41.2882 36.88L41.2642 37.36H37.6282C37.6282 38.032 37.7722 38.58 38.0602 39.004C38.3482 39.428 38.7442 39.64 39.2482 39.64C39.6242 39.64 39.9402 39.56 40.1962 39.4C40.4602 39.24 40.7042 39 40.9282 38.68L41.1682 38.86C40.9042 39.3 40.5962 39.62 40.2442 39.82C39.8922 40.02 39.4802 40.12 39.0082 40.12ZM40.1482 36.88C40.1482 36.176 40.0442 35.64 39.8362 35.272C39.6282 34.904 39.3122 34.72 38.8882 34.72C38.6482 34.72 38.4322 34.816 38.2402 35.008C38.0482 35.192 37.8962 35.448 37.7842 35.776C37.6802 36.104 37.6282 36.472 37.6282 36.88H40.1482ZM48.4316 40.204C47.9916 40.204 47.5596 40.144 47.1356 40.024C46.7116 39.904 46.3636 39.732 46.0916 39.508C45.8276 39.284 45.6956 39.028 45.6956 38.74V37.456H45.9116C46.0476 38.256 46.3116 38.836 46.7036 39.196C47.0956 39.548 47.6356 39.724 48.3236 39.724C48.7556 39.724 49.1236 39.616 49.4276 39.4C49.7396 39.184 49.8956 38.884 49.8956 38.5C49.8956 38.164 49.7916 37.872 49.5836 37.624C49.3756 37.376 49.0396 37.116 48.5756 36.844L47.0996 35.968C46.5876 35.664 46.2236 35.356 46.0076 35.044C45.7996 34.732 45.6956 34.352 45.6956 33.904C45.6956 33.288 45.9076 32.796 46.3316 32.428C46.7636 32.052 47.3276 31.864 48.0236 31.864C48.4316 31.864 48.8356 31.924 49.2356 32.044C49.6356 32.156 49.9636 32.324 50.2196 32.548C50.4836 32.764 50.6156 33.016 50.6156 33.304V34.588H50.3996C50.2636 33.788 50.0036 33.216 49.6196 32.872C49.2436 32.52 48.7116 32.344 48.0236 32.344C47.6556 32.344 47.3316 32.456 47.0516 32.68C46.7716 32.904 46.6316 33.196 46.6316 33.556C46.6316 33.884 46.7316 34.156 46.9316 34.372C47.1396 34.588 47.4836 34.84 47.9636 35.128L49.4396 36.004C49.9836 36.332 50.3676 36.636 50.5916 36.916C50.8156 37.196 50.9276 37.552 50.9276 37.984C50.9276 38.656 50.7036 39.196 50.2556 39.604C49.8076 40.004 49.1996 40.204 48.4316 40.204ZM53.774 40.12C53.518 40.12 53.258 40.068 52.994 39.964C52.73 39.852 52.502 39.672 52.31 39.424C52.126 39.176 52.034 38.848 52.034 38.44C52.034 37.832 52.314 37.4 52.874 37.144C53.442 36.888 54.182 36.76 55.094 36.76H55.454C55.454 35.976 55.346 35.44 55.13 35.152C54.914 34.864 54.602 34.72 54.194 34.72C53.834 34.72 53.546 34.796 53.33 34.948C53.114 35.1 52.962 35.364 52.874 35.74H52.334C52.334 35.468 52.35 35.256 52.382 35.104C52.414 34.944 52.498 34.796 52.634 34.66C52.778 34.516 53.014 34.412 53.342 34.348C53.678 34.276 54.042 34.24 54.434 34.24C55.082 34.24 55.594 34.416 55.97 34.768C56.346 35.112 56.534 35.776 56.534 36.76V40H55.934L55.514 39.46H55.454C55.31 39.644 55.098 39.8 54.818 39.928C54.538 40.056 54.19 40.12 53.774 40.12ZM54.314 39.58C54.578 39.58 54.798 39.516 54.974 39.388C55.15 39.26 55.31 39.084 55.454 38.86V37.24H55.094C54.502 37.24 54.034 37.352 53.69 37.576C53.346 37.792 53.174 38.08 53.174 38.44C53.174 38.808 53.282 39.092 53.498 39.292C53.722 39.484 53.994 39.58 54.314 39.58ZM58.3754 33.52C58.3754 33.112 58.3194 32.812 58.2074 32.62C58.0954 32.42 57.8714 32.32 57.5354 32.32H57.2954V32.08H58.3754C58.6714 32.08 58.8914 32.12 59.0354 32.2C59.1874 32.272 59.2954 32.408 59.3594 32.608C59.4234 32.808 59.4554 33.112 59.4554 33.52V40H58.3754V33.52ZM62.6976 40.12C62.4416 40.12 62.1816 40.068 61.9176 39.964C61.6536 39.852 61.4256 39.672 61.2336 39.424C61.0496 39.176 60.9576 38.848 60.9576 38.44C60.9576 37.832 61.2376 37.4 61.7976 37.144C62.3656 36.888 63.1056 36.76 64.0176 36.76H64.3776C64.3776 35.976 64.2696 35.44 64.0536 35.152C63.8376 34.864 63.5256 34.72 63.1176 34.72C62.7576 34.72 62.4696 34.796 62.2536 34.948C62.0376 35.1 61.8856 35.364 61.7976 35.74H61.2576C61.2576 35.468 61.2736 35.256 61.3056 35.104C61.3376 34.944 61.4216 34.796 61.5576 34.66C61.7016 34.516 61.9376 34.412 62.2656 34.348C62.6016 34.276 62.9656 34.24 63.3576 34.24C64.0056 34.24 64.5176 34.416 64.8936 34.768C65.2696 35.112 65.4576 35.776 65.4576 36.76V40H64.8576L64.4376 39.46H64.3776C64.2336 39.644 64.0216 39.8 63.7416 39.928C63.4616 40.056 63.1136 40.12 62.6976 40.12ZM63.2376 39.58C63.5016 39.58 63.7216 39.516 63.8976 39.388C64.0736 39.26 64.2336 39.084 64.3776 38.86V37.24H64.0176C63.4256 37.24 62.9576 37.352 62.6136 37.576C62.2696 37.792 62.0976 38.08 62.0976 38.44C62.0976 38.808 62.2056 39.092 62.4216 39.292C62.6456 39.484 62.9176 39.58 63.2376 39.58ZM67.347 35.8C67.347 35.392 67.291 35.092 67.179 34.9C67.067 34.7 66.843 34.6 66.507 34.6H66.387V34.36H67.347C67.651 34.36 67.879 34.404 68.031 34.492C68.191 34.572 68.303 34.708 68.367 34.9H68.427C68.571 34.716 68.763 34.56 69.003 34.432C69.251 34.304 69.539 34.24 69.867 34.24C70.187 34.24 70.427 34.3 70.587 34.42C70.723 34.524 70.863 34.704 71.007 34.96L70.527 35.32C70.439 35.2 70.311 35.112 70.143 35.056C69.975 34.992 69.783 34.96 69.567 34.96C69.327 34.96 69.107 35.016 68.907 35.128C68.707 35.232 68.547 35.376 68.427 35.56V40H67.347V35.8ZM72.5365 42.04C72.9285 42.04 73.2485 41.948 73.4965 41.764C73.7525 41.588 73.9725 41.26 74.1565 40.78L74.3965 40.12L72.4765 35.44C72.2525 34.864 71.8125 34.544 71.1565 34.48V34.24H72.1765C72.8725 34.24 73.3525 34.56 73.6165 35.2L74.9845 38.524L76.4965 34.36H77.0965L74.7565 40.78C74.5245 41.412 74.2685 41.84 73.9885 42.064C73.7085 42.288 73.3445 42.4 72.8965 42.4H72.5365V42.04Z" fill="#4F4F4F"/>
</svg>
