<svg width="302" height="107" viewBox="0 0 302 107" fill="none" xmlns="http://www.w3.org/2000/svg">
<g clip-path="url(#clip0_8755_262)">
<path d="M56 4.5H83C83.3978 4.5 83.7794 4.65804 84.0607 4.93934C84.342 5.22064 84.5 5.60218 84.5 6V30C84.5 30.3978 84.342 30.7794 84.0607 31.0607C83.7794 31.342 83.3978 31.5 83 31.5H56C55.6022 31.5 55.2206 31.342 54.9393 31.0607C54.658 30.7794 54.5 30.3978 54.5 30V6C54.5 5.60218 54.658 5.22064 54.9393 4.93934C55.2206 4.65804 55.6022 4.5 56 4.5ZM57.5 7.5V28.5H81.5V7.5H57.5ZM69.5 22.5H78.5V25.5H69.5V22.5ZM64.5005 18L60.257 13.758L62.3795 11.6355L68.7425 18L62.3795 24.3645L60.257 22.242L64.5005 18Z" fill="black"/>
</g>
<path d="M96.592 24L99.79 5.8H102.26L99.062 24H96.592ZM112.048 12.222C111.441 12.222 110.783 12.4473 110.072 12.898C109.361 13.3487 108.703 14.0507 108.096 15.004C107.507 15.94 107.082 17.1447 106.822 18.618L105.886 24H103.546L105.912 10.48H108.174L107.602 13.6C108.139 12.56 108.859 11.728 109.76 11.104C110.679 10.48 111.641 10.168 112.646 10.168C113.825 10.168 114.769 10.532 115.48 11.26C116.191 11.9707 116.546 12.846 116.546 13.886C116.546 14.3193 116.494 14.8653 116.39 15.524L114.908 24H112.568L113.998 15.914C114.085 15.498 114.137 15.1947 114.154 15.004C114.171 14.796 114.18 14.6053 114.18 14.432C114.18 13.756 113.981 13.2187 113.582 12.82C113.201 12.4213 112.689 12.222 112.048 12.222ZM119.325 10.974H121.717L122.965 6.71H124.759L124.005 10.974H127.749L127.411 13.002H123.641L122.549 19.32C122.514 19.5107 122.488 19.6927 122.471 19.866C122.453 20.022 122.445 20.1693 122.445 20.308C122.445 20.9147 122.627 21.3913 122.991 21.738C123.355 22.0673 123.831 22.232 124.421 22.232C124.923 22.232 125.348 22.1627 125.695 22.024C126.041 21.868 126.353 21.712 126.631 21.556L126.917 23.584C126.587 23.7747 126.171 23.9393 125.669 24.078C125.183 24.234 124.637 24.312 124.031 24.312C123.389 24.312 122.765 24.182 122.159 23.922C121.569 23.662 121.084 23.2547 120.703 22.7C120.321 22.128 120.131 21.3913 120.131 20.49C120.131 20.1087 120.165 19.684 120.235 19.216L121.301 13.002H118.987L119.325 10.974ZM134.583 24.312C133.439 24.312 132.425 24.0693 131.541 23.584C130.674 23.0813 129.99 22.3707 129.487 21.452C129.002 20.516 128.759 19.4153 128.759 18.15C128.759 16.7113 129.054 15.3853 129.643 14.172C130.25 12.9587 131.099 11.988 132.191 11.26C133.3 10.532 134.592 10.168 136.065 10.168C137.07 10.168 137.92 10.3587 138.613 10.74C139.324 11.1213 139.87 11.6153 140.251 12.222C140.632 12.8287 140.823 13.4787 140.823 14.172C140.823 15.1253 140.598 15.914 140.147 16.538C139.696 17.162 139.116 17.6473 138.405 17.994C137.694 18.3233 136.923 18.5573 136.091 18.696C135.276 18.8347 134.496 18.904 133.751 18.904C133.283 18.904 132.815 18.8867 132.347 18.852C131.896 18.8 131.498 18.748 131.151 18.696C131.29 19.84 131.697 20.7153 132.373 21.322C133.049 21.9287 133.916 22.232 134.973 22.232C135.84 22.232 136.611 22.1193 137.287 21.894C137.963 21.6687 138.535 21.4433 139.003 21.218L139.211 23.298C138.691 23.5407 138.032 23.7747 137.235 24C136.438 24.208 135.554 24.312 134.583 24.312ZM135.883 12.144C135.068 12.144 134.332 12.352 133.673 12.768C133.014 13.1667 132.468 13.7213 132.035 14.432C131.619 15.1253 131.342 15.9227 131.203 16.824C131.602 16.8933 132 16.954 132.399 17.006C132.815 17.0407 133.266 17.058 133.751 17.058C135.207 17.058 136.36 16.8587 137.209 16.46C138.058 16.044 138.483 15.342 138.483 14.354C138.483 13.7473 138.24 13.2273 137.755 12.794C137.287 12.3607 136.663 12.144 135.883 12.144ZM144.322 14.276C144.339 14.1893 144.348 14.094 144.348 13.99C144.365 13.8687 144.374 13.7473 144.374 13.626C144.374 13.1407 144.235 12.8027 143.958 12.612C143.681 12.404 143.317 12.3 142.866 12.3L143.672 10.48C144.591 10.48 145.293 10.7053 145.778 11.156C146.281 11.5893 146.532 12.2393 146.532 13.106V13.626C147.035 12.3953 147.676 11.5113 148.456 10.974C149.253 10.4367 150.155 10.168 151.16 10.168C151.559 10.168 151.897 10.2027 152.174 10.272C152.469 10.324 152.711 10.3933 152.902 10.48L151.862 12.768C151.654 12.6813 151.437 12.6207 151.212 12.586C150.987 12.5513 150.727 12.534 150.432 12.534C149.808 12.534 149.184 12.7593 148.56 13.21C147.953 13.6433 147.399 14.3713 146.896 15.394C146.411 16.4167 146.012 17.8207 145.7 19.606L144.946 24H142.606L144.322 14.276ZM169.731 12.222C169.159 12.222 168.535 12.4387 167.859 12.872C167.183 13.3053 166.568 13.9813 166.013 14.9C165.458 15.8013 165.051 16.9713 164.791 18.41L163.803 24H161.463L162.945 15.914C163.032 15.498 163.084 15.1947 163.101 15.004C163.118 14.796 163.127 14.6053 163.127 14.432C163.127 13.756 162.928 13.2187 162.529 12.82C162.148 12.4213 161.645 12.222 161.021 12.222C160.414 12.222 159.773 12.4473 159.097 12.898C158.421 13.3487 157.806 14.0507 157.251 15.004C156.696 15.94 156.289 17.1447 156.029 18.618L155.093 24H152.753L155.119 10.48H157.381L156.809 13.6C157.329 12.56 158.031 11.728 158.915 11.104C159.816 10.48 160.744 10.168 161.697 10.168C162.772 10.168 163.638 10.4973 164.297 11.156C164.956 11.7973 165.328 12.612 165.415 13.6C166.004 12.5253 166.724 11.6847 167.573 11.078C168.44 10.4713 169.376 10.168 170.381 10.168C171.542 10.168 172.461 10.532 173.137 11.26C173.83 11.9707 174.177 12.846 174.177 13.886C174.177 14.3193 174.125 14.8653 174.021 15.524L172.513 24H170.173L171.655 15.914C171.742 15.498 171.794 15.1947 171.811 15.004C171.828 14.796 171.837 14.6053 171.837 14.432C171.837 13.756 171.638 13.2187 171.239 12.82C170.858 12.4213 170.355 12.222 169.731 12.222ZM182.317 24.312C181.173 24.312 180.159 24.0693 179.275 23.584C178.409 23.0813 177.724 22.3707 177.221 21.452C176.736 20.516 176.493 19.4153 176.493 18.15C176.493 16.7113 176.788 15.3853 177.377 14.172C177.984 12.9587 178.833 11.988 179.925 11.26C181.035 10.532 182.326 10.168 183.799 10.168C184.805 10.168 185.654 10.3587 186.347 10.74C187.058 11.1213 187.604 11.6153 187.985 12.222C188.367 12.8287 188.557 13.4787 188.557 14.172C188.557 15.1253 188.332 15.914 187.881 16.538C187.431 17.162 186.85 17.6473 186.139 17.994C185.429 18.3233 184.657 18.5573 183.825 18.696C183.011 18.8347 182.231 18.904 181.485 18.904C181.017 18.904 180.549 18.8867 180.081 18.852C179.631 18.8 179.232 18.748 178.885 18.696C179.024 19.84 179.431 20.7153 180.107 21.322C180.783 21.9287 181.65 22.232 182.707 22.232C183.574 22.232 184.345 22.1193 185.021 21.894C185.697 21.6687 186.269 21.4433 186.737 21.218L186.945 23.298C186.425 23.5407 185.767 23.7747 184.969 24C184.172 24.208 183.288 24.312 182.317 24.312ZM183.617 12.144C182.803 12.144 182.066 12.352 181.407 12.768C180.749 13.1667 180.203 13.7213 179.769 14.432C179.353 15.1253 179.076 15.9227 178.937 16.824C179.336 16.8933 179.735 16.954 180.133 17.006C180.549 17.0407 181 17.058 181.485 17.058C182.941 17.058 184.094 16.8587 184.943 16.46C185.793 16.044 186.217 15.342 186.217 14.354C186.217 13.7473 185.975 13.2273 185.489 12.794C185.021 12.3607 184.397 12.144 183.617 12.144ZM202.482 24.13C201.546 24.13 200.827 23.9047 200.324 23.454C199.839 22.986 199.596 22.258 199.596 21.27C199.094 22.102 198.461 22.8213 197.698 23.428C196.936 24.0173 196.052 24.312 195.046 24.312C194.18 24.312 193.365 24.0867 192.602 23.636C191.84 23.168 191.224 22.518 190.756 21.686C190.306 20.8367 190.08 19.8313 190.08 18.67C190.08 17.3353 190.28 16.148 190.678 15.108C191.077 14.0507 191.606 13.158 192.264 12.43C192.94 11.702 193.677 11.1473 194.474 10.766C195.289 10.3673 196.112 10.168 196.944 10.168C197.863 10.168 198.652 10.3933 199.31 10.844C199.986 11.2947 200.506 11.8493 200.87 12.508L202.248 4.76H204.588L201.832 20.334C201.815 20.4207 201.798 20.5247 201.78 20.646C201.78 20.75 201.78 20.8627 201.78 20.984C201.78 21.4693 201.919 21.816 202.196 22.024C202.474 22.2147 202.838 22.31 203.288 22.31L202.482 24.13ZM195.67 22.232C196.329 22.232 196.953 22.024 197.542 21.608C198.149 21.192 198.669 20.6113 199.102 19.866C199.553 19.1033 199.865 18.2107 200.038 17.188L200.506 14.51C200.16 13.782 199.692 13.2187 199.102 12.82C198.513 12.404 197.863 12.196 197.152 12.196C196.355 12.196 195.592 12.4473 194.864 12.95C194.154 13.4353 193.573 14.1373 193.122 15.056C192.689 15.9573 192.472 17.0493 192.472 18.332C192.472 19.1813 192.62 19.9007 192.914 20.49C193.226 21.062 193.625 21.4953 194.11 21.79C194.613 22.0847 195.133 22.232 195.67 22.232ZM209.825 8.166C209.34 8.166 208.967 8.02733 208.707 7.75C208.465 7.45533 208.343 7.11733 208.343 6.736C208.343 6.18133 208.517 5.73933 208.863 5.41C209.21 5.06333 209.643 4.89 210.163 4.89C210.649 4.89 211.013 5.03733 211.255 5.332C211.515 5.60933 211.645 5.93867 211.645 6.32C211.645 6.85733 211.472 7.29933 211.125 7.646C210.779 7.99267 210.345 8.166 209.825 8.166ZM208.083 24H205.743L208.109 10.48H210.449L208.083 24ZM212.396 18.67C212.396 16.9887 212.76 15.5153 213.488 14.25C214.233 12.9673 215.256 11.9707 216.556 11.26C217.856 10.532 219.338 10.168 221.002 10.168C222.024 10.168 222.917 10.272 223.68 10.48C224.46 10.688 225.101 10.896 225.604 11.104L223.966 20.334C223.948 20.4207 223.931 20.5247 223.914 20.646C223.914 20.75 223.914 20.8627 223.914 20.984C223.914 21.4693 224.052 21.816 224.33 22.024C224.607 22.2147 224.971 22.31 225.422 22.31L224.616 24.13C223.68 24.13 222.96 23.9047 222.458 23.454C221.972 22.986 221.73 22.2667 221.73 21.296C221.244 22.128 220.629 22.8387 219.884 23.428C219.156 24.0173 218.298 24.312 217.31 24.312C216.46 24.312 215.663 24.0867 214.918 23.636C214.172 23.168 213.566 22.518 213.098 21.686C212.63 20.8367 212.396 19.8313 212.396 18.67ZM223.03 12.482C222.7 12.378 222.354 12.3 221.99 12.248C221.643 12.1787 221.218 12.144 220.716 12.144C219.52 12.144 218.48 12.4127 217.596 12.95C216.712 13.4873 216.018 14.2327 215.516 15.186C215.03 16.122 214.788 17.188 214.788 18.384C214.788 19.216 214.935 19.918 215.23 20.49C215.542 21.062 215.94 21.4953 216.426 21.79C216.911 22.0847 217.414 22.232 217.934 22.232C218.644 22.232 219.294 21.9893 219.884 21.504C220.473 21.0187 220.976 20.3427 221.392 19.476C221.825 18.6093 222.137 17.6213 222.328 16.512L223.03 12.482ZM228.25 10.974H230.642L231.89 6.71H233.684L232.93 10.974H236.674L236.336 13.002H232.566L231.474 19.32C231.44 19.5107 231.414 19.6927 231.396 19.866C231.379 20.022 231.37 20.1693 231.37 20.308C231.37 20.9147 231.552 21.3913 231.916 21.738C232.28 22.0673 232.757 22.232 233.346 22.232C233.849 22.232 234.274 22.1627 234.62 22.024C234.967 21.868 235.279 21.712 235.556 21.556L235.842 23.584C235.513 23.7747 235.097 23.9393 234.594 24.078C234.109 24.234 233.563 24.312 232.956 24.312C232.315 24.312 231.691 24.182 231.084 23.922C230.495 23.662 230.01 23.2547 229.628 22.7C229.247 22.128 229.056 21.3913 229.056 20.49C229.056 20.1087 229.091 19.684 229.16 19.216L230.226 13.002H227.912L228.25 10.974ZM243.509 24.312C242.365 24.312 241.351 24.0693 240.467 23.584C239.6 23.0813 238.915 22.3707 238.413 21.452C237.927 20.516 237.685 19.4153 237.685 18.15C237.685 16.7113 237.979 15.3853 238.569 14.172C239.175 12.9587 240.025 11.988 241.117 11.26C242.226 10.532 243.517 10.168 244.991 10.168C245.996 10.168 246.845 10.3587 247.539 10.74C248.249 11.1213 248.795 11.6153 249.177 12.222C249.558 12.8287 249.749 13.4787 249.749 14.172C249.749 15.1253 249.523 15.914 249.073 16.538C248.622 17.162 248.041 17.6473 247.331 17.994C246.62 18.3233 245.849 18.5573 245.017 18.696C244.202 18.8347 243.422 18.904 242.677 18.904C242.209 18.904 241.741 18.8867 241.273 18.852C240.822 18.8 240.423 18.748 240.077 18.696C240.215 19.84 240.623 20.7153 241.299 21.322C241.975 21.9287 242.841 22.232 243.899 22.232C244.765 22.232 245.537 22.1193 246.213 21.894C246.889 21.6687 247.461 21.4433 247.929 21.218L248.137 23.298C247.617 23.5407 246.958 23.7747 246.161 24C245.363 24.208 244.479 24.312 243.509 24.312ZM244.809 12.144C243.994 12.144 243.257 12.352 242.599 12.768C241.94 13.1667 241.394 13.7213 240.961 14.432C240.545 15.1253 240.267 15.9227 240.129 16.824C240.527 16.8933 240.926 16.954 241.325 17.006C241.741 17.0407 242.191 17.058 242.677 17.058C244.133 17.058 245.285 16.8587 246.135 16.46C246.984 16.044 247.409 15.342 247.409 14.354C247.409 13.7473 247.166 13.2273 246.681 12.794C246.213 12.3607 245.589 12.144 244.809 12.144Z" fill="#2B2F34"/>
<rect x="7.5" y="48" width="151" height="26" rx="7" fill="#FFEED8"/>
<path d="M23.984 58.44C23.984 57.964 23.9187 57.614 23.788 57.39C23.6573 57.1567 23.396 57.04 23.004 57.04H22.724V56.76H26.364C27.26 56.76 28.0673 56.9513 28.786 57.334C29.5047 57.7167 29.864 58.4587 29.864 59.56C29.864 60.288 29.6773 60.848 29.304 61.24C28.9307 61.632 28.5107 61.8933 28.044 62.024C27.5867 62.1547 27.1667 62.22 26.784 62.22H25.244V66H23.984V58.44ZM26.294 61.73C26.5927 61.73 26.91 61.6553 27.246 61.506C27.582 61.3473 27.8667 61.1 28.1 60.764C28.3427 60.428 28.464 60.0033 28.464 59.49C28.464 58.9767 28.3427 58.552 28.1 58.216C27.8667 57.88 27.582 57.6373 27.246 57.488C26.91 57.3293 26.5927 57.25 26.294 57.25C25.9673 57.25 25.6173 57.2967 25.244 57.39V61.59C25.6173 61.6833 25.9673 61.73 26.294 61.73ZM32.7323 66.14C32.4336 66.14 32.1303 66.0793 31.8223 65.958C31.5143 65.8273 31.2483 65.6173 31.0243 65.328C30.8096 65.0387 30.7023 64.656 30.7023 64.18C30.7023 63.4707 31.0289 62.9667 31.6823 62.668C32.3449 62.3693 33.2083 62.22 34.2722 62.22H34.6923C34.6923 61.3053 34.5663 60.68 34.3143 60.344C34.0623 60.008 33.6983 59.84 33.2223 59.84C32.8023 59.84 32.4663 59.9287 32.2142 60.106C31.9623 60.2833 31.7849 60.5913 31.6823 61.03H31.0523C31.0523 60.7127 31.0709 60.4653 31.1083 60.288C31.1456 60.1013 31.2436 59.9287 31.4023 59.77C31.5703 59.602 31.8456 59.4807 32.2283 59.406C32.6203 59.322 33.0449 59.28 33.5023 59.28C34.2583 59.28 34.8556 59.4853 35.2943 59.896C35.7329 60.2973 35.9523 61.072 35.9523 62.22V66H35.2523L34.7623 65.37H34.6923C34.5243 65.5847 34.2769 65.7667 33.9503 65.916C33.6236 66.0653 33.2176 66.14 32.7323 66.14ZM33.3623 65.51C33.6703 65.51 33.9269 65.4353 34.1323 65.286C34.3376 65.1367 34.5243 64.9313 34.6923 64.67V62.78H34.2722C33.5816 62.78 33.0356 62.9107 32.6343 63.172C32.2329 63.424 32.0323 63.76 32.0323 64.18C32.0323 64.6093 32.1583 64.9407 32.4103 65.174C32.6716 65.398 32.9889 65.51 33.3623 65.51ZM38.2298 68.38C38.6871 68.38 39.0604 68.2727 39.3498 68.058C39.6484 67.8527 39.9051 67.47 40.1198 66.91L40.3998 66.14L38.1598 60.68C37.8984 60.008 37.3851 59.6347 36.6198 59.56V59.28H37.8098C38.6218 59.28 39.1818 59.6533 39.4898 60.4L41.0858 64.278L42.8498 59.42H43.5498L40.8198 66.91C40.5491 67.6473 40.2504 68.1467 39.9238 68.408C39.5971 68.6693 39.1724 68.8 38.6498 68.8H38.2298V68.38ZM56.1592 66.07C55.7112 66.07 55.2678 65.9487 54.8292 65.706C54.3905 65.454 54.0405 64.9687 53.7792 64.25L53.4292 63.34H49.5092L48.3892 66H47.7592L51.6792 56.76H52.0992L55.1792 64.25C55.4125 64.7913 55.6318 65.1647 55.8372 65.37C56.0425 65.566 56.3365 65.6827 56.7192 65.72V66C56.5512 66.0467 56.3645 66.07 56.1592 66.07ZM53.1492 62.78L51.4692 58.72L49.7192 62.78H53.1492ZM56.6319 59.98V59.42H57.6119V59C57.6119 57.4133 58.4286 56.62 60.0619 56.62C60.6499 56.62 61.0466 56.69 61.2519 56.83C61.4106 56.9513 61.5739 57.1613 61.7419 57.46L61.3219 57.81C61.0419 57.39 60.5986 57.18 59.9919 57.18C59.2452 57.18 58.8719 57.7867 58.8719 59V59.42H60.8319V59.98H58.8719V66H57.6119V59.98H56.6319ZM64.0087 66.14C63.486 66.14 63.0754 65.9907 62.7767 65.692C62.478 65.3933 62.3287 64.936 62.3287 64.32V59.98H61.3487V59.42H62.3287V58.16L63.0287 57.32H63.5887V59.42H65.2687V59.98H63.5887V64.32C63.5887 65.16 63.9154 65.58 64.5687 65.58C64.7927 65.58 64.9794 65.5567 65.1287 65.51C65.2874 65.4633 65.4507 65.3933 65.6187 65.3L65.7587 65.58C65.544 65.7387 65.306 65.874 65.0447 65.986C64.7834 66.0887 64.438 66.14 64.0087 66.14ZM69.3552 66.14C68.7205 66.14 68.1838 65.9907 67.7452 65.692C67.3065 65.384 66.9752 64.9733 66.7512 64.46C66.5272 63.9373 66.4152 63.354 66.4152 62.71C66.4152 62.0753 66.5272 61.4967 66.7512 60.974C66.9752 60.4513 67.2972 60.0407 67.7172 59.742C68.1465 59.434 68.6458 59.28 69.2152 59.28C70.1578 59.28 70.8578 59.546 71.3152 60.078C71.7818 60.6007 72.0152 61.3613 72.0152 62.36L71.9872 62.92H67.7452C67.7452 63.704 67.9132 64.3433 68.2492 64.838C68.5852 65.3327 69.0472 65.58 69.6352 65.58C70.0738 65.58 70.4425 65.4867 70.7412 65.3C71.0492 65.1133 71.3338 64.8333 71.5952 64.46L71.8752 64.67C71.5672 65.1833 71.2078 65.5567 70.7972 65.79C70.3865 66.0233 69.9058 66.14 69.3552 66.14ZM70.6852 62.36C70.6852 61.5387 70.5638 60.9133 70.3212 60.484C70.0785 60.0547 69.7098 59.84 69.2152 59.84C68.9352 59.84 68.6832 59.952 68.4592 60.176C68.2352 60.3907 68.0578 60.6893 67.9272 61.072C67.8058 61.4547 67.7452 61.884 67.7452 62.36H70.6852ZM73.7411 61.1C73.7411 60.624 73.6758 60.274 73.5451 60.05C73.4144 59.8167 73.1531 59.7 72.7611 59.7H72.6211V59.42H73.7411C74.0958 59.42 74.3618 59.4713 74.5391 59.574C74.7258 59.6673 74.8564 59.826 74.9311 60.05H75.0011C75.1691 59.8353 75.3931 59.6533 75.6731 59.504C75.9624 59.3547 76.2984 59.28 76.6811 59.28C77.0544 59.28 77.3344 59.35 77.5211 59.49C77.6798 59.6113 77.8431 59.8213 78.0111 60.12L77.4511 60.54C77.3484 60.4 77.1991 60.2973 77.0031 60.232C76.8071 60.1573 76.5831 60.12 76.3311 60.12C76.0511 60.12 75.7944 60.1853 75.5611 60.316C75.3278 60.4373 75.1411 60.6053 75.0011 60.82V66H73.7411V61.1ZM83.1695 58.44C83.1695 57.964 83.1042 57.614 82.9735 57.39C82.8429 57.1567 82.5815 57.04 82.1895 57.04H81.9095V56.76H85.5495C86.4455 56.76 87.2529 56.9513 87.9715 57.334C88.6902 57.7167 89.0495 58.4587 89.0495 59.56C89.0495 60.288 88.8629 60.848 88.4895 61.24C88.1162 61.632 87.6962 61.8933 87.2295 62.024C86.7722 62.1547 86.3522 62.22 85.9695 62.22H84.4295V66H83.1695V58.44ZM85.4795 61.73C85.7782 61.73 86.0955 61.6553 86.4315 61.506C86.7675 61.3473 87.0522 61.1 87.2855 60.764C87.5282 60.428 87.6495 60.0033 87.6495 59.49C87.6495 58.9767 87.5282 58.552 87.2855 58.216C87.0522 57.88 86.7675 57.6373 86.4315 57.488C86.0955 57.3293 85.7782 57.25 85.4795 57.25C85.1529 57.25 84.8029 57.2967 84.4295 57.39V61.59C84.8029 61.6833 85.1529 61.73 85.4795 61.73ZM90.4742 58.44C90.4742 57.964 90.4088 57.614 90.2782 57.39C90.1475 57.1567 89.8862 57.04 89.4942 57.04H89.2142V56.76H90.4742C90.8195 56.76 91.0762 56.8067 91.2442 56.9C91.4215 56.984 91.5475 57.1427 91.6222 57.376C91.6968 57.6093 91.7342 57.964 91.7342 58.44V66H90.4742V58.44ZM95.3768 66.14C95.0781 66.14 94.7748 66.0793 94.4668 65.958C94.1588 65.8273 93.8928 65.6173 93.6688 65.328C93.4541 65.0387 93.3468 64.656 93.3468 64.18C93.3468 63.4707 93.6734 62.9667 94.3268 62.668C94.9894 62.3693 95.8528 62.22 96.9168 62.22H97.3368C97.3368 61.3053 97.2108 60.68 96.9588 60.344C96.7068 60.008 96.3428 59.84 95.8668 59.84C95.4468 59.84 95.1108 59.9287 94.8588 60.106C94.6068 60.2833 94.4294 60.5913 94.3268 61.03H93.6968C93.6968 60.7127 93.7154 60.4653 93.7528 60.288C93.7901 60.1013 93.8881 59.9287 94.0468 59.77C94.2148 59.602 94.4901 59.4807 94.8728 59.406C95.2648 59.322 95.6894 59.28 96.1468 59.28C96.9028 59.28 97.5001 59.4853 97.9388 59.896C98.3774 60.2973 98.5968 61.072 98.5968 62.22V66H97.8968L97.4068 65.37H97.3368C97.1688 65.5847 96.9214 65.7667 96.5948 65.916C96.2681 66.0653 95.8621 66.14 95.3768 66.14ZM96.0068 65.51C96.3148 65.51 96.5714 65.4353 96.7768 65.286C96.9821 65.1367 97.1688 64.9313 97.3368 64.67V62.78H96.9168C96.2261 62.78 95.6801 62.9107 95.2788 63.172C94.8774 63.424 94.6768 63.76 94.6768 64.18C94.6768 64.6093 94.8028 64.9407 95.0548 65.174C95.3161 65.398 95.6334 65.51 96.0068 65.51ZM103.251 66.14C102.579 66.14 102.01 65.9907 101.543 65.692C101.086 65.384 100.74 64.9733 100.507 64.46C100.283 63.9373 100.171 63.354 100.171 62.71C100.171 62.066 100.283 61.4873 100.507 60.974C100.74 60.4513 101.086 60.0407 101.543 59.742C102.01 59.434 102.579 59.28 103.251 59.28C104.278 59.28 104.954 59.4433 105.281 59.77C105.44 59.9287 105.538 60.1247 105.575 60.358C105.612 60.582 105.631 60.9927 105.631 61.59H105.351C105.314 61.0113 105.132 60.5773 104.805 60.288C104.478 59.9893 104.054 59.84 103.531 59.84C102.859 59.84 102.35 60.106 102.005 60.638C101.669 61.17 101.501 61.8607 101.501 62.71C101.501 63.5593 101.669 64.25 102.005 64.782C102.35 65.314 102.859 65.58 103.531 65.58C104.007 65.58 104.399 65.4913 104.707 65.314C105.015 65.1273 105.3 64.8427 105.561 64.46L105.841 64.67C105.533 65.1927 105.169 65.5707 104.749 65.804C104.329 66.028 103.83 66.14 103.251 66.14ZM109.879 66.14C109.244 66.14 108.707 65.9907 108.269 65.692C107.83 65.384 107.499 64.9733 107.275 64.46C107.051 63.9373 106.939 63.354 106.939 62.71C106.939 62.0753 107.051 61.4967 107.275 60.974C107.499 60.4513 107.821 60.0407 108.241 59.742C108.67 59.434 109.169 59.28 109.739 59.28C110.681 59.28 111.381 59.546 111.839 60.078C112.305 60.6007 112.539 61.3613 112.539 62.36L112.511 62.92H108.269C108.269 63.704 108.437 64.3433 108.773 64.838C109.109 65.3327 109.571 65.58 110.159 65.58C110.597 65.58 110.966 65.4867 111.265 65.3C111.573 65.1133 111.857 64.8333 112.119 64.46L112.399 64.67C112.091 65.1833 111.731 65.5567 111.321 65.79C110.91 66.0233 110.429 66.14 109.879 66.14ZM111.209 62.36C111.209 61.5387 111.087 60.9133 110.845 60.484C110.602 60.0547 110.233 59.84 109.739 59.84C109.459 59.84 109.207 59.952 108.983 60.176C108.759 60.3907 108.581 60.6893 108.451 61.072C108.329 61.4547 108.269 61.884 108.269 62.36H111.209ZM114.363 61.1C114.363 60.624 114.297 60.274 114.167 60.05C114.036 59.8167 113.775 59.7 113.383 59.7H113.103V59.42H114.363C114.708 59.42 114.969 59.4667 115.147 59.56C115.333 59.6533 115.469 59.7933 115.553 59.98H115.623C115.819 59.784 116.071 59.6207 116.379 59.49C116.696 59.35 117.051 59.28 117.443 59.28C117.835 59.28 118.171 59.3547 118.451 59.504C118.731 59.644 118.955 59.896 119.123 60.26C119.365 59.952 119.673 59.714 120.047 59.546C120.429 59.3687 120.821 59.28 121.223 59.28C121.82 59.28 122.296 59.4667 122.651 59.84C123.005 60.2133 123.183 60.8667 123.183 61.8V66H121.923V61.8C121.923 61.128 121.829 60.6473 121.643 60.358C121.456 60.0593 121.176 59.91 120.803 59.91C120.541 59.91 120.266 60.008 119.977 60.204C119.687 60.3907 119.473 60.596 119.333 60.82C119.379 60.96 119.403 61.2867 119.403 61.8V66H118.143V61.8C118.143 61.128 118.049 60.6473 117.863 60.358C117.676 60.0593 117.396 59.91 117.023 59.91C116.528 59.91 116.061 60.1573 115.623 60.652V66H114.363V61.1ZM127.707 66.14C127.072 66.14 126.535 65.9907 126.097 65.692C125.658 65.384 125.327 64.9733 125.103 64.46C124.879 63.9373 124.767 63.354 124.767 62.71C124.767 62.0753 124.879 61.4967 125.103 60.974C125.327 60.4513 125.649 60.0407 126.069 59.742C126.498 59.434 126.997 59.28 127.567 59.28C128.509 59.28 129.209 59.546 129.667 60.078C130.133 60.6007 130.367 61.3613 130.367 62.36L130.339 62.92H126.097C126.097 63.704 126.265 64.3433 126.601 64.838C126.937 65.3327 127.399 65.58 127.987 65.58C128.425 65.58 128.794 65.4867 129.093 65.3C129.401 65.1133 129.685 64.8333 129.947 64.46L130.227 64.67C129.919 65.1833 129.559 65.5567 129.149 65.79C128.738 66.0233 128.257 66.14 127.707 66.14ZM129.037 62.36C129.037 61.5387 128.915 60.9133 128.673 60.484C128.43 60.0547 128.061 59.84 127.567 59.84C127.287 59.84 127.035 59.952 126.811 60.176C126.587 60.3907 126.409 60.6893 126.279 61.072C126.157 61.4547 126.097 61.884 126.097 62.36H129.037ZM132.191 61.1C132.191 60.624 132.125 60.274 131.995 60.05C131.864 59.8167 131.603 59.7 131.211 59.7H130.931V59.42H132.191C132.536 59.42 132.797 59.4667 132.975 59.56C133.161 59.6533 133.297 59.7933 133.381 59.98H133.451C133.647 59.784 133.899 59.6207 134.207 59.49C134.524 59.35 134.879 59.28 135.271 59.28C135.971 59.28 136.54 59.4667 136.979 59.84C137.427 60.2133 137.651 60.8667 137.651 61.8V66H136.391V61.8C136.391 61.1467 136.241 60.6707 135.943 60.372C135.653 60.064 135.289 59.91 134.851 59.91C134.356 59.91 133.889 60.1573 133.451 60.652V66H132.191V61.1ZM141.542 66.14C141.019 66.14 140.609 65.9907 140.31 65.692C140.011 65.3933 139.862 64.936 139.862 64.32V59.98H138.882V59.42H139.862V58.16L140.562 57.32H141.122V59.42H142.802V59.98H141.122V64.32C141.122 65.16 141.449 65.58 142.102 65.58C142.326 65.58 142.513 65.5567 142.662 65.51C142.821 65.4633 142.984 65.3933 143.152 65.3L143.292 65.58C143.077 65.7387 142.839 65.874 142.578 65.986C142.317 66.0887 141.971 66.14 141.542 66.14Z" fill="#965400"/>
<rect x="170.5" y="48" width="124" height="26" rx="7" fill="#FFEED8"/>
<path d="M186.984 58.44C186.984 57.964 186.919 57.614 186.788 57.39C186.657 57.1567 186.396 57.04 186.004 57.04H185.724V56.76H186.984C187.329 56.76 187.586 56.8067 187.754 56.9C187.931 56.984 188.057 57.1427 188.132 57.376C188.207 57.6093 188.244 57.964 188.244 58.44V65.44H193.214V66H186.984V58.44ZM195.057 58.58C194.842 58.58 194.655 58.4913 194.497 58.314C194.347 58.1367 194.273 57.9267 194.273 57.684C194.273 57.488 194.329 57.334 194.441 57.222C194.562 57.11 194.721 57.054 194.917 57.054C195.131 57.054 195.313 57.1427 195.463 57.32C195.621 57.4973 195.701 57.7073 195.701 57.95C195.701 58.146 195.64 58.3 195.519 58.412C195.407 58.524 195.253 58.58 195.057 58.58ZM194.525 61.1C194.525 60.624 194.459 60.274 194.329 60.05C194.198 59.8167 193.937 59.7 193.545 59.7H193.265V59.42H194.525C194.87 59.42 195.127 59.4667 195.295 59.56C195.472 59.644 195.598 59.8027 195.673 60.036C195.747 60.2693 195.785 60.624 195.785 61.1V66H194.525V61.1ZM197.046 59.98V59.42H198.026V59C198.026 57.4133 198.843 56.62 200.476 56.62C201.064 56.62 201.461 56.69 201.666 56.83C201.825 56.9513 201.988 57.1613 202.156 57.46L201.736 57.81C201.456 57.39 201.013 57.18 200.406 57.18C199.659 57.18 199.286 57.7867 199.286 59V59.42H201.246V59.98H199.286V66H198.026V59.98H197.046ZM204.875 66.14C204.24 66.14 203.703 65.9907 203.265 65.692C202.826 65.384 202.495 64.9733 202.271 64.46C202.047 63.9373 201.935 63.354 201.935 62.71C201.935 62.0753 202.047 61.4967 202.271 60.974C202.495 60.4513 202.817 60.0407 203.237 59.742C203.666 59.434 204.165 59.28 204.735 59.28C205.677 59.28 206.377 59.546 206.835 60.078C207.301 60.6007 207.535 61.3613 207.535 62.36L207.507 62.92H203.265C203.265 63.704 203.433 64.3433 203.769 64.838C204.105 65.3327 204.567 65.58 205.155 65.58C205.593 65.58 205.962 65.4867 206.261 65.3C206.569 65.1133 206.853 64.8333 207.115 64.46L207.395 64.67C207.087 65.1833 206.727 65.5567 206.317 65.79C205.906 66.0233 205.425 66.14 204.875 66.14ZM206.205 62.36C206.205 61.5387 206.083 60.9133 205.841 60.484C205.598 60.0547 205.229 59.84 204.735 59.84C204.455 59.84 204.203 59.952 203.979 60.176C203.755 60.3907 203.577 60.6893 203.447 61.072C203.325 61.4547 203.265 61.884 203.265 62.36H206.205ZM211.095 66.14C210.572 66.14 210.161 65.9907 209.863 65.692C209.564 65.3933 209.415 64.936 209.415 64.32V59.98H208.435V59.42H209.415V58.16L210.115 57.32H210.675V59.42H212.355V59.98H210.675V64.32C210.675 65.16 211.001 65.58 211.655 65.58C211.879 65.58 212.065 65.5567 212.215 65.51C212.373 65.4633 212.537 65.3933 212.705 65.3L212.845 65.58C212.63 65.7387 212.392 65.874 212.131 65.986C211.869 66.0887 211.524 66.14 211.095 66.14ZM214.621 58.58C214.406 58.58 214.22 58.4913 214.061 58.314C213.912 58.1367 213.837 57.9267 213.837 57.684C213.837 57.488 213.893 57.334 214.005 57.222C214.126 57.11 214.285 57.054 214.481 57.054C214.696 57.054 214.878 57.1427 215.027 57.32C215.186 57.4973 215.265 57.7073 215.265 57.95C215.265 58.146 215.204 58.3 215.083 58.412C214.971 58.524 214.817 58.58 214.621 58.58ZM214.089 61.1C214.089 60.624 214.024 60.274 213.893 60.05C213.762 59.8167 213.501 59.7 213.109 59.7H212.829V59.42H214.089C214.434 59.42 214.691 59.4667 214.859 59.56C215.036 59.644 215.162 59.8027 215.237 60.036C215.312 60.2693 215.349 60.624 215.349 61.1V66H214.089V61.1ZM217.534 61.1C217.534 60.624 217.469 60.274 217.338 60.05C217.208 59.8167 216.946 59.7 216.554 59.7H216.274V59.42H217.534C217.88 59.42 218.141 59.4667 218.318 59.56C218.505 59.6533 218.64 59.7933 218.724 59.98H218.794C218.99 59.784 219.242 59.6207 219.55 59.49C219.868 59.35 220.222 59.28 220.614 59.28C221.006 59.28 221.342 59.3547 221.622 59.504C221.902 59.644 222.126 59.896 222.294 60.26C222.537 59.952 222.845 59.714 223.218 59.546C223.601 59.3687 223.993 59.28 224.394 59.28C224.992 59.28 225.468 59.4667 225.822 59.84C226.177 60.2133 226.354 60.8667 226.354 61.8V66H225.094V61.8C225.094 61.128 225.001 60.6473 224.814 60.358C224.628 60.0593 224.348 59.91 223.974 59.91C223.713 59.91 223.438 60.008 223.148 60.204C222.859 60.3907 222.644 60.596 222.504 60.82C222.551 60.96 222.574 61.2867 222.574 61.8V66H221.314V61.8C221.314 61.128 221.221 60.6473 221.034 60.358C220.848 60.0593 220.568 59.91 220.194 59.91C219.7 59.91 219.233 60.1573 218.794 60.652V66H217.534V61.1ZM230.879 66.14C230.244 66.14 229.707 65.9907 229.269 65.692C228.83 65.384 228.499 64.9733 228.275 64.46C228.051 63.9373 227.939 63.354 227.939 62.71C227.939 62.0753 228.051 61.4967 228.275 60.974C228.499 60.4513 228.821 60.0407 229.241 59.742C229.67 59.434 230.169 59.28 230.739 59.28C231.681 59.28 232.381 59.546 232.839 60.078C233.305 60.6007 233.539 61.3613 233.539 62.36L233.511 62.92H229.269C229.269 63.704 229.437 64.3433 229.773 64.838C230.109 65.3327 230.571 65.58 231.159 65.58C231.597 65.58 231.966 65.4867 232.265 65.3C232.573 65.1133 232.857 64.8333 233.119 64.46L233.399 64.67C233.091 65.1833 232.731 65.5567 232.321 65.79C231.91 66.0233 231.429 66.14 230.879 66.14ZM232.209 62.36C232.209 61.5387 232.087 60.9133 231.845 60.484C231.602 60.0547 231.233 59.84 230.739 59.84C230.459 59.84 230.207 59.952 229.983 60.176C229.759 60.3907 229.581 60.6893 229.451 61.072C229.329 61.4547 229.269 61.884 229.269 62.36H232.209ZM246.353 66.07C245.905 66.07 245.461 65.9487 245.023 65.706C244.584 65.454 244.234 64.9687 243.973 64.25L243.623 63.34H239.703L238.583 66H237.953L241.873 56.76H242.293L245.373 64.25C245.606 64.7913 245.825 65.1647 246.031 65.37C246.236 65.566 246.53 65.6827 246.913 65.72V66C246.745 66.0467 246.558 66.07 246.353 66.07ZM243.343 62.78L241.663 58.72L239.913 62.78H243.343ZM250.241 66.14C249.569 66.14 249 65.9907 248.533 65.692C248.076 65.384 247.731 64.9733 247.497 64.46C247.273 63.9373 247.161 63.354 247.161 62.71C247.161 62.066 247.273 61.4873 247.497 60.974C247.731 60.4513 248.076 60.0407 248.533 59.742C249 59.434 249.569 59.28 250.241 59.28C251.268 59.28 251.945 59.4433 252.271 59.77C252.43 59.9287 252.528 60.1247 252.565 60.358C252.603 60.582 252.621 60.9927 252.621 61.59H252.341C252.304 61.0113 252.122 60.5773 251.795 60.288C251.469 59.9893 251.044 59.84 250.521 59.84C249.849 59.84 249.341 60.106 248.995 60.638C248.659 61.17 248.491 61.8607 248.491 62.71C248.491 63.5593 248.659 64.25 248.995 64.782C249.341 65.314 249.849 65.58 250.521 65.58C250.997 65.58 251.389 65.4913 251.697 65.314C252.005 65.1273 252.29 64.8427 252.551 64.46L252.831 64.67C252.523 65.1927 252.159 65.5707 251.739 65.804C251.319 66.028 250.82 66.14 250.241 66.14ZM257.009 66.14C256.337 66.14 255.767 65.9907 255.301 65.692C254.843 65.384 254.498 64.9733 254.265 64.46C254.041 63.9373 253.929 63.354 253.929 62.71C253.929 62.066 254.041 61.4873 254.265 60.974C254.498 60.4513 254.843 60.0407 255.301 59.742C255.767 59.434 256.337 59.28 257.009 59.28C258.035 59.28 258.712 59.4433 259.039 59.77C259.197 59.9287 259.295 60.1247 259.333 60.358C259.37 60.582 259.389 60.9927 259.389 61.59H259.109C259.071 61.0113 258.889 60.5773 258.563 60.288C258.236 59.9893 257.811 59.84 257.289 59.84C256.617 59.84 256.108 60.106 255.763 60.638C255.427 61.17 255.259 61.8607 255.259 62.71C255.259 63.5593 255.427 64.25 255.763 64.782C256.108 65.314 256.617 65.58 257.289 65.58C257.765 65.58 258.157 65.4913 258.465 65.314C258.773 65.1273 259.057 64.8427 259.319 64.46L259.599 64.67C259.291 65.1927 258.927 65.5707 258.507 65.804C258.087 66.028 257.587 66.14 257.009 66.14ZM263.636 66.14C263.002 66.14 262.465 65.9907 262.026 65.692C261.588 65.384 261.256 64.9733 261.032 64.46C260.808 63.9373 260.696 63.354 260.696 62.71C260.696 62.0753 260.808 61.4967 261.032 60.974C261.256 60.4513 261.578 60.0407 261.998 59.742C262.428 59.434 262.927 59.28 263.496 59.28C264.439 59.28 265.139 59.546 265.596 60.078C266.063 60.6007 266.296 61.3613 266.296 62.36L266.268 62.92H262.026C262.026 63.704 262.194 64.3433 262.53 64.838C262.866 65.3327 263.328 65.58 263.916 65.58C264.355 65.58 264.724 65.4867 265.022 65.3C265.33 65.1133 265.615 64.8333 265.876 64.46L266.156 64.67C265.848 65.1833 265.489 65.5567 265.078 65.79C264.668 66.0233 264.187 66.14 263.636 66.14ZM264.966 62.36C264.966 61.5387 264.845 60.9133 264.602 60.484C264.36 60.0547 263.991 59.84 263.496 59.84C263.216 59.84 262.964 59.952 262.74 60.176C262.516 60.3907 262.339 60.6893 262.208 61.072C262.087 61.4547 262.026 61.884 262.026 62.36H264.966ZM270.108 66.14C269.035 66.14 268.312 65.9533 267.938 65.58C267.78 65.4213 267.682 65.244 267.644 65.048C267.607 64.8427 267.588 64.53 267.588 64.11H267.868C267.952 64.5767 268.153 64.9407 268.47 65.202C268.797 65.454 269.25 65.58 269.828 65.58C270.342 65.58 270.724 65.4913 270.976 65.314C271.238 65.1367 271.368 64.8987 271.368 64.6C271.368 64.3293 271.266 64.096 271.06 63.9C270.864 63.704 270.547 63.5173 270.108 63.34L269.268 62.99C268.708 62.766 268.288 62.5047 268.008 62.206C267.728 61.9073 267.588 61.5387 267.588 61.1C267.588 60.5307 267.803 60.0873 268.232 59.77C268.662 59.4433 269.217 59.28 269.898 59.28C270.925 59.28 271.625 59.4667 271.998 59.84C272.157 59.9987 272.255 60.176 272.292 60.372C272.33 60.568 272.348 60.8807 272.348 61.31H272.068C271.994 60.8433 271.798 60.484 271.48 60.232C271.163 59.9707 270.729 59.84 270.178 59.84C269.74 59.84 269.394 59.9333 269.142 60.12C268.9 60.2973 268.778 60.5307 268.778 60.82C268.778 61.3053 269.152 61.702 269.898 62.01L270.738 62.36C271.373 62.6213 271.835 62.9013 272.124 63.2C272.414 63.4893 272.558 63.8627 272.558 64.32C272.558 64.8893 272.33 65.3373 271.872 65.664C271.415 65.9813 270.827 66.14 270.108 66.14ZM276.356 66.14C275.283 66.14 274.56 65.9533 274.186 65.58C274.028 65.4213 273.93 65.244 273.892 65.048C273.855 64.8427 273.836 64.53 273.836 64.11H274.116C274.2 64.5767 274.401 64.9407 274.718 65.202C275.045 65.454 275.498 65.58 276.076 65.58C276.59 65.58 276.972 65.4913 277.224 65.314C277.486 65.1367 277.616 64.8987 277.616 64.6C277.616 64.3293 277.514 64.096 277.308 63.9C277.112 63.704 276.795 63.5173 276.356 63.34L275.516 62.99C274.956 62.766 274.536 62.5047 274.256 62.206C273.976 61.9073 273.836 61.5387 273.836 61.1C273.836 60.5307 274.051 60.0873 274.48 59.77C274.91 59.4433 275.465 59.28 276.146 59.28C277.173 59.28 277.873 59.4667 278.246 59.84C278.405 59.9987 278.503 60.176 278.54 60.372C278.578 60.568 278.596 60.8807 278.596 61.31H278.316C278.242 60.8433 278.046 60.484 277.728 60.232C277.411 59.9707 276.977 59.84 276.426 59.84C275.988 59.84 275.642 59.9333 275.39 60.12C275.148 60.2973 275.026 60.5307 275.026 60.82C275.026 61.3053 275.4 61.702 276.146 62.01L276.986 62.36C277.621 62.6213 278.083 62.9013 278.372 63.2C278.662 63.4893 278.806 63.8627 278.806 64.32C278.806 64.8893 278.578 65.3373 278.12 65.664C277.663 65.9813 277.075 66.14 276.356 66.14Z" fill="#965400"/>
<path d="M1.484 94.44C1.484 93.964 1.41867 93.614 1.288 93.39C1.15733 93.1567 0.896 93.04 0.504 93.04H0.224V92.76H5.81C6.60333 92.76 7 93.1333 7 93.88V94.93H6.72C6.72 93.8567 6.13667 93.32 4.97 93.32H2.744V97.03H5.908V97.59H2.744V102H1.484V94.44ZM10.4502 102.14C9.81557 102.14 9.2649 101.991 8.79823 101.692C8.33157 101.384 7.9769 100.969 7.73423 100.446C7.49157 99.9233 7.37023 99.3447 7.37023 98.71C7.37023 98.0753 7.49157 97.4967 7.73423 96.974C7.9769 96.4513 8.33157 96.0407 8.79823 95.742C9.2649 95.434 9.81557 95.28 10.4502 95.28C11.0849 95.28 11.6356 95.434 12.1022 95.742C12.5689 96.0407 12.9236 96.4513 13.1662 96.974C13.4089 97.4967 13.5302 98.0753 13.5302 98.71C13.5302 99.3447 13.4089 99.9233 13.1662 100.446C12.9236 100.969 12.5689 101.384 12.1022 101.692C11.6356 101.991 11.0849 102.14 10.4502 102.14ZM10.4502 101.58C10.7956 101.58 11.0989 101.454 11.3602 101.202C11.6309 100.95 11.8362 100.605 11.9762 100.166C12.1256 99.7273 12.2002 99.242 12.2002 98.71C12.2002 98.178 12.1256 97.6927 11.9762 97.254C11.8362 96.8153 11.6309 96.47 11.3602 96.218C11.0989 95.966 10.7956 95.84 10.4502 95.84C10.1049 95.84 9.7969 95.966 9.52623 96.218C9.2649 96.47 9.05957 96.8153 8.91023 97.254C8.77023 97.6927 8.70023 98.178 8.70023 98.71C8.70023 99.242 8.77023 99.7273 8.91023 100.166C9.05957 100.605 9.2649 100.95 9.52623 101.202C9.7969 101.454 10.1049 101.58 10.4502 101.58ZM15.2841 97.1C15.2841 96.624 15.2187 96.274 15.0881 96.05C14.9574 95.8167 14.6961 95.7 14.3041 95.7H14.1641V95.42H15.2841C15.6387 95.42 15.9047 95.4713 16.0821 95.574C16.2687 95.6673 16.3994 95.826 16.4741 96.05H16.5441C16.7121 95.8353 16.9361 95.6533 17.2161 95.504C17.5054 95.3547 17.8414 95.28 18.2241 95.28C18.5974 95.28 18.8774 95.35 19.0641 95.49C19.2227 95.6113 19.3861 95.8213 19.5541 96.12L18.9941 96.54C18.8914 96.4 18.7421 96.2973 18.5461 96.232C18.3501 96.1573 18.1261 96.12 17.8741 96.12C17.5941 96.12 17.3374 96.1853 17.1041 96.316C16.8707 96.4373 16.6841 96.6053 16.5441 96.82V102H15.2841V97.1ZM24.2925 94.44C24.2925 93.964 24.2272 93.614 24.0965 93.39C23.9658 93.1567 23.7045 93.04 23.3125 93.04H23.0325V92.76H24.2925C24.6378 92.76 24.8945 92.8067 25.0625 92.9C25.2398 92.984 25.3658 93.1427 25.4405 93.376C25.5152 93.6093 25.5525 93.964 25.5525 94.44V102H24.2925V94.44ZM30.1891 102.14C29.5545 102.14 29.0178 101.991 28.5791 101.692C28.1405 101.384 27.8091 100.973 27.5851 100.46C27.3611 99.9373 27.2491 99.354 27.2491 98.71C27.2491 98.0753 27.3611 97.4967 27.5851 96.974C27.8091 96.4513 28.1311 96.0407 28.5511 95.742C28.9805 95.434 29.4798 95.28 30.0491 95.28C30.9918 95.28 31.6918 95.546 32.1491 96.078C32.6158 96.6007 32.8491 97.3613 32.8491 98.36L32.8211 98.92H28.5791C28.5791 99.704 28.7471 100.343 29.0831 100.838C29.4191 101.333 29.8811 101.58 30.4691 101.58C30.9078 101.58 31.2765 101.487 31.5751 101.3C31.8831 101.113 32.1678 100.833 32.4291 100.46L32.7091 100.67C32.4011 101.183 32.0418 101.557 31.6311 101.79C31.2205 102.023 30.7398 102.14 30.1891 102.14ZM31.5191 98.36C31.5191 97.5387 31.3978 96.9133 31.1551 96.484C30.9125 96.0547 30.5438 95.84 30.0491 95.84C29.7691 95.84 29.5171 95.952 29.2931 96.176C29.0691 96.3907 28.8918 96.6893 28.7611 97.072C28.6398 97.4547 28.5791 97.884 28.5791 98.36H31.5191ZM36.0311 102.14C35.7324 102.14 35.4291 102.079 35.1211 101.958C34.8131 101.827 34.5471 101.617 34.3231 101.328C34.1084 101.039 34.0011 100.656 34.0011 100.18C34.0011 99.4707 34.3277 98.9667 34.9811 98.668C35.6437 98.3693 36.5071 98.22 37.5711 98.22H37.9911C37.9911 97.3053 37.8651 96.68 37.6131 96.344C37.3611 96.008 36.9971 95.84 36.5211 95.84C36.1011 95.84 35.7651 95.9287 35.5131 96.106C35.2611 96.2833 35.0837 96.5913 34.9811 97.03H34.3511C34.3511 96.7127 34.3697 96.4653 34.4071 96.288C34.4444 96.1013 34.5424 95.9287 34.7011 95.77C34.8691 95.602 35.1444 95.4807 35.5271 95.406C35.9191 95.322 36.3437 95.28 36.8011 95.28C37.5571 95.28 38.1544 95.4853 38.5931 95.896C39.0317 96.2973 39.2511 97.072 39.2511 98.22V102H38.5511L38.0611 101.37H37.9911C37.8231 101.585 37.5757 101.767 37.2491 101.916C36.9224 102.065 36.5164 102.14 36.0311 102.14ZM36.6611 101.51C36.9691 101.51 37.2257 101.435 37.4311 101.286C37.6364 101.137 37.8231 100.931 37.9911 100.67V98.78H37.5711C36.8804 98.78 36.3344 98.9107 35.9331 99.172C35.5317 99.424 35.3311 99.76 35.3311 100.18C35.3311 100.609 35.4571 100.941 35.7091 101.174C35.9704 101.398 36.2877 101.51 36.6611 101.51ZM41.3153 97.1C41.3153 96.624 41.25 96.274 41.1193 96.05C40.9886 95.8167 40.7273 95.7 40.3353 95.7H40.1953V95.42H41.3153C41.67 95.42 41.936 95.4713 42.1133 95.574C42.3 95.6673 42.4306 95.826 42.5053 96.05H42.5753C42.7433 95.8353 42.9673 95.6533 43.2473 95.504C43.5366 95.3547 43.8726 95.28 44.2553 95.28C44.6286 95.28 44.9086 95.35 45.0953 95.49C45.254 95.6113 45.4173 95.8213 45.5853 96.12L45.0253 96.54C44.9226 96.4 44.7733 96.2973 44.5773 96.232C44.3813 96.1573 44.1573 96.12 43.9053 96.12C43.6253 96.12 43.3686 96.1853 43.1353 96.316C42.902 96.4373 42.7153 96.6053 42.5753 96.82V102H41.3153V97.1ZM46.9778 97.1C46.9778 96.624 46.9124 96.274 46.7818 96.05C46.6511 95.8167 46.3898 95.7 45.9978 95.7H45.7178V95.42H46.9778C47.3231 95.42 47.5844 95.4667 47.7618 95.56C47.9484 95.6533 48.0838 95.7933 48.1678 95.98H48.2378C48.4338 95.784 48.6858 95.6207 48.9938 95.49C49.3111 95.35 49.6658 95.28 50.0578 95.28C50.7578 95.28 51.3271 95.4667 51.7658 95.84C52.2138 96.2133 52.4378 96.8667 52.4378 97.8V102H51.1778V97.8C51.1778 97.1467 51.0284 96.6707 50.7298 96.372C50.4404 96.064 50.0764 95.91 49.6378 95.91C49.1431 95.91 48.6764 96.1573 48.2378 96.652V102H46.9778V97.1ZM56.945 102.14C56.3103 102.14 55.7737 101.991 55.335 101.692C54.8963 101.384 54.565 100.973 54.341 100.46C54.117 99.9373 54.005 99.354 54.005 98.71C54.005 98.0753 54.117 97.4967 54.341 96.974C54.565 96.4513 54.887 96.0407 55.307 95.742C55.7363 95.434 56.2357 95.28 56.805 95.28C57.7477 95.28 58.4477 95.546 58.905 96.078C59.3717 96.6007 59.605 97.3613 59.605 98.36L59.577 98.92H55.335C55.335 99.704 55.503 100.343 55.839 100.838C56.175 101.333 56.637 101.58 57.225 101.58C57.6637 101.58 58.0323 101.487 58.331 101.3C58.639 101.113 58.9237 100.833 59.185 100.46L59.465 100.67C59.157 101.183 58.7977 101.557 58.387 101.79C57.9763 102.023 57.4957 102.14 56.945 102.14ZM58.275 98.36C58.275 97.5387 58.1537 96.9133 57.911 96.484C57.6683 96.0547 57.2997 95.84 56.805 95.84C56.525 95.84 56.273 95.952 56.049 96.176C55.825 96.3907 55.6477 96.6893 55.517 97.072C55.3957 97.4547 55.335 97.884 55.335 98.36H58.275ZM61.3309 97.1C61.3309 96.624 61.2656 96.274 61.1349 96.05C61.0043 95.8167 60.7429 95.7 60.3509 95.7H60.2109V95.42H61.3309C61.6856 95.42 61.9516 95.4713 62.1289 95.574C62.3156 95.6673 62.4463 95.826 62.5209 96.05H62.5909C62.7589 95.8353 62.9829 95.6533 63.2629 95.504C63.5523 95.3547 63.8883 95.28 64.2709 95.28C64.6443 95.28 64.9243 95.35 65.1109 95.49C65.2696 95.6113 65.4329 95.8213 65.6009 96.12L65.0409 96.54C64.9383 96.4 64.7889 96.2973 64.5929 96.232C64.3969 96.1573 64.1729 96.12 63.9209 96.12C63.6409 96.12 63.3843 96.1853 63.1509 96.316C62.9176 96.4373 62.7309 96.6053 62.5909 96.82V102H61.3309V97.1ZM68.9814 102.14C67.9081 102.14 67.1847 101.953 66.8114 101.58C66.6527 101.421 66.5547 101.244 66.5174 101.048C66.4801 100.843 66.4614 100.53 66.4614 100.11H66.7414C66.8254 100.577 67.0261 100.941 67.3434 101.202C67.6701 101.454 68.1227 101.58 68.7014 101.58C69.2147 101.58 69.5974 101.491 69.8494 101.314C70.1107 101.137 70.2414 100.899 70.2414 100.6C70.2414 100.329 70.1387 100.096 69.9334 99.9C69.7374 99.704 69.4201 99.5173 68.9814 99.34L68.1414 98.99C67.5814 98.766 67.1614 98.5047 66.8814 98.206C66.6014 97.9073 66.4614 97.5387 66.4614 97.1C66.4614 96.5307 66.6761 96.0873 67.1054 95.77C67.5347 95.4433 68.0901 95.28 68.7714 95.28C69.7981 95.28 70.4981 95.4667 70.8714 95.84C71.0301 95.9987 71.1281 96.176 71.1654 96.372C71.2027 96.568 71.2214 96.8807 71.2214 97.31H70.9414C70.8667 96.8433 70.6707 96.484 70.3534 96.232C70.0361 95.9707 69.6021 95.84 69.0514 95.84C68.6127 95.84 68.2674 95.9333 68.0154 96.12C67.7727 96.2973 67.6514 96.5307 67.6514 96.82C67.6514 97.3053 68.0247 97.702 68.7714 98.01L69.6114 98.36C70.2461 98.6213 70.7081 98.9013 70.9974 99.2C71.2867 99.4893 71.4314 99.8627 71.4314 100.32C71.4314 100.889 71.2027 101.337 70.7454 101.664C70.2881 101.981 69.7001 102.14 68.9814 102.14ZM76.9234 97.03C76.7088 96.5073 76.4941 96.1433 76.2794 95.938C76.0741 95.7233 75.7988 95.6067 75.4534 95.588V95.308C75.5001 95.308 75.5701 95.3033 75.6634 95.294C75.7568 95.2847 75.8501 95.28 75.9434 95.28C76.4474 95.28 76.8908 95.4107 77.2734 95.672C77.6654 95.924 77.9921 96.3767 78.2534 97.03L79.4434 99.97L80.6334 96.96C80.4094 96.4653 80.1948 96.12 79.9894 95.924C79.7934 95.7187 79.5414 95.6067 79.2334 95.588V95.308C79.2801 95.308 79.3501 95.3033 79.4434 95.294C79.5368 95.2847 79.6301 95.28 79.7234 95.28C80.2274 95.28 80.6708 95.4107 81.0534 95.672C81.4454 95.924 81.7721 96.3767 82.0334 97.03L83.2234 99.97L85.0434 95.42H85.7434L83.0134 102.14H82.7334L80.9834 97.8L79.2334 102.14H78.9534L76.9234 97.03ZM87.7598 94.58C87.5451 94.58 87.3584 94.4913 87.1998 94.314C87.0504 94.1367 86.9758 93.9267 86.9758 93.684C86.9758 93.488 87.0318 93.334 87.1438 93.222C87.2651 93.11 87.4238 93.054 87.6198 93.054C87.8344 93.054 88.0164 93.1427 88.1658 93.32C88.3244 93.4973 88.4038 93.7073 88.4038 93.95C88.4038 94.146 88.3431 94.3 88.2218 94.412C88.1098 94.524 87.9558 94.58 87.7598 94.58ZM87.2278 97.1C87.2278 96.624 87.1624 96.274 87.0318 96.05C86.9011 95.8167 86.6398 95.7 86.2478 95.7H85.9678V95.42H87.2278C87.5731 95.42 87.8298 95.4667 87.9978 95.56C88.1751 95.644 88.3011 95.8027 88.3758 96.036C88.4504 96.2693 88.4878 96.624 88.4878 97.1V102H87.2278V97.1ZM92.4091 102.14C91.8864 102.14 91.4757 101.991 91.1771 101.692C90.8784 101.393 90.7291 100.936 90.7291 100.32V95.98H89.7491V95.42H90.7291V94.16L91.4291 93.32H91.9891V95.42H93.6691V95.98H91.9891V100.32C91.9891 101.16 92.3157 101.58 92.9691 101.58C93.1931 101.58 93.3797 101.557 93.5291 101.51C93.6877 101.463 93.8511 101.393 94.0191 101.3L94.1591 101.58C93.9444 101.739 93.7064 101.874 93.4451 101.986C93.1837 102.089 92.8384 102.14 92.4091 102.14ZM95.1935 94.44C95.1935 93.964 95.1282 93.614 94.9975 93.39C94.8669 93.1567 94.6055 93.04 94.2135 93.04H93.9335V92.76H95.1935C95.5389 92.76 95.7955 92.8067 95.9635 92.9C96.1409 92.984 96.2669 93.1427 96.3415 93.376C96.4162 93.6093 96.4535 93.964 96.4535 94.44V95.98C96.6495 95.784 96.9015 95.6207 97.2095 95.49C97.5269 95.35 97.8815 95.28 98.2735 95.28C98.9735 95.28 99.5429 95.4667 99.9815 95.84C100.43 96.2133 100.654 96.8667 100.654 97.8V102H99.3935V97.8C99.3935 97.1467 99.2442 96.6707 98.9455 96.372C98.6562 96.064 98.2922 95.91 97.8535 95.91C97.3589 95.91 96.8922 96.1573 96.4535 96.652V102H95.1935V94.44ZM108.54 104.8C107.597 104.8 106.846 104.627 106.286 104.282C105.735 103.937 105.46 103.386 105.46 102.63C105.46 102.201 105.604 101.827 105.894 101.51C106.183 101.193 106.552 100.959 107 100.81C106.626 100.605 106.44 100.325 106.44 99.97C106.44 99.7833 106.482 99.6387 106.566 99.536C106.65 99.4333 106.771 99.3213 106.93 99.2C106.631 99.0507 106.379 98.8173 106.174 98.5C105.978 98.1827 105.88 97.8093 105.88 97.38C105.88 95.98 106.766 95.28 108.54 95.28H111.13V95.63L110.22 95.77V95.84C110.509 95.9893 110.742 96.1993 110.92 96.47C111.106 96.7313 111.2 97.0347 111.2 97.38C111.2 98.78 110.313 99.48 108.54 99.48C107.56 99.48 107.07 99.6433 107.07 99.97C107.07 100.297 107.56 100.46 108.54 100.46C109.445 100.46 110.182 100.642 110.752 101.006C111.33 101.361 111.62 101.902 111.62 102.63C111.62 103.386 111.34 103.937 110.78 104.282C110.229 104.627 109.482 104.8 108.54 104.8ZM108.54 98.99C108.96 98.99 109.296 98.864 109.548 98.612C109.809 98.3507 109.94 97.94 109.94 97.38C109.94 96.848 109.809 96.4467 109.548 96.176C109.296 95.9053 108.96 95.77 108.54 95.77C108.12 95.77 107.779 95.9007 107.518 96.162C107.266 96.414 107.14 96.82 107.14 97.38C107.14 97.94 107.266 98.3507 107.518 98.612C107.779 98.864 108.12 98.99 108.54 98.99ZM108.54 104.24C109.1 104.24 109.543 104.105 109.87 103.834C110.196 103.573 110.36 103.171 110.36 102.63C110.36 101.697 109.8 101.16 108.68 101.02L107.91 100.95C107.527 101.099 107.233 101.309 107.028 101.58C106.822 101.851 106.72 102.201 106.72 102.63C106.72 103.171 106.883 103.573 107.21 103.834C107.536 104.105 107.98 104.24 108.54 104.24ZM115.696 102.14C115.062 102.14 114.511 101.991 114.044 101.692C113.578 101.384 113.223 100.969 112.98 100.446C112.738 99.9233 112.616 99.3447 112.616 98.71C112.616 98.0753 112.738 97.4967 112.98 96.974C113.223 96.4513 113.578 96.0407 114.044 95.742C114.511 95.434 115.062 95.28 115.696 95.28C116.331 95.28 116.882 95.434 117.348 95.742C117.815 96.0407 118.17 96.4513 118.412 96.974C118.655 97.4967 118.776 98.0753 118.776 98.71C118.776 99.3447 118.655 99.9233 118.412 100.446C118.17 100.969 117.815 101.384 117.348 101.692C116.882 101.991 116.331 102.14 115.696 102.14ZM115.696 101.58C116.042 101.58 116.345 101.454 116.606 101.202C116.877 100.95 117.082 100.605 117.222 100.166C117.372 99.7273 117.446 99.242 117.446 98.71C117.446 98.178 117.372 97.6927 117.222 97.254C117.082 96.8153 116.877 96.47 116.606 96.218C116.345 95.966 116.042 95.84 115.696 95.84C115.351 95.84 115.043 95.966 114.772 96.218C114.511 96.47 114.306 96.8153 114.156 97.254C114.016 97.6927 113.946 98.178 113.946 98.71C113.946 99.242 114.016 99.7273 114.156 100.166C114.306 100.605 114.511 100.95 114.772 101.202C115.043 101.454 115.351 101.58 115.696 101.58ZM123.12 102.14C122.485 102.14 121.935 101.991 121.468 101.692C121.001 101.384 120.647 100.969 120.404 100.446C120.161 99.9233 120.04 99.3447 120.04 98.71C120.04 98.0753 120.161 97.4967 120.404 96.974C120.647 96.4513 121.001 96.0407 121.468 95.742C121.935 95.434 122.485 95.28 123.12 95.28C123.755 95.28 124.305 95.434 124.772 95.742C125.239 96.0407 125.593 96.4513 125.836 96.974C126.079 97.4967 126.2 98.0753 126.2 98.71C126.2 99.3447 126.079 99.9233 125.836 100.446C125.593 100.969 125.239 101.384 124.772 101.692C124.305 101.991 123.755 102.14 123.12 102.14ZM123.12 101.58C123.465 101.58 123.769 101.454 124.03 101.202C124.301 100.95 124.506 100.605 124.646 100.166C124.795 99.7273 124.87 99.242 124.87 98.71C124.87 98.178 124.795 97.6927 124.646 97.254C124.506 96.8153 124.301 96.47 124.03 96.218C123.769 95.966 123.465 95.84 123.12 95.84C122.775 95.84 122.467 95.966 122.196 96.218C121.935 96.47 121.729 96.8153 121.58 97.254C121.44 97.6927 121.37 98.178 121.37 98.71C121.37 99.242 121.44 99.7273 121.58 100.166C121.729 100.605 121.935 100.95 122.196 101.202C122.467 101.454 122.775 101.58 123.12 101.58ZM130.012 102.14C129.2 102.14 128.575 101.818 128.136 101.174C127.707 100.53 127.492 99.7087 127.492 98.71C127.492 97.7113 127.716 96.89 128.164 96.246C128.621 95.602 129.284 95.28 130.152 95.28C130.507 95.28 130.819 95.3173 131.09 95.392C131.361 95.4667 131.631 95.5693 131.902 95.7V94.44C131.902 93.964 131.837 93.614 131.706 93.39C131.575 93.1567 131.314 93.04 130.922 93.04H130.642V92.76H131.902C132.247 92.76 132.504 92.8067 132.672 92.9C132.849 92.984 132.975 93.1427 133.05 93.376C133.125 93.6093 133.162 93.964 133.162 94.44V102H132.462L131.972 101.37H131.902C131.697 101.603 131.454 101.79 131.174 101.93C130.903 102.07 130.516 102.14 130.012 102.14ZM130.432 101.58C130.815 101.58 131.104 101.51 131.3 101.37C131.496 101.23 131.697 101.02 131.902 100.74V96.26C131.622 96.1293 131.379 96.0267 131.174 95.952C130.969 95.8773 130.768 95.84 130.572 95.84C129.975 95.84 129.531 96.1013 129.242 96.624C128.962 97.1467 128.822 97.842 128.822 98.71C128.822 99.5687 128.957 100.264 129.228 100.796C129.499 101.319 129.9 101.58 130.432 101.58ZM140.252 102.14C139.953 102.14 139.65 102.079 139.342 101.958C139.034 101.827 138.768 101.617 138.544 101.328C138.329 101.039 138.222 100.656 138.222 100.18C138.222 99.4707 138.548 98.9667 139.202 98.668C139.864 98.3693 140.728 98.22 141.792 98.22H142.212C142.212 97.3053 142.086 96.68 141.834 96.344C141.582 96.008 141.218 95.84 140.742 95.84C140.322 95.84 139.986 95.9287 139.734 96.106C139.482 96.2833 139.304 96.5913 139.202 97.03H138.572C138.572 96.7127 138.59 96.4653 138.628 96.288C138.665 96.1013 138.763 95.9287 138.922 95.77C139.09 95.602 139.365 95.4807 139.748 95.406C140.14 95.322 140.564 95.28 141.022 95.28C141.778 95.28 142.375 95.4853 142.814 95.896C143.252 96.2973 143.472 97.072 143.472 98.22V102H142.772L142.282 101.37H142.212C142.044 101.585 141.796 101.767 141.47 101.916C141.143 102.065 140.737 102.14 140.252 102.14ZM140.882 101.51C141.19 101.51 141.446 101.435 141.652 101.286C141.857 101.137 142.044 100.931 142.212 100.67V98.78H141.792C141.101 98.78 140.555 98.9107 140.154 99.172C139.752 99.424 139.552 99.76 139.552 100.18C139.552 100.609 139.678 100.941 139.93 101.174C140.191 101.398 140.508 101.51 140.882 101.51ZM145.634 97.1C145.634 96.624 145.569 96.274 145.438 96.05C145.307 95.8167 145.046 95.7 144.654 95.7H144.374V95.42H145.634C145.989 95.42 146.255 95.4713 146.432 95.574C146.619 95.6673 146.749 95.826 146.824 96.05H146.894C147.062 95.8353 147.3 95.6533 147.608 95.504C147.916 95.3547 148.308 95.28 148.784 95.28C149.587 95.28 150.207 95.6067 150.646 96.26C151.085 96.904 151.304 97.7207 151.304 98.71C151.304 99.7087 151.075 100.53 150.618 101.174C150.17 101.818 149.512 102.14 148.644 102.14C148.289 102.14 147.977 102.103 147.706 102.028C147.435 101.953 147.165 101.851 146.894 101.72V104.66H145.634V97.1ZM148.224 101.58C148.821 101.58 149.26 101.319 149.54 100.796C149.829 100.273 149.974 99.578 149.974 98.71C149.974 97.8513 149.839 97.1607 149.568 96.638C149.297 96.106 148.896 95.84 148.364 95.84C147.739 95.84 147.249 96.12 146.894 96.68V101.16C147.174 101.291 147.417 101.393 147.622 101.468C147.827 101.543 148.028 101.58 148.224 101.58ZM154.903 102.14C154.381 102.14 153.97 101.991 153.671 101.692C153.373 101.393 153.223 100.936 153.223 100.32V95.98H152.243V95.42H153.223V94.16L153.923 93.32H154.483V95.42H156.163V95.98H154.483V100.32C154.483 101.16 154.81 101.58 155.463 101.58C155.687 101.58 155.874 101.557 156.023 101.51C156.182 101.463 156.345 101.393 156.513 101.3L156.653 101.58C156.439 101.739 156.201 101.874 155.939 101.986C155.678 102.089 155.333 102.14 154.903 102.14ZM158.43 94.58C158.215 94.58 158.028 94.4913 157.87 94.314C157.72 94.1367 157.646 93.9267 157.646 93.684C157.646 93.488 157.702 93.334 157.814 93.222C157.935 93.11 158.094 93.054 158.29 93.054C158.504 93.054 158.686 93.1427 158.836 93.32C158.994 93.4973 159.074 93.7073 159.074 93.95C159.074 94.146 159.013 94.3 158.892 94.412C158.78 94.524 158.626 94.58 158.43 94.58ZM157.898 97.1C157.898 96.624 157.832 96.274 157.702 96.05C157.571 95.8167 157.31 95.7 156.918 95.7H156.638V95.42H157.898C158.243 95.42 158.5 95.4667 158.668 95.56C158.845 95.644 158.971 95.8027 159.046 96.036C159.12 96.2693 159.158 96.624 159.158 97.1V102H157.898V97.1ZM163.079 102.14C162.556 102.14 162.146 101.991 161.847 101.692C161.548 101.393 161.399 100.936 161.399 100.32V95.98H160.419V95.42H161.399V94.16L162.099 93.32H162.659V95.42H164.339V95.98H162.659V100.32C162.659 101.16 162.986 101.58 163.639 101.58C163.863 101.58 164.05 101.557 164.199 101.51C164.358 101.463 164.521 101.393 164.689 101.3L164.829 101.58C164.614 101.739 164.376 101.874 164.115 101.986C163.854 102.089 163.508 102.14 163.079 102.14ZM168.257 102.14C167.557 102.14 166.983 101.953 166.535 101.58C166.097 101.207 165.877 100.553 165.877 99.62V97.1C165.877 96.624 165.812 96.274 165.681 96.05C165.551 95.8167 165.289 95.7 164.897 95.7H164.757V95.42H165.877C166.223 95.42 166.479 95.4667 166.647 95.56C166.825 95.644 166.951 95.8027 167.025 96.036C167.1 96.2693 167.137 96.624 167.137 97.1V99.62C167.137 100.273 167.282 100.754 167.571 101.062C167.87 101.361 168.239 101.51 168.677 101.51C169.172 101.51 169.639 101.263 170.077 100.768V95.42H171.337V102H170.637L170.147 101.44H170.077C169.881 101.636 169.625 101.804 169.307 101.944C168.999 102.075 168.649 102.14 168.257 102.14ZM175.526 102.14C174.714 102.14 174.088 101.818 173.65 101.174C173.22 100.53 173.006 99.7087 173.006 98.71C173.006 97.7113 173.23 96.89 173.678 96.246C174.135 95.602 174.798 95.28 175.666 95.28C176.02 95.28 176.333 95.3173 176.604 95.392C176.874 95.4667 177.145 95.5693 177.416 95.7V94.44C177.416 93.964 177.35 93.614 177.22 93.39C177.089 93.1567 176.828 93.04 176.436 93.04H176.156V92.76H177.416C177.761 92.76 178.018 92.8067 178.186 92.9C178.363 92.984 178.489 93.1427 178.564 93.376C178.638 93.6093 178.676 93.964 178.676 94.44V102H177.976L177.486 101.37H177.416C177.21 101.603 176.968 101.79 176.688 101.93C176.417 102.07 176.03 102.14 175.526 102.14ZM175.946 101.58C176.328 101.58 176.618 101.51 176.814 101.37C177.01 101.23 177.21 101.02 177.416 100.74V96.26C177.136 96.1293 176.893 96.0267 176.688 95.952C176.482 95.8773 176.282 95.84 176.086 95.84C175.488 95.84 175.045 96.1013 174.756 96.624C174.476 97.1467 174.336 97.842 174.336 98.71C174.336 99.5687 174.471 100.264 174.742 100.796C175.012 101.319 175.414 101.58 175.946 101.58ZM183.259 102.14C182.625 102.14 182.088 101.991 181.649 101.692C181.211 101.384 180.879 100.973 180.655 100.46C180.431 99.9373 180.319 99.354 180.319 98.71C180.319 98.0753 180.431 97.4967 180.655 96.974C180.879 96.4513 181.201 96.0407 181.621 95.742C182.051 95.434 182.55 95.28 183.119 95.28C184.062 95.28 184.762 95.546 185.219 96.078C185.686 96.6007 185.919 97.3613 185.919 98.36L185.891 98.92H181.649C181.649 99.704 181.817 100.343 182.153 100.838C182.489 101.333 182.951 101.58 183.539 101.58C183.978 101.58 184.347 101.487 184.645 101.3C184.953 101.113 185.238 100.833 185.499 100.46L185.779 100.67C185.471 101.183 185.112 101.557 184.701 101.79C184.291 102.023 183.81 102.14 183.259 102.14ZM184.589 98.36C184.589 97.5387 184.468 96.9133 184.225 96.484C183.983 96.0547 183.614 95.84 183.119 95.84C182.839 95.84 182.587 95.952 182.363 96.176C182.139 96.3907 181.962 96.6893 181.831 97.072C181.71 97.4547 181.649 97.884 181.649 98.36H184.589ZM193.553 102.28C192.611 102.28 191.883 102.075 191.369 101.664C190.865 101.244 190.613 100.703 190.613 100.04C190.613 99.676 190.702 99.3493 190.879 99.06C191.057 98.7613 191.267 98.5047 191.509 98.29C191.761 98.0753 192.13 97.7907 192.615 97.436C192.307 97.156 192.065 96.8947 191.887 96.652C191.673 96.3813 191.5 96.078 191.369 95.742C191.239 95.3967 191.173 95.0373 191.173 94.664C191.173 93.992 191.397 93.46 191.845 93.068C192.303 92.676 192.919 92.48 193.693 92.48C194.412 92.48 194.977 92.662 195.387 93.026C195.798 93.39 196.003 93.8613 196.003 94.44C196.003 94.8507 195.915 95.2193 195.737 95.546C195.56 95.8633 195.331 96.148 195.051 96.4C194.771 96.652 194.407 96.932 193.959 97.24L196.773 100.32C197.109 99.956 197.417 99.5593 197.697 99.13C197.837 98.906 197.949 98.7193 198.033 98.57L198.313 98.78C198.211 98.9947 198.108 99.1907 198.005 99.368C197.725 99.844 197.413 100.269 197.067 100.642L198.313 102H196.773L196.213 101.398C195.429 101.986 194.543 102.28 193.553 102.28ZM193.525 96.75C193.945 96.3953 194.263 96.0547 194.477 95.728C194.701 95.392 194.813 95.0093 194.813 94.58C194.813 94.0387 194.697 93.6373 194.463 93.376C194.239 93.1053 193.983 92.97 193.693 92.97C193.367 92.97 193.087 93.1053 192.853 93.376C192.62 93.6467 192.503 94.076 192.503 94.664C192.503 94.9907 192.573 95.308 192.713 95.616C192.853 95.9147 193.007 96.1667 193.175 96.372C193.343 96.5773 193.46 96.7033 193.525 96.75ZM193.819 101.79C194.603 101.79 195.303 101.552 195.919 101.076L193.035 97.926C192.681 98.234 192.41 98.542 192.223 98.85C192.037 99.158 191.943 99.508 191.943 99.9C191.943 101.16 192.569 101.79 193.819 101.79ZM203.216 94.44C203.216 93.964 203.151 93.614 203.02 93.39C202.89 93.1567 202.628 93.04 202.236 93.04H201.956V92.76H203.216C203.562 92.76 203.818 92.8067 203.986 92.9C204.164 92.984 204.29 93.1427 204.364 93.376C204.439 93.6093 204.476 93.964 204.476 94.44V102H203.216V94.44ZM209.253 102.14C208.618 102.14 208.068 101.991 207.601 101.692C207.134 101.384 206.78 100.969 206.537 100.446C206.294 99.9233 206.173 99.3447 206.173 98.71C206.173 98.0753 206.294 97.4967 206.537 96.974C206.78 96.4513 207.134 96.0407 207.601 95.742C208.068 95.434 208.618 95.28 209.253 95.28C209.888 95.28 210.438 95.434 210.905 95.742C211.372 96.0407 211.726 96.4513 211.969 96.974C212.212 97.4967 212.333 98.0753 212.333 98.71C212.333 99.3447 212.212 99.9233 211.969 100.446C211.726 100.969 211.372 101.384 210.905 101.692C210.438 101.991 209.888 102.14 209.253 102.14ZM209.253 101.58C209.598 101.58 209.902 101.454 210.163 101.202C210.434 100.95 210.639 100.605 210.779 100.166C210.928 99.7273 211.003 99.242 211.003 98.71C211.003 98.178 210.928 97.6927 210.779 97.254C210.639 96.8153 210.434 96.47 210.163 96.218C209.902 95.966 209.598 95.84 209.253 95.84C208.908 95.84 208.6 95.966 208.329 96.218C208.068 96.47 207.862 96.8153 207.713 97.254C207.573 97.6927 207.503 98.178 207.503 98.71C207.503 99.242 207.573 99.7273 207.713 100.166C207.862 100.605 208.068 100.95 208.329 101.202C208.6 101.454 208.908 101.58 209.253 101.58ZM216.411 104.8C215.468 104.8 214.717 104.627 214.157 104.282C213.606 103.937 213.331 103.386 213.331 102.63C213.331 102.201 213.475 101.827 213.765 101.51C214.054 101.193 214.423 100.959 214.871 100.81C214.497 100.605 214.311 100.325 214.311 99.97C214.311 99.7833 214.353 99.6387 214.437 99.536C214.521 99.4333 214.642 99.3213 214.801 99.2C214.502 99.0507 214.25 98.8173 214.045 98.5C213.849 98.1827 213.751 97.8093 213.751 97.38C213.751 95.98 214.637 95.28 216.411 95.28H219.001V95.63L218.091 95.77V95.84C218.38 95.9893 218.613 96.1993 218.791 96.47C218.977 96.7313 219.071 97.0347 219.071 97.38C219.071 98.78 218.184 99.48 216.411 99.48C215.431 99.48 214.941 99.6433 214.941 99.97C214.941 100.297 215.431 100.46 216.411 100.46C217.316 100.46 218.053 100.642 218.623 101.006C219.201 101.361 219.491 101.902 219.491 102.63C219.491 103.386 219.211 103.937 218.651 104.282C218.1 104.627 217.353 104.8 216.411 104.8ZM216.411 98.99C216.831 98.99 217.167 98.864 217.419 98.612C217.68 98.3507 217.811 97.94 217.811 97.38C217.811 96.848 217.68 96.4467 217.419 96.176C217.167 95.9053 216.831 95.77 216.411 95.77C215.991 95.77 215.65 95.9007 215.389 96.162C215.137 96.414 215.011 96.82 215.011 97.38C215.011 97.94 215.137 98.3507 215.389 98.612C215.65 98.864 215.991 98.99 216.411 98.99ZM216.411 104.24C216.971 104.24 217.414 104.105 217.741 103.834C218.067 103.573 218.231 103.171 218.231 102.63C218.231 101.697 217.671 101.16 216.551 101.02L215.781 100.95C215.398 101.099 215.104 101.309 214.899 101.58C214.693 101.851 214.591 102.201 214.591 102.63C214.591 103.171 214.754 103.573 215.081 103.834C215.407 104.105 215.851 104.24 216.411 104.24ZM221.607 94.58C221.393 94.58 221.206 94.4913 221.047 94.314C220.898 94.1367 220.823 93.9267 220.823 93.684C220.823 93.488 220.879 93.334 220.991 93.222C221.113 93.11 221.271 93.054 221.467 93.054C221.682 93.054 221.864 93.1427 222.013 93.32C222.172 93.4973 222.251 93.7073 222.251 93.95C222.251 94.146 222.191 94.3 222.069 94.412C221.957 94.524 221.803 94.58 221.607 94.58ZM221.075 97.1C221.075 96.624 221.01 96.274 220.879 96.05C220.749 95.8167 220.487 95.7 220.095 95.7H219.815V95.42H221.075C221.421 95.42 221.677 95.4667 221.845 95.56C222.023 95.644 222.149 95.8027 222.223 96.036C222.298 96.2693 222.335 96.624 222.335 97.1V102H221.075V97.1ZM227.013 102.14C226.341 102.14 225.771 101.991 225.305 101.692C224.847 101.384 224.502 100.973 224.269 100.46C224.045 99.9373 223.933 99.354 223.933 98.71C223.933 98.066 224.045 97.4873 224.269 96.974C224.502 96.4513 224.847 96.0407 225.305 95.742C225.771 95.434 226.341 95.28 227.013 95.28C228.039 95.28 228.716 95.4433 229.043 95.77C229.201 95.9287 229.299 96.1247 229.337 96.358C229.374 96.582 229.393 96.9927 229.393 97.59H229.113C229.075 97.0113 228.893 96.5773 228.567 96.288C228.24 95.9893 227.815 95.84 227.293 95.84C226.621 95.84 226.112 96.106 225.767 96.638C225.431 97.17 225.263 97.8607 225.263 98.71C225.263 99.5593 225.431 100.25 225.767 100.782C226.112 101.314 226.621 101.58 227.293 101.58C227.769 101.58 228.161 101.491 228.469 101.314C228.777 101.127 229.061 100.843 229.323 100.46L229.603 100.67C229.295 101.193 228.931 101.571 228.511 101.804C228.091 102.028 227.591 102.14 227.013 102.14ZM232.646 102.14C232.348 102.14 232.044 102.079 231.736 101.958C231.428 101.827 231.162 101.617 230.938 101.328C230.724 101.039 230.616 100.656 230.616 100.18C230.616 99.4707 230.943 98.9667 231.596 98.668C232.259 98.3693 233.122 98.22 234.186 98.22H234.606C234.606 97.3053 234.48 96.68 234.228 96.344C233.976 96.008 233.612 95.84 233.136 95.84C232.716 95.84 232.38 95.9287 232.128 96.106C231.876 96.2833 231.699 96.5913 231.596 97.03H230.966C230.966 96.7127 230.985 96.4653 231.022 96.288C231.06 96.1013 231.158 95.9287 231.316 95.77C231.484 95.602 231.76 95.4807 232.142 95.406C232.534 95.322 232.959 95.28 233.416 95.28C234.172 95.28 234.77 95.4853 235.208 95.896C235.647 96.2973 235.866 97.072 235.866 98.22V102H235.166L234.676 101.37H234.606C234.438 101.585 234.191 101.767 233.864 101.916C233.538 102.065 233.132 102.14 232.646 102.14ZM233.276 101.51C233.584 101.51 233.841 101.435 234.046 101.286C234.252 101.137 234.438 100.931 234.606 100.67V98.78H234.186C233.496 98.78 232.95 98.9107 232.548 99.172C232.147 99.424 231.946 99.76 231.946 100.18C231.946 100.609 232.072 100.941 232.324 101.174C232.586 101.398 232.903 101.51 233.276 101.51ZM237.875 94.44C237.875 93.964 237.809 93.614 237.679 93.39C237.548 93.1567 237.287 93.04 236.895 93.04H236.615V92.76H237.875C238.22 92.76 238.477 92.8067 238.645 92.9C238.822 92.984 238.948 93.1427 239.023 93.376C239.097 93.6093 239.135 93.964 239.135 94.44V102H237.875V94.44ZM244.821 97.1C244.821 96.624 244.756 96.274 244.625 96.05C244.495 95.8167 244.233 95.7 243.841 95.7H243.701V95.42H244.821C245.176 95.42 245.442 95.4713 245.619 95.574C245.806 95.6673 245.937 95.826 246.011 96.05H246.081C246.249 95.8353 246.473 95.6533 246.753 95.504C247.043 95.3547 247.379 95.28 247.761 95.28C248.135 95.28 248.415 95.35 248.601 95.49C248.76 95.6113 248.923 95.8213 249.091 96.12L248.531 96.54C248.429 96.4 248.279 96.2973 248.083 96.232C247.887 96.1573 247.663 96.12 247.411 96.12C247.131 96.12 246.875 96.1853 246.641 96.316C246.408 96.4373 246.221 96.6053 246.081 96.82V102H244.821V97.1ZM252.713 102.14C252.078 102.14 251.541 101.991 251.103 101.692C250.664 101.384 250.333 100.973 250.109 100.46C249.885 99.9373 249.773 99.354 249.773 98.71C249.773 98.0753 249.885 97.4967 250.109 96.974C250.333 96.4513 250.655 96.0407 251.075 95.742C251.504 95.434 252.003 95.28 252.573 95.28C253.515 95.28 254.215 95.546 254.673 96.078C255.139 96.6007 255.373 97.3613 255.373 98.36L255.345 98.92H251.103C251.103 99.704 251.271 100.343 251.607 100.838C251.943 101.333 252.405 101.58 252.993 101.58C253.431 101.58 253.8 101.487 254.099 101.3C254.407 101.113 254.691 100.833 254.953 100.46L255.233 100.67C254.925 101.183 254.565 101.557 254.155 101.79C253.744 102.023 253.263 102.14 252.713 102.14ZM254.043 98.36C254.043 97.5387 253.921 96.9133 253.679 96.484C253.436 96.0547 253.067 95.84 252.573 95.84C252.293 95.84 252.041 95.952 251.817 96.176C251.593 96.3907 251.415 96.6893 251.285 97.072C251.163 97.4547 251.103 97.884 251.103 98.36H254.043ZM258.555 102.14C258.256 102.14 257.953 102.079 257.645 101.958C257.337 101.827 257.071 101.617 256.847 101.328C256.632 101.039 256.525 100.656 256.525 100.18C256.525 99.4707 256.851 98.9667 257.505 98.668C258.167 98.3693 259.031 98.22 260.095 98.22H260.515C260.515 97.3053 260.389 96.68 260.137 96.344C259.885 96.008 259.521 95.84 259.045 95.84C258.625 95.84 258.289 95.9287 258.037 96.106C257.785 96.2833 257.607 96.5913 257.505 97.03H256.875C256.875 96.7127 256.893 96.4653 256.931 96.288C256.968 96.1013 257.066 95.9287 257.225 95.77C257.393 95.602 257.668 95.4807 258.051 95.406C258.443 95.322 258.867 95.28 259.325 95.28C260.081 95.28 260.678 95.4853 261.117 95.896C261.555 96.2973 261.775 97.072 261.775 98.22V102H261.075L260.585 101.37H260.515C260.347 101.585 260.099 101.767 259.773 101.916C259.446 102.065 259.04 102.14 258.555 102.14ZM259.185 101.51C259.493 101.51 259.749 101.435 259.955 101.286C260.16 101.137 260.347 100.931 260.515 100.67V98.78H260.095C259.404 98.78 258.858 98.9107 258.457 99.172C258.055 99.424 257.855 99.76 257.855 100.18C257.855 100.609 257.981 100.941 258.233 101.174C258.494 101.398 258.811 101.51 259.185 101.51ZM265.925 102.14C264.851 102.14 264.128 101.953 263.755 101.58C263.596 101.421 263.498 101.244 263.461 101.048C263.423 100.843 263.405 100.53 263.405 100.11H263.685C263.769 100.577 263.969 100.941 264.287 101.202C264.613 101.454 265.066 101.58 265.645 101.58C266.158 101.58 266.541 101.491 266.793 101.314C267.054 101.137 267.185 100.899 267.185 100.6C267.185 100.329 267.082 100.096 266.877 99.9C266.681 99.704 266.363 99.5173 265.925 99.34L265.085 98.99C264.525 98.766 264.105 98.5047 263.825 98.206C263.545 97.9073 263.405 97.5387 263.405 97.1C263.405 96.5307 263.619 96.0873 264.049 95.77C264.478 95.4433 265.033 95.28 265.715 95.28C266.741 95.28 267.441 95.4667 267.815 95.84C267.973 95.9987 268.071 96.176 268.109 96.372C268.146 96.568 268.165 96.8807 268.165 97.31H267.885C267.81 96.8433 267.614 96.484 267.297 96.232C266.979 95.9707 266.545 95.84 265.995 95.84C265.556 95.84 265.211 95.9333 264.959 96.12C264.716 96.2973 264.595 96.5307 264.595 96.82C264.595 97.3053 264.968 97.702 265.715 98.01L266.555 98.36C267.189 98.6213 267.651 98.9013 267.941 99.2C268.23 99.4893 268.375 99.8627 268.375 100.32C268.375 100.889 268.146 101.337 267.689 101.664C267.231 101.981 266.643 102.14 265.925 102.14ZM272.677 102.14C272.042 102.14 271.491 101.991 271.025 101.692C270.558 101.384 270.203 100.969 269.961 100.446C269.718 99.9233 269.597 99.3447 269.597 98.71C269.597 98.0753 269.718 97.4967 269.961 96.974C270.203 96.4513 270.558 96.0407 271.025 95.742C271.491 95.434 272.042 95.28 272.677 95.28C273.311 95.28 273.862 95.434 274.329 95.742C274.795 96.0407 275.15 96.4513 275.393 96.974C275.635 97.4967 275.757 98.0753 275.757 98.71C275.757 99.3447 275.635 99.9233 275.393 100.446C275.15 100.969 274.795 101.384 274.329 101.692C273.862 101.991 273.311 102.14 272.677 102.14ZM272.677 101.58C273.022 101.58 273.325 101.454 273.587 101.202C273.857 100.95 274.063 100.605 274.203 100.166C274.352 99.7273 274.427 99.242 274.427 98.71C274.427 98.178 274.352 97.6927 274.203 97.254C274.063 96.8153 273.857 96.47 273.587 96.218C273.325 95.966 273.022 95.84 272.677 95.84C272.331 95.84 272.023 95.966 271.753 96.218C271.491 96.47 271.286 96.8153 271.137 97.254C270.997 97.6927 270.927 98.178 270.927 98.71C270.927 99.242 270.997 99.7273 271.137 100.166C271.286 100.605 271.491 100.95 271.753 101.202C272.023 101.454 272.331 101.58 272.677 101.58ZM277.609 97.1C277.609 96.624 277.543 96.274 277.413 96.05C277.282 95.8167 277.021 95.7 276.629 95.7H276.349V95.42H277.609C277.954 95.42 278.215 95.4667 278.393 95.56C278.579 95.6533 278.715 95.7933 278.799 95.98H278.869C279.065 95.784 279.317 95.6207 279.625 95.49C279.942 95.35 280.297 95.28 280.689 95.28C281.389 95.28 281.958 95.4667 282.397 95.84C282.845 96.2133 283.069 96.8667 283.069 97.8V102H281.809V97.8C281.809 97.1467 281.659 96.6707 281.361 96.372C281.071 96.064 280.707 95.91 280.269 95.91C279.774 95.91 279.307 96.1573 278.869 96.652V102H277.609V97.1ZM285.756 94.58C285.541 94.58 285.355 94.4913 285.196 94.314C285.047 94.1367 284.972 93.9267 284.972 93.684C284.972 93.488 285.028 93.334 285.14 93.222C285.261 93.11 285.42 93.054 285.616 93.054C285.831 93.054 286.013 93.1427 286.162 93.32C286.321 93.4973 286.4 93.7073 286.4 93.95C286.4 94.146 286.339 94.3 286.218 94.412C286.106 94.524 285.952 94.58 285.756 94.58ZM285.224 97.1C285.224 96.624 285.159 96.274 285.028 96.05C284.897 95.8167 284.636 95.7 284.244 95.7H283.964V95.42H285.224C285.569 95.42 285.826 95.4667 285.994 95.56C286.171 95.644 286.297 95.8027 286.372 96.036C286.447 96.2693 286.484 96.624 286.484 97.1V102H285.224V97.1ZM288.669 97.1C288.669 96.624 288.604 96.274 288.473 96.05C288.343 95.8167 288.081 95.7 287.689 95.7H287.409V95.42H288.669C289.015 95.42 289.276 95.4667 289.453 95.56C289.64 95.6533 289.775 95.7933 289.859 95.98H289.929C290.125 95.784 290.377 95.6207 290.685 95.49C291.003 95.35 291.357 95.28 291.749 95.28C292.449 95.28 293.019 95.4667 293.457 95.84C293.905 96.2133 294.129 96.8667 294.129 97.8V102H292.869V97.8C292.869 97.1467 292.72 96.6707 292.421 96.372C292.132 96.064 291.768 95.91 291.329 95.91C290.835 95.91 290.368 96.1573 289.929 96.652V102H288.669V97.1ZM298.51 104.8C297.568 104.8 296.816 104.627 296.256 104.282C295.706 103.937 295.43 103.386 295.43 102.63C295.43 102.201 295.575 101.827 295.864 101.51C296.154 101.193 296.522 100.959 296.97 100.81C296.597 100.605 296.41 100.325 296.41 99.97C296.41 99.7833 296.452 99.6387 296.536 99.536C296.62 99.4333 296.742 99.3213 296.9 99.2C296.602 99.0507 296.35 98.8173 296.144 98.5C295.948 98.1827 295.85 97.8093 295.85 97.38C295.85 95.98 296.737 95.28 298.51 95.28H301.1V95.63L300.19 95.77V95.84C300.48 95.9893 300.713 96.1993 300.89 96.47C301.077 96.7313 301.17 97.0347 301.17 97.38C301.17 98.78 300.284 99.48 298.51 99.48C297.53 99.48 297.04 99.6433 297.04 99.97C297.04 100.297 297.53 100.46 298.51 100.46C299.416 100.46 300.153 100.642 300.722 101.006C301.301 101.361 301.59 101.902 301.59 102.63C301.59 103.386 301.31 103.937 300.75 104.282C300.2 104.627 299.453 104.8 298.51 104.8ZM298.51 98.99C298.93 98.99 299.266 98.864 299.518 98.612C299.78 98.3507 299.91 97.94 299.91 97.38C299.91 96.848 299.78 96.4467 299.518 96.176C299.266 95.9053 298.93 95.77 298.51 95.77C298.09 95.77 297.75 95.9007 297.488 96.162C297.236 96.414 297.11 96.82 297.11 97.38C297.11 97.94 297.236 98.3507 297.488 98.612C297.75 98.864 298.09 98.99 298.51 98.99ZM298.51 104.24C299.07 104.24 299.514 104.105 299.84 103.834C300.167 103.573 300.33 103.171 300.33 102.63C300.33 101.697 299.77 101.16 298.65 101.02L297.88 100.95C297.498 101.099 297.204 101.309 296.998 101.58C296.793 101.851 296.69 102.201 296.69 102.63C296.69 103.171 296.854 103.573 297.18 103.834C297.507 104.105 297.95 104.24 298.51 104.24Z" fill="#565656"/>
<defs>
<clipPath id="clip0_8755_262">
<rect width="36" height="36" fill="white" transform="translate(51.5)"/>
</clipPath>
</defs>
</svg>
