<svg width="297" height="107" viewBox="0 0 297 107" fill="none" xmlns="http://www.w3.org/2000/svg">
<path d="M91.963 14.9808H95.8822C97.6145 14.9808 99.2762 14.2924 100.501 13.0674C101.726 11.8423 102.414 10.181 102.414 8.44852V5.3999H95.8822C94.1498 5.3999 92.4881 6.08825 91.2633 7.31331C90.0382 8.53842 89.3499 10.1997 89.3499 11.9322V14.5452C88.2207 13.6944 86.8444 13.2357 85.4307 13.2387H78.8984V16.287C78.8984 18.0197 79.5865 19.6811 80.8116 20.9061C82.0367 22.1311 83.6983 22.8193 85.4307 22.8193H89.3499V32.3999H91.963V28.916H95.8822C97.6145 28.916 99.2762 28.2276 100.501 27.0025C101.726 25.7778 102.414 24.1161 102.414 22.3837V19.3354H95.8822C94.4684 19.332 93.092 19.7907 91.963 20.6416V14.9808ZM91.963 11.9325V11.9322C91.963 10.8927 92.3758 9.89597 93.1109 9.16086C93.8457 8.42574 94.8427 8.01289 95.8822 8.01289H99.8014V8.4485H99.8017C99.8017 9.48798 99.3886 10.4847 98.6538 11.2198C97.9186 11.9549 96.9217 12.3678 95.8821 12.3678H91.9629L91.963 11.9325ZM85.4307 20.2067C84.3912 20.2067 83.3942 19.7935 82.6591 19.0587C81.9243 18.3236 81.5111 17.3266 81.5111 16.2871V15.8518H85.4306C86.4701 15.8518 87.4671 16.2646 88.2019 16.9997C88.937 17.7346 89.3499 18.7316 89.3499 19.7711V20.2067L85.4307 20.2067ZM95.8823 21.9484H99.8015V22.3841H99.8018C99.8018 23.4235 99.3887 24.4206 98.6538 25.1554C97.9187 25.8905 96.9218 26.3033 95.8822 26.3033H91.963V25.868C91.963 24.8285 92.3758 23.8315 93.111 23.0964C93.8458 22.3616 94.8428 21.9484 95.8823 21.9484L95.8823 21.9484Z" fill="#2B2F34"/>
<path d="M121.66 6.008C122.457 5.852 123.229 5.73067 123.974 5.644C124.719 5.54 125.569 5.488 126.522 5.488C127.926 5.488 129.079 5.70467 129.98 6.138C130.899 6.554 131.583 7.10867 132.034 7.802C132.485 8.478 132.71 9.206 132.71 9.986C132.71 11.1647 132.381 12.1267 131.722 12.872C131.063 13.6 130.093 14.1547 128.81 14.536C129.781 14.9 130.578 15.42 131.202 16.096C131.826 16.772 132.138 17.6473 132.138 18.722C132.138 19.97 131.765 21.01 131.02 21.842C130.275 22.674 129.287 23.298 128.056 23.714C126.843 24.1127 125.525 24.312 124.104 24.312C122.873 24.312 121.799 24.2167 120.88 24.026C119.961 23.8527 119.199 23.6707 118.592 23.48L121.66 6.008ZM126.418 7.438C125.881 7.438 125.404 7.45533 124.988 7.49C124.572 7.52467 124.191 7.57667 123.844 7.646L122.778 13.652H125.326C127.007 13.652 128.255 13.3227 129.07 12.664C129.885 11.988 130.292 11.208 130.292 10.324C130.292 9.50933 129.963 8.82467 129.304 8.27C128.663 7.71533 127.701 7.438 126.418 7.438ZM122.44 15.576L121.348 21.894C122.267 22.1367 123.246 22.258 124.286 22.258C125.985 22.258 127.293 21.9373 128.212 21.296C129.148 20.6373 129.616 19.8053 129.616 18.8C129.616 18.2107 129.451 17.6733 129.122 17.188C128.793 16.7027 128.264 16.3127 127.536 16.018C126.825 15.7233 125.881 15.576 124.702 15.576H122.44ZM140.333 24.312C139.189 24.312 138.175 24.0693 137.291 23.584C136.424 23.0813 135.74 22.3707 135.237 21.452C134.752 20.516 134.509 19.4153 134.509 18.15C134.509 16.7113 134.804 15.3853 135.393 14.172C136 12.9587 136.849 11.988 137.941 11.26C139.05 10.532 140.342 10.168 141.815 10.168C142.82 10.168 143.67 10.3587 144.363 10.74C145.074 11.1213 145.62 11.6153 146.001 12.222C146.382 12.8287 146.573 13.4787 146.573 14.172C146.573 15.1253 146.348 15.914 145.897 16.538C145.446 17.162 144.866 17.6473 144.155 17.994C143.444 18.3233 142.673 18.5573 141.841 18.696C141.026 18.8347 140.246 18.904 139.501 18.904C139.033 18.904 138.565 18.8867 138.097 18.852C137.646 18.8 137.248 18.748 136.901 18.696C137.04 19.84 137.447 20.7153 138.123 21.322C138.799 21.9287 139.666 22.232 140.723 22.232C141.59 22.232 142.361 22.1193 143.037 21.894C143.713 21.6687 144.285 21.4433 144.753 21.218L144.961 23.298C144.441 23.5407 143.782 23.7747 142.985 24C142.188 24.208 141.304 24.312 140.333 24.312ZM141.633 12.144C140.818 12.144 140.082 12.352 139.423 12.768C138.764 13.1667 138.218 13.7213 137.785 14.432C137.369 15.1253 137.092 15.9227 136.953 16.824C137.352 16.8933 137.75 16.954 138.149 17.006C138.565 17.0407 139.016 17.058 139.501 17.058C140.957 17.058 142.11 16.8587 142.959 16.46C143.808 16.044 144.233 15.342 144.233 14.354C144.233 13.7473 143.99 13.2273 143.505 12.794C143.037 12.3607 142.413 12.144 141.633 12.144ZM156.546 10.168C157.569 10.168 158.47 10.272 159.25 10.48C160.03 10.688 160.671 10.896 161.174 11.104L158.912 24.156C158.704 25.352 158.383 26.3313 157.95 27.094C157.534 27.8567 157.04 28.446 156.468 28.862C155.913 29.2953 155.324 29.5987 154.7 29.772C154.076 29.9453 153.461 30.032 152.854 30.032C151.675 30.032 150.67 29.7893 149.838 29.304C149.023 28.8187 148.356 28.2553 147.836 27.614L149.656 26.262C150.505 27.4233 151.623 28.004 153.01 28.004C153.877 28.004 154.639 27.6833 155.298 27.042C155.957 26.4007 156.425 25.3087 156.702 23.766L157.144 21.218C156.659 21.998 156.052 22.6567 155.324 23.194C154.613 23.7313 153.807 24 152.906 24C152.074 24 151.277 23.792 150.514 23.376C149.769 22.96 149.153 22.3533 148.668 21.556C148.2 20.7587 147.966 19.7793 147.966 18.618C147.966 16.9367 148.339 15.4633 149.084 14.198C149.829 12.9327 150.852 11.9447 152.152 11.234C153.452 10.5233 154.917 10.168 156.546 10.168ZM150.358 18.358C150.358 19.138 150.505 19.7967 150.8 20.334C151.112 20.854 151.511 21.2527 151.996 21.53C152.481 21.79 152.993 21.92 153.53 21.92C154.189 21.92 154.813 21.686 155.402 21.218C155.991 20.75 156.503 20.0913 156.936 19.242C157.387 18.3927 157.716 17.396 157.924 16.252L158.6 12.482C158.271 12.378 157.924 12.3 157.56 12.248C157.196 12.1787 156.771 12.144 156.286 12.144C155.125 12.144 154.093 12.4213 153.192 12.976C152.308 13.5133 151.615 14.25 151.112 15.186C150.609 16.122 150.358 17.1793 150.358 18.358ZM167.054 8.166C166.568 8.166 166.196 8.02733 165.936 7.75C165.693 7.45533 165.572 7.11733 165.572 6.736C165.572 6.18133 165.745 5.73933 166.092 5.41C166.438 5.06333 166.872 4.89 167.392 4.89C167.877 4.89 168.241 5.03733 168.484 5.332C168.744 5.60933 168.874 5.93867 168.874 6.32C168.874 6.85733 168.7 7.29933 168.354 7.646C168.007 7.99267 167.574 8.166 167.054 8.166ZM165.312 24H162.972L165.338 10.48H167.678L165.312 24ZM178.126 12.222C177.519 12.222 176.861 12.4473 176.15 12.898C175.439 13.3487 174.781 14.0507 174.174 15.004C173.585 15.94 173.16 17.1447 172.9 18.618L171.964 24H169.624L171.99 10.48H174.252L173.68 13.6C174.217 12.56 174.937 11.728 175.838 11.104C176.757 10.48 177.719 10.168 178.724 10.168C179.903 10.168 180.847 10.532 181.558 11.26C182.269 11.9707 182.624 12.846 182.624 13.886C182.624 14.3193 182.572 14.8653 182.468 15.524L180.986 24H178.646L180.076 15.914C180.163 15.498 180.215 15.1947 180.232 15.004C180.249 14.796 180.258 14.6053 180.258 14.432C180.258 13.756 180.059 13.2187 179.66 12.82C179.279 12.4213 178.767 12.222 178.126 12.222ZM193.437 12.222C192.83 12.222 192.171 12.4473 191.461 12.898C190.75 13.3487 190.091 14.0507 189.485 15.004C188.895 15.94 188.471 17.1447 188.211 18.618L187.275 24H184.935L187.301 10.48H189.563L188.991 13.6C189.528 12.56 190.247 11.728 191.149 11.104C192.067 10.48 193.029 10.168 194.035 10.168C195.213 10.168 196.158 10.532 196.869 11.26C197.579 11.9707 197.935 12.846 197.935 13.886C197.935 14.3193 197.883 14.8653 197.779 15.524L196.297 24H193.957L195.387 15.914C195.473 15.498 195.525 15.1947 195.543 15.004C195.56 14.796 195.569 14.6053 195.569 14.432C195.569 13.756 195.369 13.2187 194.971 12.82C194.589 12.4213 194.078 12.222 193.437 12.222ZM206.069 24.312C204.925 24.312 203.911 24.0693 203.027 23.584C202.161 23.0813 201.476 22.3707 200.973 21.452C200.488 20.516 200.245 19.4153 200.245 18.15C200.245 16.7113 200.54 15.3853 201.129 14.172C201.736 12.9587 202.585 11.988 203.677 11.26C204.787 10.532 206.078 10.168 207.551 10.168C208.557 10.168 209.406 10.3587 210.099 10.74C210.81 11.1213 211.356 11.6153 211.737 12.222C212.119 12.8287 212.309 13.4787 212.309 14.172C212.309 15.1253 212.084 15.914 211.633 16.538C211.183 17.162 210.602 17.6473 209.891 17.994C209.181 18.3233 208.409 18.5573 207.577 18.696C206.763 18.8347 205.983 18.904 205.237 18.904C204.769 18.904 204.301 18.8867 203.833 18.852C203.383 18.8 202.984 18.748 202.637 18.696C202.776 19.84 203.183 20.7153 203.859 21.322C204.535 21.9287 205.402 22.232 206.459 22.232C207.326 22.232 208.097 22.1193 208.773 21.894C209.449 21.6687 210.021 21.4433 210.489 21.218L210.697 23.298C210.177 23.5407 209.519 23.7747 208.721 24C207.924 24.208 207.04 24.312 206.069 24.312ZM207.369 12.144C206.555 12.144 205.818 12.352 205.159 12.768C204.501 13.1667 203.955 13.7213 203.521 14.432C203.105 15.1253 202.828 15.9227 202.689 16.824C203.088 16.8933 203.487 16.954 203.885 17.006C204.301 17.0407 204.752 17.058 205.237 17.058C206.693 17.058 207.846 16.8587 208.695 16.46C209.545 16.044 209.969 15.342 209.969 14.354C209.969 13.7473 209.727 13.2273 209.241 12.794C208.773 12.3607 208.149 12.144 207.369 12.144ZM215.808 14.276C215.826 14.1893 215.834 14.094 215.834 13.99C215.852 13.8687 215.86 13.7473 215.86 13.626C215.86 13.1407 215.722 12.8027 215.444 12.612C215.167 12.404 214.803 12.3 214.352 12.3L215.158 10.48C216.077 10.48 216.779 10.7053 217.264 11.156C217.767 11.5893 218.018 12.2393 218.018 13.106V13.626C218.521 12.3953 219.162 11.5113 219.942 10.974C220.74 10.4367 221.641 10.168 222.646 10.168C223.045 10.168 223.383 10.2027 223.66 10.272C223.955 10.324 224.198 10.3933 224.388 10.48L223.348 12.768C223.14 12.6813 222.924 12.6207 222.698 12.586C222.473 12.5513 222.213 12.534 221.918 12.534C221.294 12.534 220.67 12.7593 220.046 13.21C219.44 13.6433 218.885 14.3713 218.382 15.394C217.897 16.4167 217.498 17.8207 217.186 19.606L216.432 24H214.092L215.808 14.276Z" fill="#2B2F34"/>
<rect x="6.5" y="48" width="148" height="26" rx="7" fill="#E0F3FF"/>
<path d="M23.306 58.16L21.948 59.042L21.696 58.72L23.866 56.76H24.566V66H23.306V58.16ZM29.8536 66.28C27.6136 66.28 26.4936 64.6467 26.4936 61.38C26.4936 58.1133 27.6136 56.48 29.8536 56.48C32.0936 56.48 33.2136 58.1133 33.2136 61.38C33.2136 64.6467 32.0936 66.28 29.8536 66.28ZM29.8536 65.72C30.3576 65.72 30.7496 65.566 31.0296 65.258C31.319 64.95 31.5196 64.4833 31.6316 63.858C31.753 63.2233 31.8136 62.3973 31.8136 61.38C31.8136 60.3627 31.753 59.5413 31.6316 58.916C31.5196 58.2813 31.319 57.81 31.0296 57.502C30.7496 57.194 30.3576 57.04 29.8536 57.04C29.3496 57.04 28.953 57.194 28.6636 57.502C28.3836 57.81 28.183 58.2813 28.0616 58.916C27.9496 59.5413 27.8936 60.3627 27.8936 61.38C27.8936 62.3973 27.9496 63.2233 28.0616 63.858C28.183 64.4833 28.3836 64.95 28.6636 65.258C28.953 65.566 29.3496 65.72 29.8536 65.72ZM38.0294 66.28C35.7894 66.28 34.6694 64.6467 34.6694 61.38C34.6694 58.1133 35.7894 56.48 38.0294 56.48C40.2694 56.48 41.3894 58.1133 41.3894 61.38C41.3894 64.6467 40.2694 66.28 38.0294 66.28ZM38.0294 65.72C38.5334 65.72 38.9254 65.566 39.2054 65.258C39.4947 64.95 39.6954 64.4833 39.8074 63.858C39.9287 63.2233 39.9894 62.3973 39.9894 61.38C39.9894 60.3627 39.9287 59.5413 39.8074 58.916C39.6954 58.2813 39.4947 57.81 39.2054 57.502C38.9254 57.194 38.5334 57.04 38.0294 57.04C37.5254 57.04 37.1287 57.194 36.8394 57.502C36.5594 57.81 36.3587 58.2813 36.2374 58.916C36.1254 59.5413 36.0694 60.3627 36.0694 61.38C36.0694 62.3973 36.1254 63.2233 36.2374 63.858C36.3587 64.4833 36.5594 64.95 36.8394 65.258C37.1287 65.566 37.5254 65.72 38.0294 65.72ZM44.5952 60.47C43.9605 60.47 43.4612 60.3067 43.0972 59.98C42.7425 59.644 42.5652 59.1773 42.5652 58.58C42.5652 57.9827 42.7425 57.5207 43.0972 57.194C43.4612 56.858 43.9605 56.69 44.5952 56.69C45.2299 56.69 45.7245 56.858 46.0792 57.194C46.4432 57.5207 46.6252 57.9827 46.6252 58.58C46.6252 59.1773 46.4432 59.644 46.0792 59.98C45.7245 60.3067 45.2299 60.47 44.5952 60.47ZM44.5952 59.98C45.3885 59.98 45.7852 59.5133 45.7852 58.58C45.7852 57.6467 45.3885 57.18 44.5952 57.18C43.8019 57.18 43.4052 57.6467 43.4052 58.58C43.4052 59.5133 43.8019 59.98 44.5952 59.98ZM49.0752 66.07C48.4405 66.07 47.9412 65.9067 47.5772 65.58C47.2225 65.244 47.0452 64.7773 47.0452 64.18C47.0452 63.5827 47.2225 63.1207 47.5772 62.794C47.9412 62.458 48.4405 62.29 49.0752 62.29C49.7099 62.29 50.2045 62.458 50.5592 62.794C50.9232 63.1207 51.1052 63.5827 51.1052 64.18C51.1052 64.7773 50.9232 65.244 50.5592 65.58C50.2045 65.9067 49.7099 66.07 49.0752 66.07ZM49.0752 65.58C49.8685 65.58 50.2652 65.1133 50.2652 64.18C50.2652 63.2467 49.8685 62.78 49.0752 62.78C48.2819 62.78 47.8852 63.2467 47.8852 64.18C47.8852 65.1133 48.2819 65.58 49.0752 65.58ZM49.4952 56.76H50.5452L44.1752 66H43.1252L49.4952 56.76ZM54.9248 67.638C55.3728 67.638 55.7041 67.4 55.9188 66.924C56.1428 66.448 56.2548 65.776 56.2548 64.908V56.76H57.5148V64.908C57.5148 65.636 57.4354 66.2147 57.2768 66.644C57.1274 67.0827 56.8661 67.4047 56.4928 67.61C56.1194 67.8153 55.5968 67.918 54.9248 67.918V67.638ZM62.3155 66.14C61.6808 66.14 61.1301 65.9907 60.6635 65.692C60.1968 65.384 59.8421 64.9687 59.5995 64.446C59.3568 63.9233 59.2355 63.3447 59.2355 62.71C59.2355 62.0753 59.3568 61.4967 59.5995 60.974C59.8421 60.4513 60.1968 60.0407 60.6635 59.742C61.1301 59.434 61.6808 59.28 62.3155 59.28C62.9501 59.28 63.5008 59.434 63.9675 59.742C64.4341 60.0407 64.7888 60.4513 65.0315 60.974C65.2741 61.4967 65.3955 62.0753 65.3955 62.71C65.3955 63.3447 65.2741 63.9233 65.0315 64.446C64.7888 64.9687 64.4341 65.384 63.9675 65.692C63.5008 65.9907 62.9501 66.14 62.3155 66.14ZM62.3155 65.58C62.6608 65.58 62.9641 65.454 63.2255 65.202C63.4961 64.95 63.7015 64.6047 63.8415 64.166C63.9908 63.7273 64.0655 63.242 64.0655 62.71C64.0655 62.178 63.9908 61.6927 63.8415 61.254C63.7015 60.8153 63.4961 60.47 63.2255 60.218C62.9641 59.966 62.6608 59.84 62.3155 59.84C61.9701 59.84 61.6621 59.966 61.3915 60.218C61.1301 60.47 60.9248 60.8153 60.7755 61.254C60.6355 61.6927 60.5655 62.178 60.5655 62.71C60.5655 63.242 60.6355 63.7273 60.7755 64.166C60.9248 64.6047 61.1301 64.95 61.3915 65.202C61.6621 65.454 61.9701 65.58 62.3155 65.58ZM70.1873 66.14C69.7113 66.14 69.3193 66.0653 69.0113 65.916C68.7033 65.7667 68.4653 65.5847 68.2973 65.37H68.2273L67.7373 66H67.0373V58.44C67.0373 57.964 66.972 57.614 66.8413 57.39C66.7106 57.1567 66.4493 57.04 66.0573 57.04H65.7773V56.76H67.0373C67.3826 56.76 67.6393 56.8067 67.8073 56.9C67.9846 56.984 68.1106 57.1427 68.1853 57.376C68.26 57.6093 68.2973 57.964 68.2973 58.44V59.7C68.568 59.5693 68.8386 59.4667 69.1093 59.392C69.38 59.3173 69.6926 59.28 70.0473 59.28C70.9153 59.28 71.5733 59.602 72.0213 60.246C72.4786 60.89 72.7073 61.7113 72.7073 62.71C72.7073 63.6993 72.488 64.5207 72.0493 65.174C71.6106 65.818 70.99 66.14 70.1873 66.14ZM69.7673 65.58C70.2993 65.58 70.7006 65.3187 70.9713 64.796C71.242 64.264 71.3773 63.5687 71.3773 62.71C71.3773 61.842 71.2326 61.1467 70.9433 60.624C70.6633 60.1013 70.2246 59.84 69.6273 59.84C69.4313 59.84 69.2306 59.8773 69.0253 59.952C68.82 60.0267 68.5773 60.1293 68.2973 60.26V64.74C68.4653 64.992 68.6613 65.1973 68.8853 65.356C69.1186 65.5053 69.4126 65.58 69.7673 65.58ZM82.2334 66.28C81.3188 66.28 80.4974 66.056 79.7694 65.608C79.0508 65.16 78.4861 64.5533 78.0754 63.788C77.6741 63.0133 77.4734 62.164 77.4734 61.24C77.4734 60.3533 77.6508 59.5507 78.0054 58.832C78.3601 58.104 78.8641 57.53 79.5174 57.11C80.1801 56.69 80.9454 56.48 81.8134 56.48C82.6161 56.48 83.3068 56.5873 83.8854 56.802C84.4734 57.0073 84.9028 57.2733 85.1734 57.6C85.3228 57.7867 85.4161 58.034 85.4534 58.342C85.5001 58.65 85.5234 59.0327 85.5234 59.49H85.2434C85.0661 58.6687 84.7301 58.0573 84.2354 57.656C83.7408 57.2453 83.0734 57.04 82.2334 57.04C81.4774 57.04 80.8474 57.2407 80.3434 57.642C79.8394 58.034 79.4661 58.5473 79.2234 59.182C78.9901 59.8167 78.8734 60.5027 78.8734 61.24C78.8734 62.8173 79.1814 63.9607 79.7974 64.67C80.4134 65.37 81.2254 65.72 82.2334 65.72C82.7094 65.72 83.1154 65.678 83.4514 65.594C83.7874 65.51 84.1048 65.3887 84.4034 65.23V62.794C84.4034 62.4767 84.4548 62.2013 84.5574 61.968C84.6601 61.7347 84.8794 61.5433 85.2154 61.394C85.5608 61.2353 86.0601 61.156 86.7134 61.156V61.436C86.2934 61.436 86.0134 61.5433 85.8734 61.758C85.7334 61.9727 85.6634 62.3087 85.6634 62.766V65.398C85.1594 65.706 84.6321 65.93 84.0814 66.07C83.5308 66.21 82.9148 66.28 82.2334 66.28ZM89.5096 66.14C89.2109 66.14 88.9076 66.0793 88.5996 65.958C88.2916 65.8273 88.0256 65.6173 87.8016 65.328C87.5869 65.0387 87.4796 64.656 87.4796 64.18C87.4796 63.4707 87.8063 62.9667 88.4596 62.668C89.1223 62.3693 89.9856 62.22 91.0496 62.22H91.4696C91.4696 61.3053 91.3436 60.68 91.0916 60.344C90.8396 60.008 90.4756 59.84 89.9996 59.84C89.5796 59.84 89.2436 59.9287 88.9916 60.106C88.7396 60.2833 88.5623 60.5913 88.4596 61.03H87.8296C87.8296 60.7127 87.8483 60.4653 87.8856 60.288C87.9229 60.1013 88.0209 59.9287 88.1796 59.77C88.3476 59.602 88.6229 59.4807 89.0056 59.406C89.3976 59.322 89.8223 59.28 90.2796 59.28C91.0356 59.28 91.6329 59.4853 92.0716 59.896C92.5103 60.2973 92.7296 61.072 92.7296 62.22V66H92.0296L91.5396 65.37H91.4696C91.3016 65.5847 91.0543 65.7667 90.7276 65.916C90.4009 66.0653 89.9949 66.14 89.5096 66.14ZM90.1396 65.51C90.4476 65.51 90.7043 65.4353 90.9096 65.286C91.1149 65.1367 91.3016 64.9313 91.4696 64.67V62.78H91.0496C90.3589 62.78 89.8129 62.9107 89.4116 63.172C89.0103 63.424 88.8096 63.76 88.8096 64.18C88.8096 64.6093 88.9356 64.9407 89.1876 65.174C89.4489 65.398 89.7663 65.51 90.1396 65.51ZM97.0758 66.14C96.3758 66.14 95.8018 65.9533 95.3538 65.58C94.9152 65.2067 94.6958 64.5533 94.6958 63.62V61.1C94.6958 60.624 94.6305 60.274 94.4998 60.05C94.3692 59.8167 94.1078 59.7 93.7158 59.7H93.5758V59.42H94.6958C95.0412 59.42 95.2978 59.4667 95.4658 59.56C95.6432 59.644 95.7692 59.8027 95.8438 60.036C95.9185 60.2693 95.9558 60.624 95.9558 61.1V63.62C95.9558 64.2733 96.1005 64.754 96.3898 65.062C96.6885 65.3607 97.0572 65.51 97.4958 65.51C97.9905 65.51 98.4572 65.2627 98.8958 64.768V59.42H100.156V66H99.4558L98.9658 65.44H98.8958C98.6998 65.636 98.4432 65.804 98.1258 65.944C97.8178 66.0747 97.4678 66.14 97.0758 66.14ZM102.286 61.1C102.286 60.624 102.221 60.274 102.09 60.05C101.959 59.8167 101.698 59.7 101.306 59.7H101.166V59.42H102.286C102.641 59.42 102.907 59.4713 103.084 59.574C103.271 59.6673 103.401 59.826 103.476 60.05H103.546C103.714 59.8353 103.938 59.6533 104.218 59.504C104.507 59.3547 104.843 59.28 105.226 59.28C105.599 59.28 105.879 59.35 106.066 59.49C106.225 59.6113 106.388 59.8213 106.556 60.12L105.996 60.54C105.893 60.4 105.744 60.2973 105.548 60.232C105.352 60.1573 105.128 60.12 104.876 60.12C104.596 60.12 104.339 60.1853 104.106 60.316C103.873 60.4373 103.686 60.6053 103.546 60.82V66H102.286V61.1ZM109.306 66.14C109.008 66.14 108.704 66.0793 108.396 65.958C108.088 65.8273 107.822 65.6173 107.598 65.328C107.384 65.0387 107.276 64.656 107.276 64.18C107.276 63.4707 107.603 62.9667 108.256 62.668C108.919 62.3693 109.782 62.22 110.846 62.22H111.266C111.266 61.3053 111.14 60.68 110.888 60.344C110.636 60.008 110.272 59.84 109.796 59.84C109.376 59.84 109.04 59.9287 108.788 60.106C108.536 60.2833 108.359 60.5913 108.256 61.03H107.626C107.626 60.7127 107.645 60.4653 107.682 60.288C107.72 60.1013 107.818 59.9287 107.976 59.77C108.144 59.602 108.42 59.4807 108.802 59.406C109.194 59.322 109.619 59.28 110.076 59.28C110.832 59.28 111.43 59.4853 111.868 59.896C112.307 60.2973 112.526 61.072 112.526 62.22V66H111.826L111.336 65.37H111.266C111.098 65.5847 110.851 65.7667 110.524 65.916C110.198 66.0653 109.792 66.14 109.306 66.14ZM109.936 65.51C110.244 65.51 110.501 65.4353 110.706 65.286C110.912 65.1367 111.098 64.9313 111.266 64.67V62.78H110.846C110.156 62.78 109.61 62.9107 109.208 63.172C108.807 63.424 108.606 63.76 108.606 64.18C108.606 64.6093 108.732 64.9407 108.984 65.174C109.246 65.398 109.563 65.51 109.936 65.51ZM114.689 61.1C114.689 60.624 114.623 60.274 114.493 60.05C114.362 59.8167 114.101 59.7 113.709 59.7H113.429V59.42H114.689C115.034 59.42 115.295 59.4667 115.473 59.56C115.659 59.6533 115.795 59.7933 115.879 59.98H115.949C116.145 59.784 116.397 59.6207 116.705 59.49C117.022 59.35 117.377 59.28 117.769 59.28C118.469 59.28 119.038 59.4667 119.477 59.84C119.925 60.2133 120.149 60.8667 120.149 61.8V66H118.889V61.8C118.889 61.1467 118.739 60.6707 118.441 60.372C118.151 60.064 117.787 59.91 117.349 59.91C116.854 59.91 116.387 60.1573 115.949 60.652V66H114.689V61.1ZM124.04 66.14C123.517 66.14 123.107 65.9907 122.808 65.692C122.509 65.3933 122.36 64.936 122.36 64.32V59.98H121.38V59.42H122.36V58.16L123.06 57.32H123.62V59.42H125.3V59.98H123.62V64.32C123.62 65.16 123.947 65.58 124.6 65.58C124.824 65.58 125.011 65.5567 125.16 65.51C125.319 65.4633 125.482 65.3933 125.65 65.3L125.79 65.58C125.575 65.7387 125.337 65.874 125.076 65.986C124.815 66.0887 124.469 66.14 124.04 66.14ZM129.386 66.14C128.752 66.14 128.215 65.9907 127.776 65.692C127.338 65.384 127.006 64.9733 126.782 64.46C126.558 63.9373 126.446 63.354 126.446 62.71C126.446 62.0753 126.558 61.4967 126.782 60.974C127.006 60.4513 127.328 60.0407 127.748 59.742C128.178 59.434 128.677 59.28 129.246 59.28C130.189 59.28 130.889 59.546 131.346 60.078C131.813 60.6007 132.046 61.3613 132.046 62.36L132.018 62.92H127.776C127.776 63.704 127.944 64.3433 128.28 64.838C128.616 65.3327 129.078 65.58 129.666 65.58C130.105 65.58 130.474 65.4867 130.772 65.3C131.08 65.1133 131.365 64.8333 131.626 64.46L131.906 64.67C131.598 65.1833 131.239 65.5567 130.828 65.79C130.418 66.0233 129.937 66.14 129.386 66.14ZM130.716 62.36C130.716 61.5387 130.595 60.9133 130.352 60.484C130.11 60.0547 129.741 59.84 129.246 59.84C128.966 59.84 128.714 59.952 128.49 60.176C128.266 60.3907 128.089 60.6893 127.958 61.072C127.837 61.4547 127.776 61.884 127.776 62.36H130.716ZM136.222 66.14C135.588 66.14 135.051 65.9907 134.612 65.692C134.174 65.384 133.842 64.9733 133.618 64.46C133.394 63.9373 133.282 63.354 133.282 62.71C133.282 62.0753 133.394 61.4967 133.618 60.974C133.842 60.4513 134.164 60.0407 134.584 59.742C135.014 59.434 135.513 59.28 136.082 59.28C137.025 59.28 137.725 59.546 138.182 60.078C138.649 60.6007 138.882 61.3613 138.882 62.36L138.854 62.92H134.612C134.612 63.704 134.78 64.3433 135.116 64.838C135.452 65.3327 135.914 65.58 136.502 65.58C136.941 65.58 137.31 65.4867 137.608 65.3C137.916 65.1133 138.201 64.8333 138.462 64.46L138.742 64.67C138.434 65.1833 138.075 65.5567 137.664 65.79C137.254 66.0233 136.773 66.14 136.222 66.14ZM137.552 62.36C137.552 61.5387 137.431 60.9133 137.188 60.484C136.946 60.0547 136.577 59.84 136.082 59.84C135.802 59.84 135.55 59.952 135.326 60.176C135.102 60.3907 134.925 60.6893 134.794 61.072C134.673 61.4547 134.612 61.884 134.612 62.36H137.552Z" fill="#1D78B0"/>
<rect x="166.5" y="48" width="124" height="26" rx="7" fill="#E0F3FF"/>
<path d="M182.984 58.44C182.984 57.964 182.919 57.614 182.788 57.39C182.657 57.1567 182.396 57.04 182.004 57.04H181.724V56.76H182.984C183.329 56.76 183.586 56.8067 183.754 56.9C183.931 56.984 184.057 57.1427 184.132 57.376C184.207 57.6093 184.244 57.964 184.244 58.44V65.44H189.214V66H182.984V58.44ZM191.057 58.58C190.842 58.58 190.655 58.4913 190.497 58.314C190.347 58.1367 190.273 57.9267 190.273 57.684C190.273 57.488 190.329 57.334 190.441 57.222C190.562 57.11 190.721 57.054 190.917 57.054C191.131 57.054 191.313 57.1427 191.463 57.32C191.621 57.4973 191.701 57.7073 191.701 57.95C191.701 58.146 191.64 58.3 191.519 58.412C191.407 58.524 191.253 58.58 191.057 58.58ZM190.525 61.1C190.525 60.624 190.459 60.274 190.329 60.05C190.198 59.8167 189.937 59.7 189.545 59.7H189.265V59.42H190.525C190.87 59.42 191.127 59.4667 191.295 59.56C191.472 59.644 191.598 59.8027 191.673 60.036C191.747 60.2693 191.785 60.624 191.785 61.1V66H190.525V61.1ZM193.046 59.98V59.42H194.026V59C194.026 57.4133 194.843 56.62 196.476 56.62C197.064 56.62 197.461 56.69 197.666 56.83C197.825 56.9513 197.988 57.1613 198.156 57.46L197.736 57.81C197.456 57.39 197.013 57.18 196.406 57.18C195.659 57.18 195.286 57.7867 195.286 59V59.42H197.246V59.98H195.286V66H194.026V59.98H193.046ZM200.875 66.14C200.24 66.14 199.703 65.9907 199.265 65.692C198.826 65.384 198.495 64.9733 198.271 64.46C198.047 63.9373 197.935 63.354 197.935 62.71C197.935 62.0753 198.047 61.4967 198.271 60.974C198.495 60.4513 198.817 60.0407 199.237 59.742C199.666 59.434 200.165 59.28 200.735 59.28C201.677 59.28 202.377 59.546 202.835 60.078C203.301 60.6007 203.535 61.3613 203.535 62.36L203.507 62.92H199.265C199.265 63.704 199.433 64.3433 199.769 64.838C200.105 65.3327 200.567 65.58 201.155 65.58C201.593 65.58 201.962 65.4867 202.261 65.3C202.569 65.1133 202.853 64.8333 203.115 64.46L203.395 64.67C203.087 65.1833 202.727 65.5567 202.317 65.79C201.906 66.0233 201.425 66.14 200.875 66.14ZM202.205 62.36C202.205 61.5387 202.083 60.9133 201.841 60.484C201.598 60.0547 201.229 59.84 200.735 59.84C200.455 59.84 200.203 59.952 199.979 60.176C199.755 60.3907 199.577 60.6893 199.447 61.072C199.325 61.4547 199.265 61.884 199.265 62.36H202.205ZM207.095 66.14C206.572 66.14 206.161 65.9907 205.863 65.692C205.564 65.3933 205.415 64.936 205.415 64.32V59.98H204.435V59.42H205.415V58.16L206.115 57.32H206.675V59.42H208.355V59.98H206.675V64.32C206.675 65.16 207.001 65.58 207.655 65.58C207.879 65.58 208.065 65.5567 208.215 65.51C208.373 65.4633 208.537 65.3933 208.705 65.3L208.845 65.58C208.63 65.7387 208.392 65.874 208.131 65.986C207.869 66.0887 207.524 66.14 207.095 66.14ZM210.621 58.58C210.406 58.58 210.22 58.4913 210.061 58.314C209.912 58.1367 209.837 57.9267 209.837 57.684C209.837 57.488 209.893 57.334 210.005 57.222C210.126 57.11 210.285 57.054 210.481 57.054C210.696 57.054 210.878 57.1427 211.027 57.32C211.186 57.4973 211.265 57.7073 211.265 57.95C211.265 58.146 211.204 58.3 211.083 58.412C210.971 58.524 210.817 58.58 210.621 58.58ZM210.089 61.1C210.089 60.624 210.024 60.274 209.893 60.05C209.762 59.8167 209.501 59.7 209.109 59.7H208.829V59.42H210.089C210.434 59.42 210.691 59.4667 210.859 59.56C211.036 59.644 211.162 59.8027 211.237 60.036C211.312 60.2693 211.349 60.624 211.349 61.1V66H210.089V61.1ZM213.534 61.1C213.534 60.624 213.469 60.274 213.338 60.05C213.208 59.8167 212.946 59.7 212.554 59.7H212.274V59.42H213.534C213.88 59.42 214.141 59.4667 214.318 59.56C214.505 59.6533 214.64 59.7933 214.724 59.98H214.794C214.99 59.784 215.242 59.6207 215.55 59.49C215.868 59.35 216.222 59.28 216.614 59.28C217.006 59.28 217.342 59.3547 217.622 59.504C217.902 59.644 218.126 59.896 218.294 60.26C218.537 59.952 218.845 59.714 219.218 59.546C219.601 59.3687 219.993 59.28 220.394 59.28C220.992 59.28 221.468 59.4667 221.822 59.84C222.177 60.2133 222.354 60.8667 222.354 61.8V66H221.094V61.8C221.094 61.128 221.001 60.6473 220.814 60.358C220.628 60.0593 220.348 59.91 219.974 59.91C219.713 59.91 219.438 60.008 219.148 60.204C218.859 60.3907 218.644 60.596 218.504 60.82C218.551 60.96 218.574 61.2867 218.574 61.8V66H217.314V61.8C217.314 61.128 217.221 60.6473 217.034 60.358C216.848 60.0593 216.568 59.91 216.194 59.91C215.7 59.91 215.233 60.1573 214.794 60.652V66H213.534V61.1ZM226.879 66.14C226.244 66.14 225.707 65.9907 225.269 65.692C224.83 65.384 224.499 64.9733 224.275 64.46C224.051 63.9373 223.939 63.354 223.939 62.71C223.939 62.0753 224.051 61.4967 224.275 60.974C224.499 60.4513 224.821 60.0407 225.241 59.742C225.67 59.434 226.169 59.28 226.739 59.28C227.681 59.28 228.381 59.546 228.839 60.078C229.305 60.6007 229.539 61.3613 229.539 62.36L229.511 62.92H225.269C225.269 63.704 225.437 64.3433 225.773 64.838C226.109 65.3327 226.571 65.58 227.159 65.58C227.597 65.58 227.966 65.4867 228.265 65.3C228.573 65.1133 228.857 64.8333 229.119 64.46L229.399 64.67C229.091 65.1833 228.731 65.5567 228.321 65.79C227.91 66.0233 227.429 66.14 226.879 66.14ZM228.209 62.36C228.209 61.5387 228.087 60.9133 227.845 60.484C227.602 60.0547 227.233 59.84 226.739 59.84C226.459 59.84 226.207 59.952 225.983 60.176C225.759 60.3907 225.581 60.6893 225.451 61.072C225.329 61.4547 225.269 61.884 225.269 62.36H228.209ZM242.353 66.07C241.905 66.07 241.461 65.9487 241.023 65.706C240.584 65.454 240.234 64.9687 239.973 64.25L239.623 63.34H235.703L234.583 66H233.953L237.873 56.76H238.293L241.373 64.25C241.606 64.7913 241.825 65.1647 242.031 65.37C242.236 65.566 242.53 65.6827 242.913 65.72V66C242.745 66.0467 242.558 66.07 242.353 66.07ZM239.343 62.78L237.663 58.72L235.913 62.78H239.343ZM246.241 66.14C245.569 66.14 245 65.9907 244.533 65.692C244.076 65.384 243.731 64.9733 243.497 64.46C243.273 63.9373 243.161 63.354 243.161 62.71C243.161 62.066 243.273 61.4873 243.497 60.974C243.731 60.4513 244.076 60.0407 244.533 59.742C245 59.434 245.569 59.28 246.241 59.28C247.268 59.28 247.945 59.4433 248.271 59.77C248.43 59.9287 248.528 60.1247 248.565 60.358C248.603 60.582 248.621 60.9927 248.621 61.59H248.341C248.304 61.0113 248.122 60.5773 247.795 60.288C247.469 59.9893 247.044 59.84 246.521 59.84C245.849 59.84 245.341 60.106 244.995 60.638C244.659 61.17 244.491 61.8607 244.491 62.71C244.491 63.5593 244.659 64.25 244.995 64.782C245.341 65.314 245.849 65.58 246.521 65.58C246.997 65.58 247.389 65.4913 247.697 65.314C248.005 65.1273 248.29 64.8427 248.551 64.46L248.831 64.67C248.523 65.1927 248.159 65.5707 247.739 65.804C247.319 66.028 246.82 66.14 246.241 66.14ZM253.009 66.14C252.337 66.14 251.767 65.9907 251.301 65.692C250.843 65.384 250.498 64.9733 250.265 64.46C250.041 63.9373 249.929 63.354 249.929 62.71C249.929 62.066 250.041 61.4873 250.265 60.974C250.498 60.4513 250.843 60.0407 251.301 59.742C251.767 59.434 252.337 59.28 253.009 59.28C254.035 59.28 254.712 59.4433 255.039 59.77C255.197 59.9287 255.295 60.1247 255.333 60.358C255.37 60.582 255.389 60.9927 255.389 61.59H255.109C255.071 61.0113 254.889 60.5773 254.563 60.288C254.236 59.9893 253.811 59.84 253.289 59.84C252.617 59.84 252.108 60.106 251.763 60.638C251.427 61.17 251.259 61.8607 251.259 62.71C251.259 63.5593 251.427 64.25 251.763 64.782C252.108 65.314 252.617 65.58 253.289 65.58C253.765 65.58 254.157 65.4913 254.465 65.314C254.773 65.1273 255.057 64.8427 255.319 64.46L255.599 64.67C255.291 65.1927 254.927 65.5707 254.507 65.804C254.087 66.028 253.587 66.14 253.009 66.14ZM259.636 66.14C259.002 66.14 258.465 65.9907 258.026 65.692C257.588 65.384 257.256 64.9733 257.032 64.46C256.808 63.9373 256.696 63.354 256.696 62.71C256.696 62.0753 256.808 61.4967 257.032 60.974C257.256 60.4513 257.578 60.0407 257.998 59.742C258.428 59.434 258.927 59.28 259.496 59.28C260.439 59.28 261.139 59.546 261.596 60.078C262.063 60.6007 262.296 61.3613 262.296 62.36L262.268 62.92H258.026C258.026 63.704 258.194 64.3433 258.53 64.838C258.866 65.3327 259.328 65.58 259.916 65.58C260.355 65.58 260.724 65.4867 261.022 65.3C261.33 65.1133 261.615 64.8333 261.876 64.46L262.156 64.67C261.848 65.1833 261.489 65.5567 261.078 65.79C260.668 66.0233 260.187 66.14 259.636 66.14ZM260.966 62.36C260.966 61.5387 260.845 60.9133 260.602 60.484C260.36 60.0547 259.991 59.84 259.496 59.84C259.216 59.84 258.964 59.952 258.74 60.176C258.516 60.3907 258.339 60.6893 258.208 61.072C258.087 61.4547 258.026 61.884 258.026 62.36H260.966ZM266.108 66.14C265.035 66.14 264.312 65.9533 263.938 65.58C263.78 65.4213 263.682 65.244 263.644 65.048C263.607 64.8427 263.588 64.53 263.588 64.11H263.868C263.952 64.5767 264.153 64.9407 264.47 65.202C264.797 65.454 265.25 65.58 265.828 65.58C266.342 65.58 266.724 65.4913 266.976 65.314C267.238 65.1367 267.368 64.8987 267.368 64.6C267.368 64.3293 267.266 64.096 267.06 63.9C266.864 63.704 266.547 63.5173 266.108 63.34L265.268 62.99C264.708 62.766 264.288 62.5047 264.008 62.206C263.728 61.9073 263.588 61.5387 263.588 61.1C263.588 60.5307 263.803 60.0873 264.232 59.77C264.662 59.4433 265.217 59.28 265.898 59.28C266.925 59.28 267.625 59.4667 267.998 59.84C268.157 59.9987 268.255 60.176 268.292 60.372C268.33 60.568 268.348 60.8807 268.348 61.31H268.068C267.994 60.8433 267.798 60.484 267.48 60.232C267.163 59.9707 266.729 59.84 266.178 59.84C265.74 59.84 265.394 59.9333 265.142 60.12C264.9 60.2973 264.778 60.5307 264.778 60.82C264.778 61.3053 265.152 61.702 265.898 62.01L266.738 62.36C267.373 62.6213 267.835 62.9013 268.124 63.2C268.414 63.4893 268.558 63.8627 268.558 64.32C268.558 64.8893 268.33 65.3373 267.872 65.664C267.415 65.9813 266.827 66.14 266.108 66.14ZM272.356 66.14C271.283 66.14 270.56 65.9533 270.186 65.58C270.028 65.4213 269.93 65.244 269.892 65.048C269.855 64.8427 269.836 64.53 269.836 64.11H270.116C270.2 64.5767 270.401 64.9407 270.718 65.202C271.045 65.454 271.498 65.58 272.076 65.58C272.59 65.58 272.972 65.4913 273.224 65.314C273.486 65.1367 273.616 64.8987 273.616 64.6C273.616 64.3293 273.514 64.096 273.308 63.9C273.112 63.704 272.795 63.5173 272.356 63.34L271.516 62.99C270.956 62.766 270.536 62.5047 270.256 62.206C269.976 61.9073 269.836 61.5387 269.836 61.1C269.836 60.5307 270.051 60.0873 270.48 59.77C270.91 59.4433 271.465 59.28 272.146 59.28C273.173 59.28 273.873 59.4667 274.246 59.84C274.405 59.9987 274.503 60.176 274.54 60.372C274.578 60.568 274.596 60.8807 274.596 61.31H274.316C274.242 60.8433 274.046 60.484 273.728 60.232C273.411 59.9707 272.977 59.84 272.426 59.84C271.988 59.84 271.642 59.9333 271.39 60.12C271.148 60.2973 271.026 60.5307 271.026 60.82C271.026 61.3053 271.4 61.702 272.146 62.01L272.986 62.36C273.621 62.6213 274.083 62.9013 274.372 63.2C274.662 63.4893 274.806 63.8627 274.806 64.32C274.806 64.8893 274.578 65.3373 274.12 65.664C273.663 65.9813 273.075 66.14 272.356 66.14Z" fill="#1D78B0"/>
<path d="M1.984 94.44C1.984 93.964 1.91867 93.614 1.788 93.39C1.65733 93.1567 1.396 93.04 1.004 93.04H0.724V92.76H6.31C7.10333 92.76 7.5 93.1333 7.5 93.88V94.93H7.22C7.22 93.8567 6.63667 93.32 5.47 93.32H3.244V97.03H6.408V97.59H3.244V102H1.984V94.44ZM10.9502 102.14C10.3156 102.14 9.7649 101.991 9.29823 101.692C8.83157 101.384 8.4769 100.969 8.23423 100.446C7.99157 99.9233 7.87023 99.3447 7.87023 98.71C7.87023 98.0753 7.99157 97.4967 8.23423 96.974C8.4769 96.4513 8.83157 96.0407 9.29823 95.742C9.7649 95.434 10.3156 95.28 10.9502 95.28C11.5849 95.28 12.1356 95.434 12.6022 95.742C13.0689 96.0407 13.4236 96.4513 13.6662 96.974C13.9089 97.4967 14.0302 98.0753 14.0302 98.71C14.0302 99.3447 13.9089 99.9233 13.6662 100.446C13.4236 100.969 13.0689 101.384 12.6022 101.692C12.1356 101.991 11.5849 102.14 10.9502 102.14ZM10.9502 101.58C11.2956 101.58 11.5989 101.454 11.8602 101.202C12.1309 100.95 12.3362 100.605 12.4762 100.166C12.6256 99.7273 12.7002 99.242 12.7002 98.71C12.7002 98.178 12.6256 97.6927 12.4762 97.254C12.3362 96.8153 12.1309 96.47 11.8602 96.218C11.5989 95.966 11.2956 95.84 10.9502 95.84C10.6049 95.84 10.2969 95.966 10.0262 96.218C9.7649 96.47 9.55957 96.8153 9.41023 97.254C9.27023 97.6927 9.20023 98.178 9.20023 98.71C9.20023 99.242 9.27023 99.7273 9.41023 100.166C9.55957 100.605 9.7649 100.95 10.0262 101.202C10.2969 101.454 10.6049 101.58 10.9502 101.58ZM15.7841 97.1C15.7841 96.624 15.7187 96.274 15.5881 96.05C15.4574 95.8167 15.1961 95.7 14.8041 95.7H14.6641V95.42H15.7841C16.1387 95.42 16.4047 95.4713 16.5821 95.574C16.7687 95.6673 16.8994 95.826 16.9741 96.05H17.0441C17.2121 95.8353 17.4361 95.6533 17.7161 95.504C18.0054 95.3547 18.3414 95.28 18.7241 95.28C19.0974 95.28 19.3774 95.35 19.5641 95.49C19.7227 95.6113 19.8861 95.8213 20.0541 96.12L19.4941 96.54C19.3914 96.4 19.2421 96.2973 19.0461 96.232C18.8501 96.1573 18.6261 96.12 18.3741 96.12C18.0941 96.12 17.8374 96.1853 17.6041 96.316C17.3707 96.4373 17.1841 96.6053 17.0441 96.82V102H15.7841V97.1ZM25.1985 104.38C25.6558 104.38 26.0292 104.273 26.3185 104.058C26.6172 103.853 26.8738 103.47 27.0885 102.91L27.3685 102.14L25.1285 96.68C24.8672 96.008 24.3538 95.6347 23.5885 95.56V95.28H24.7785C25.5905 95.28 26.1505 95.6533 26.4585 96.4L28.0545 100.278L29.8185 95.42H30.5185L27.7885 102.91C27.5178 103.647 27.2192 104.147 26.8925 104.408C26.5658 104.669 26.1412 104.8 25.6185 104.8H25.1985V104.38ZM34.5069 102.14C33.8722 102.14 33.3215 101.991 32.8549 101.692C32.3882 101.384 32.0335 100.969 31.7909 100.446C31.5482 99.9233 31.4269 99.3447 31.4269 98.71C31.4269 98.0753 31.5482 97.4967 31.7909 96.974C32.0335 96.4513 32.3882 96.0407 32.8549 95.742C33.3215 95.434 33.8722 95.28 34.5069 95.28C35.1415 95.28 35.6922 95.434 36.1589 95.742C36.6255 96.0407 36.9802 96.4513 37.2229 96.974C37.4655 97.4967 37.5869 98.0753 37.5869 98.71C37.5869 99.3447 37.4655 99.9233 37.2229 100.446C36.9802 100.969 36.6255 101.384 36.1589 101.692C35.6922 101.991 35.1415 102.14 34.5069 102.14ZM34.5069 101.58C34.8522 101.58 35.1555 101.454 35.4169 101.202C35.6875 100.95 35.8929 100.605 36.0329 100.166C36.1822 99.7273 36.2569 99.242 36.2569 98.71C36.2569 98.178 36.1822 97.6927 36.0329 97.254C35.8929 96.8153 35.6875 96.47 35.4169 96.218C35.1555 95.966 34.8522 95.84 34.5069 95.84C34.1615 95.84 33.8535 95.966 33.5829 96.218C33.3215 96.47 33.1162 96.8153 32.9669 97.254C32.8269 97.6927 32.7569 98.178 32.7569 98.71C32.7569 99.242 32.8269 99.7273 32.9669 100.166C33.1162 100.605 33.3215 100.95 33.5829 101.202C33.8535 101.454 34.1615 101.58 34.5069 101.58ZM41.6227 102.14C40.9227 102.14 40.3487 101.953 39.9007 101.58C39.462 101.207 39.2427 100.553 39.2427 99.62V97.1C39.2427 96.624 39.1774 96.274 39.0467 96.05C38.916 95.8167 38.6547 95.7 38.2627 95.7H38.1227V95.42H39.2427C39.588 95.42 39.8447 95.4667 40.0127 95.56C40.19 95.644 40.316 95.8027 40.3907 96.036C40.4654 96.2693 40.5027 96.624 40.5027 97.1V99.62C40.5027 100.273 40.6474 100.754 40.9367 101.062C41.2354 101.361 41.604 101.51 42.0427 101.51C42.5374 101.51 43.004 101.263 43.4427 100.768V95.42H44.7027V102H44.0027L43.5127 101.44H43.4427C43.2467 101.636 42.99 101.804 42.6727 101.944C42.3647 102.075 42.0147 102.14 41.6227 102.14ZM52.1669 102.14C51.6442 102.14 51.2336 101.991 50.9349 101.692C50.6362 101.393 50.4869 100.936 50.4869 100.32V95.98H49.5069V95.42H50.4869V94.16L51.1869 93.32H51.7469V95.42H53.4269V95.98H51.7469V100.32C51.7469 101.16 52.0736 101.58 52.7269 101.58C52.9509 101.58 53.1376 101.557 53.2869 101.51C53.4456 101.463 53.6089 101.393 53.7769 101.3L53.9169 101.58C53.7022 101.739 53.4642 101.874 53.2029 101.986C52.9416 102.089 52.5962 102.14 52.1669 102.14ZM57.6534 102.14C57.0187 102.14 56.468 101.991 56.0014 101.692C55.5347 101.384 55.18 100.969 54.9374 100.446C54.6947 99.9233 54.5734 99.3447 54.5734 98.71C54.5734 98.0753 54.6947 97.4967 54.9374 96.974C55.18 96.4513 55.5347 96.0407 56.0014 95.742C56.468 95.434 57.0187 95.28 57.6534 95.28C58.288 95.28 58.8387 95.434 59.3054 95.742C59.772 96.0407 60.1267 96.4513 60.3694 96.974C60.612 97.4967 60.7334 98.0753 60.7334 98.71C60.7334 99.3447 60.612 99.9233 60.3694 100.446C60.1267 100.969 59.772 101.384 59.3054 101.692C58.8387 101.991 58.288 102.14 57.6534 102.14ZM57.6534 101.58C57.9987 101.58 58.302 101.454 58.5634 101.202C58.834 100.95 59.0394 100.605 59.1794 100.166C59.3287 99.7273 59.4034 99.242 59.4034 98.71C59.4034 98.178 59.3287 97.6927 59.1794 97.254C59.0394 96.8153 58.834 96.47 58.5634 96.218C58.302 95.966 57.9987 95.84 57.6534 95.84C57.308 95.84 57 95.966 56.7294 96.218C56.468 96.47 56.2627 96.8153 56.1134 97.254C55.9734 97.6927 55.9034 98.178 55.9034 98.71C55.9034 99.242 55.9734 99.7273 56.1134 100.166C56.2627 100.605 56.468 100.95 56.7294 101.202C57 101.454 57.308 101.58 57.6534 101.58ZM68.0732 102.14C66.9999 102.14 66.2765 101.953 65.9032 101.58C65.7445 101.421 65.6465 101.244 65.6092 101.048C65.5719 100.843 65.5532 100.53 65.5532 100.11H65.8332C65.9172 100.577 66.1179 100.941 66.4352 101.202C66.7619 101.454 67.2145 101.58 67.7932 101.58C68.3065 101.58 68.6892 101.491 68.9412 101.314C69.2025 101.137 69.3332 100.899 69.3332 100.6C69.3332 100.329 69.2305 100.096 69.0252 99.9C68.8292 99.704 68.5119 99.5173 68.0732 99.34L67.2332 98.99C66.6732 98.766 66.2532 98.5047 65.9732 98.206C65.6932 97.9073 65.5532 97.5387 65.5532 97.1C65.5532 96.5307 65.7679 96.0873 66.1972 95.77C66.6265 95.4433 67.1819 95.28 67.8632 95.28C68.8899 95.28 69.5899 95.4667 69.9632 95.84C70.1219 95.9987 70.2199 96.176 70.2572 96.372C70.2945 96.568 70.3132 96.8807 70.3132 97.31H70.0332C69.9585 96.8433 69.7625 96.484 69.4452 96.232C69.1279 95.9707 68.6939 95.84 68.1432 95.84C67.7045 95.84 67.3592 95.9333 67.1072 96.12C66.8645 96.2973 66.7432 96.5307 66.7432 96.82C66.7432 97.3053 67.1165 97.702 67.8632 98.01L68.7032 98.36C69.3379 98.6213 69.7999 98.9013 70.0892 99.2C70.3785 99.4893 70.5232 99.8627 70.5232 100.32C70.5232 100.889 70.2945 101.337 69.8372 101.664C69.3799 101.981 68.7919 102.14 68.0732 102.14ZM74.0692 102.14C73.5466 102.14 73.1359 101.991 72.8372 101.692C72.5386 101.393 72.3892 100.936 72.3892 100.32V95.98H71.4092V95.42H72.3892V94.16L73.0892 93.32H73.6492V95.42H75.3292V95.98H73.6492V100.32C73.6492 101.16 73.9759 101.58 74.6292 101.58C74.8532 101.58 75.0399 101.557 75.1892 101.51C75.3479 101.463 75.5112 101.393 75.6792 101.3L75.8192 101.58C75.6046 101.739 75.3666 101.874 75.1052 101.986C74.8439 102.089 74.4986 102.14 74.0692 102.14ZM78.4217 102.14C78.123 102.14 77.8197 102.079 77.5117 101.958C77.2037 101.827 76.9377 101.617 76.7137 101.328C76.499 101.039 76.3917 100.656 76.3917 100.18C76.3917 99.4707 76.7184 98.9667 77.3717 98.668C78.0344 98.3693 78.8977 98.22 79.9617 98.22H80.3817C80.3817 97.3053 80.2557 96.68 80.0037 96.344C79.7517 96.008 79.3877 95.84 78.9117 95.84C78.4917 95.84 78.1557 95.9287 77.9037 96.106C77.6517 96.2833 77.4744 96.5913 77.3717 97.03H76.7417C76.7417 96.7127 76.7604 96.4653 76.7977 96.288C76.835 96.1013 76.933 95.9287 77.0917 95.77C77.2597 95.602 77.535 95.4807 77.9177 95.406C78.3097 95.322 78.7344 95.28 79.1917 95.28C79.9477 95.28 80.545 95.4853 80.9837 95.896C81.4224 96.2973 81.6417 97.072 81.6417 98.22V102H80.9417L80.4517 101.37H80.3817C80.2137 101.585 79.9664 101.767 79.6397 101.916C79.313 102.065 78.907 102.14 78.4217 102.14ZM79.0517 101.51C79.3597 101.51 79.6164 101.435 79.8217 101.286C80.027 101.137 80.2137 100.931 80.3817 100.67V98.78H79.9617C79.271 98.78 78.725 98.9107 78.3237 99.172C77.9224 99.424 77.7217 99.76 77.7217 100.18C77.7217 100.609 77.8477 100.941 78.0997 101.174C78.361 101.398 78.6784 101.51 79.0517 101.51ZM83.7059 97.1C83.7059 96.624 83.6406 96.274 83.5099 96.05C83.3793 95.8167 83.1179 95.7 82.7259 95.7H82.5859V95.42H83.7059C84.0606 95.42 84.3266 95.4713 84.5039 95.574C84.6906 95.6673 84.8213 95.826 84.8959 96.05H84.9659C85.1339 95.8353 85.3579 95.6533 85.6379 95.504C85.9273 95.3547 86.2633 95.28 86.6459 95.28C87.0193 95.28 87.2993 95.35 87.4859 95.49C87.6446 95.6113 87.8079 95.8213 87.9759 96.12L87.4159 96.54C87.3133 96.4 87.1639 96.2973 86.9679 96.232C86.7719 96.1573 86.5479 96.12 86.2959 96.12C86.0159 96.12 85.7593 96.1853 85.5259 96.316C85.2926 96.4373 85.1059 96.6053 84.9659 96.82V102H83.7059V97.1ZM91.1044 102.14C90.5817 102.14 90.1711 101.991 89.8724 101.692C89.5737 101.393 89.4244 100.936 89.4244 100.32V95.98H88.4444V95.42H89.4244V94.16L90.1244 93.32H90.6844V95.42H92.3644V95.98H90.6844V100.32C90.6844 101.16 91.0111 101.58 91.6644 101.58C91.8884 101.58 92.0751 101.557 92.2244 101.51C92.3831 101.463 92.5464 101.393 92.7144 101.3L92.8544 101.58C92.6397 101.739 92.4017 101.874 92.1404 101.986C91.8791 102.089 91.5337 102.14 91.1044 102.14ZM99.3349 102.14C98.8122 102.14 98.4015 101.991 98.1029 101.692C97.8042 101.393 97.6549 100.936 97.6549 100.32V95.98H96.6749V95.42H97.6549V94.16L98.3549 93.32H98.9149V95.42H100.595V95.98H98.9149V100.32C98.9149 101.16 99.2415 101.58 99.8949 101.58C100.119 101.58 100.306 101.557 100.455 101.51C100.614 101.463 100.777 101.393 100.945 101.3L101.085 101.58C100.87 101.739 100.632 101.874 100.371 101.986C100.11 102.089 99.7642 102.14 99.3349 102.14ZM102.119 94.44C102.119 93.964 102.054 93.614 101.923 93.39C101.793 93.1567 101.531 93.04 101.139 93.04H100.859V92.76H102.119C102.465 92.76 102.721 92.8067 102.889 92.9C103.067 92.984 103.193 93.1427 103.267 93.376C103.342 93.6093 103.379 93.964 103.379 94.44V95.98C103.575 95.784 103.827 95.6207 104.135 95.49C104.453 95.35 104.807 95.28 105.199 95.28C105.899 95.28 106.469 95.4667 106.907 95.84C107.355 96.2133 107.579 96.8667 107.579 97.8V102H106.319V97.8C106.319 97.1467 106.17 96.6707 105.871 96.372C105.582 96.064 105.218 95.91 104.779 95.91C104.285 95.91 103.818 96.1573 103.379 96.652V102H102.119V94.44ZM112.091 102.14C111.457 102.14 110.92 101.991 110.481 101.692C110.043 101.384 109.711 100.973 109.487 100.46C109.263 99.9373 109.151 99.354 109.151 98.71C109.151 98.0753 109.263 97.4967 109.487 96.974C109.711 96.4513 110.033 96.0407 110.453 95.742C110.883 95.434 111.382 95.28 111.951 95.28C112.894 95.28 113.594 95.546 114.051 96.078C114.518 96.6007 114.751 97.3613 114.751 98.36L114.723 98.92H110.481C110.481 99.704 110.649 100.343 110.985 100.838C111.321 101.333 111.783 101.58 112.371 101.58C112.81 101.58 113.179 101.487 113.477 101.3C113.785 101.113 114.07 100.833 114.331 100.46L114.611 100.67C114.303 101.183 113.944 101.557 113.533 101.79C113.123 102.023 112.642 102.14 112.091 102.14ZM113.421 98.36C113.421 97.5387 113.3 96.9133 113.057 96.484C112.815 96.0547 112.446 95.84 111.951 95.84C111.671 95.84 111.419 95.952 111.195 96.176C110.971 96.3907 110.794 96.6893 110.663 97.072C110.542 97.4547 110.481 97.884 110.481 98.36H113.421ZM117.107 94.58C116.893 94.58 116.706 94.4913 116.547 94.314C116.398 94.1367 116.323 93.9267 116.323 93.684C116.323 93.488 116.379 93.334 116.491 93.222C116.613 93.11 116.771 93.054 116.967 93.054C117.182 93.054 117.364 93.1427 117.513 93.32C117.672 93.4973 117.751 93.7073 117.751 93.95C117.751 94.146 117.691 94.3 117.569 94.412C117.457 94.524 117.303 94.58 117.107 94.58ZM116.575 97.1C116.575 96.624 116.51 96.274 116.379 96.05C116.249 95.8167 115.987 95.7 115.595 95.7H115.315V95.42H116.575C116.921 95.42 117.177 95.4667 117.345 95.56C117.523 95.644 117.649 95.8027 117.723 96.036C117.798 96.2693 117.835 96.624 117.835 97.1V102H116.575V97.1ZM119.923 97.1C119.923 96.624 119.857 96.274 119.727 96.05C119.596 95.8167 119.335 95.7 118.943 95.7H118.803V95.42H119.923C120.277 95.42 120.543 95.4713 120.721 95.574C120.907 95.6673 121.038 95.826 121.113 96.05H121.183C121.351 95.8353 121.575 95.6533 121.855 95.504C122.144 95.3547 122.48 95.28 122.863 95.28C123.236 95.28 123.516 95.35 123.703 95.49C123.861 95.6113 124.025 95.8213 124.193 96.12L123.633 96.54C123.53 96.4 123.381 96.2973 123.185 96.232C122.989 96.1573 122.765 96.12 122.513 96.12C122.233 96.12 121.976 96.1853 121.743 96.316C121.509 96.4373 121.323 96.6053 121.183 96.82V102H119.923V97.1ZM131.577 102.14C130.905 102.14 130.336 101.991 129.869 101.692C129.412 101.384 129.067 100.973 128.833 100.46C128.609 99.9373 128.497 99.354 128.497 98.71C128.497 98.066 128.609 97.4873 128.833 96.974C129.067 96.4513 129.412 96.0407 129.869 95.742C130.336 95.434 130.905 95.28 131.577 95.28C132.604 95.28 133.281 95.4433 133.607 95.77C133.766 95.9287 133.864 96.1247 133.901 96.358C133.939 96.582 133.957 96.9927 133.957 97.59H133.677C133.64 97.0113 133.458 96.5773 133.131 96.288C132.805 95.9893 132.38 95.84 131.857 95.84C131.185 95.84 130.677 96.106 130.331 96.638C129.995 97.17 129.827 97.8607 129.827 98.71C129.827 99.5593 129.995 100.25 130.331 100.782C130.677 101.314 131.185 101.58 131.857 101.58C132.333 101.58 132.725 101.491 133.033 101.314C133.341 101.127 133.626 100.843 133.887 100.46L134.167 100.67C133.859 101.193 133.495 101.571 133.075 101.804C132.655 102.028 132.156 102.14 131.577 102.14ZM138.345 102.14C137.71 102.14 137.159 101.991 136.693 101.692C136.226 101.384 135.871 100.969 135.629 100.446C135.386 99.9233 135.265 99.3447 135.265 98.71C135.265 98.0753 135.386 97.4967 135.629 96.974C135.871 96.4513 136.226 96.0407 136.693 95.742C137.159 95.434 137.71 95.28 138.345 95.28C138.979 95.28 139.53 95.434 139.997 95.742C140.463 96.0407 140.818 96.4513 141.061 96.974C141.303 97.4967 141.425 98.0753 141.425 98.71C141.425 99.3447 141.303 99.9233 141.061 100.446C140.818 100.969 140.463 101.384 139.997 101.692C139.53 101.991 138.979 102.14 138.345 102.14ZM138.345 101.58C138.69 101.58 138.993 101.454 139.255 101.202C139.525 100.95 139.731 100.605 139.871 100.166C140.02 99.7273 140.095 99.242 140.095 98.71C140.095 98.178 140.02 97.6927 139.871 97.254C139.731 96.8153 139.525 96.47 139.255 96.218C138.993 95.966 138.69 95.84 138.345 95.84C137.999 95.84 137.691 95.966 137.421 96.218C137.159 96.47 136.954 96.8153 136.805 97.254C136.665 97.6927 136.595 98.178 136.595 98.71C136.595 99.242 136.665 99.7273 136.805 100.166C136.954 100.605 137.159 100.95 137.421 101.202C137.691 101.454 137.999 101.58 138.345 101.58ZM145.237 102.14C144.425 102.14 143.799 101.818 143.361 101.174C142.931 100.53 142.717 99.7087 142.717 98.71C142.717 97.7113 142.941 96.89 143.389 96.246C143.846 95.602 144.509 95.28 145.377 95.28C145.731 95.28 146.044 95.3173 146.315 95.392C146.585 95.4667 146.856 95.5693 147.127 95.7V94.44C147.127 93.964 147.061 93.614 146.931 93.39C146.8 93.1567 146.539 93.04 146.147 93.04H145.867V92.76H147.127C147.472 92.76 147.729 92.8067 147.897 92.9C148.074 92.984 148.2 93.1427 148.275 93.376C148.349 93.6093 148.387 93.964 148.387 94.44V102H147.687L147.197 101.37H147.127C146.921 101.603 146.679 101.79 146.399 101.93C146.128 102.07 145.741 102.14 145.237 102.14ZM145.657 101.58C146.039 101.58 146.329 101.51 146.525 101.37C146.721 101.23 146.921 101.02 147.127 100.74V96.26C146.847 96.1293 146.604 96.0267 146.399 95.952C146.193 95.8773 145.993 95.84 145.797 95.84C145.199 95.84 144.756 96.1013 144.467 96.624C144.187 97.1467 144.047 97.842 144.047 98.71C144.047 99.5687 144.182 100.264 144.453 100.796C144.723 101.319 145.125 101.58 145.657 101.58ZM151.15 94.58C150.936 94.58 150.749 94.4913 150.59 94.314C150.441 94.1367 150.366 93.9267 150.366 93.684C150.366 93.488 150.422 93.334 150.534 93.222C150.656 93.11 150.814 93.054 151.01 93.054C151.225 93.054 151.407 93.1427 151.556 93.32C151.715 93.4973 151.794 93.7073 151.794 93.95C151.794 94.146 151.734 94.3 151.612 94.412C151.5 94.524 151.346 94.58 151.15 94.58ZM150.618 97.1C150.618 96.624 150.553 96.274 150.422 96.05C150.292 95.8167 150.03 95.7 149.638 95.7H149.358V95.42H150.618C150.964 95.42 151.22 95.4667 151.388 95.56C151.566 95.644 151.692 95.8027 151.766 96.036C151.841 96.2693 151.878 96.624 151.878 97.1V102H150.618V97.1ZM154.064 97.1C154.064 96.624 153.998 96.274 153.868 96.05C153.737 95.8167 153.476 95.7 153.084 95.7H152.804V95.42H154.064C154.409 95.42 154.67 95.4667 154.848 95.56C155.034 95.6533 155.17 95.7933 155.254 95.98H155.324C155.52 95.784 155.772 95.6207 156.08 95.49C156.397 95.35 156.752 95.28 157.144 95.28C157.844 95.28 158.413 95.4667 158.852 95.84C159.3 96.2133 159.524 96.8667 159.524 97.8V102H158.264V97.8C158.264 97.1467 158.114 96.6707 157.816 96.372C157.526 96.064 157.162 95.91 156.724 95.91C156.229 95.91 155.762 96.1573 155.324 96.652V102H154.064V97.1ZM163.905 104.8C162.962 104.8 162.211 104.627 161.651 104.282C161.1 103.937 160.825 103.386 160.825 102.63C160.825 102.201 160.97 101.827 161.259 101.51C161.548 101.193 161.917 100.959 162.365 100.81C161.992 100.605 161.805 100.325 161.805 99.97C161.805 99.7833 161.847 99.6387 161.931 99.536C162.015 99.4333 162.136 99.3213 162.295 99.2C161.996 99.0507 161.744 98.8173 161.539 98.5C161.343 98.1827 161.245 97.8093 161.245 97.38C161.245 95.98 162.132 95.28 163.905 95.28H166.495V95.63L165.585 95.77V95.84C165.874 95.9893 166.108 96.1993 166.285 96.47C166.472 96.7313 166.565 97.0347 166.565 97.38C166.565 98.78 165.678 99.48 163.905 99.48C162.925 99.48 162.435 99.6433 162.435 99.97C162.435 100.297 162.925 100.46 163.905 100.46C164.81 100.46 165.548 100.642 166.117 101.006C166.696 101.361 166.985 101.902 166.985 102.63C166.985 103.386 166.705 103.937 166.145 104.282C165.594 104.627 164.848 104.8 163.905 104.8ZM163.905 98.99C164.325 98.99 164.661 98.864 164.913 98.612C165.174 98.3507 165.305 97.94 165.305 97.38C165.305 96.848 165.174 96.4467 164.913 96.176C164.661 95.9053 164.325 95.77 163.905 95.77C163.485 95.77 163.144 95.9007 162.883 96.162C162.631 96.414 162.505 96.82 162.505 97.38C162.505 97.94 162.631 98.3507 162.883 98.612C163.144 98.864 163.485 98.99 163.905 98.99ZM163.905 104.24C164.465 104.24 164.908 104.105 165.235 103.834C165.562 103.573 165.725 103.171 165.725 102.63C165.725 101.697 165.165 101.16 164.045 101.02L163.275 100.95C162.892 101.099 162.598 101.309 162.393 101.58C162.188 101.851 162.085 102.201 162.085 102.63C162.085 103.171 162.248 103.573 162.575 103.834C162.902 104.105 163.345 104.24 163.905 104.24ZM172.602 94.58C172.387 94.58 172.2 94.4913 172.042 94.314C171.892 94.1367 171.818 93.9267 171.818 93.684C171.818 93.488 171.874 93.334 171.986 93.222C172.107 93.11 172.266 93.054 172.462 93.054C172.676 93.054 172.858 93.1427 173.008 93.32C173.166 93.4973 173.246 93.7073 173.246 93.95C173.246 94.146 173.185 94.3 173.064 94.412C172.952 94.524 172.798 94.58 172.602 94.58ZM170.74 104.38C171.188 104.38 171.519 104.142 171.734 103.666C171.958 103.19 172.07 102.518 172.07 101.65V97.1C172.07 96.624 172.004 96.274 171.874 96.05C171.743 95.8167 171.482 95.7 171.09 95.7H170.81V95.42H172.07C172.415 95.42 172.672 95.4667 172.84 95.56C173.017 95.644 173.143 95.8027 173.218 96.036C173.292 96.2693 173.33 96.624 173.33 97.1V101.65C173.33 102.378 173.25 102.957 173.092 103.386C172.942 103.825 172.681 104.147 172.308 104.352C171.934 104.557 171.412 104.66 170.74 104.66V104.38ZM178.007 102.14C177.372 102.14 176.822 101.991 176.355 101.692C175.888 101.384 175.534 100.969 175.291 100.446C175.048 99.9233 174.927 99.3447 174.927 98.71C174.927 98.0753 175.048 97.4967 175.291 96.974C175.534 96.4513 175.888 96.0407 176.355 95.742C176.822 95.434 177.372 95.28 178.007 95.28C178.642 95.28 179.192 95.434 179.659 95.742C180.126 96.0407 180.48 96.4513 180.723 96.974C180.966 97.4967 181.087 98.0753 181.087 98.71C181.087 99.3447 180.966 99.9233 180.723 100.446C180.48 100.969 180.126 101.384 179.659 101.692C179.192 101.991 178.642 102.14 178.007 102.14ZM178.007 101.58C178.352 101.58 178.656 101.454 178.917 101.202C179.188 100.95 179.393 100.605 179.533 100.166C179.682 99.7273 179.757 99.242 179.757 98.71C179.757 98.178 179.682 97.6927 179.533 97.254C179.393 96.8153 179.188 96.47 178.917 96.218C178.656 95.966 178.352 95.84 178.007 95.84C177.662 95.84 177.354 95.966 177.083 96.218C176.822 96.47 176.616 96.8153 176.467 97.254C176.327 97.6927 176.257 98.178 176.257 98.71C176.257 99.242 176.327 99.7273 176.467 100.166C176.616 100.605 176.822 100.95 177.083 101.202C177.354 101.454 177.662 101.58 178.007 101.58ZM185.123 102.14C184.423 102.14 183.849 101.953 183.401 101.58C182.962 101.207 182.743 100.553 182.743 99.62V97.1C182.743 96.624 182.677 96.274 182.547 96.05C182.416 95.8167 182.155 95.7 181.763 95.7H181.623V95.42H182.743C183.088 95.42 183.345 95.4667 183.513 95.56C183.69 95.644 183.816 95.8027 183.891 96.036C183.965 96.2693 184.003 96.624 184.003 97.1V99.62C184.003 100.273 184.147 100.754 184.437 101.062C184.735 101.361 185.104 101.51 185.543 101.51C186.037 101.51 186.504 101.263 186.943 100.768V95.42H188.203V102H187.503L187.013 101.44H186.943C186.747 101.636 186.49 101.804 186.173 101.944C185.865 102.075 185.515 102.14 185.123 102.14ZM190.333 97.1C190.333 96.624 190.268 96.274 190.137 96.05C190.006 95.8167 189.745 95.7 189.353 95.7H189.213V95.42H190.333C190.688 95.42 190.954 95.4713 191.131 95.574C191.318 95.6673 191.448 95.826 191.523 96.05H191.593C191.761 95.8353 191.985 95.6533 192.265 95.504C192.554 95.3547 192.89 95.28 193.273 95.28C193.646 95.28 193.926 95.35 194.113 95.49C194.272 95.6113 194.435 95.8213 194.603 96.12L194.043 96.54C193.94 96.4 193.791 96.2973 193.595 96.232C193.399 96.1573 193.175 96.12 192.923 96.12C192.643 96.12 192.386 96.1853 192.153 96.316C191.92 96.4373 191.733 96.6053 191.593 96.82V102H190.333V97.1ZM195.995 97.1C195.995 96.624 195.93 96.274 195.799 96.05C195.669 95.8167 195.407 95.7 195.015 95.7H194.735V95.42H195.995C196.341 95.42 196.602 95.4667 196.779 95.56C196.966 95.6533 197.101 95.7933 197.185 95.98H197.255C197.451 95.784 197.703 95.6207 198.011 95.49C198.329 95.35 198.683 95.28 199.075 95.28C199.775 95.28 200.345 95.4667 200.783 95.84C201.231 96.2133 201.455 96.8667 201.455 97.8V102H200.195V97.8C200.195 97.1467 200.046 96.6707 199.747 96.372C199.458 96.064 199.094 95.91 198.655 95.91C198.161 95.91 197.694 96.1573 197.255 96.652V102H195.995V97.1ZM205.963 102.14C205.328 102.14 204.791 101.991 204.353 101.692C203.914 101.384 203.583 100.973 203.359 100.46C203.135 99.9373 203.023 99.354 203.023 98.71C203.023 98.0753 203.135 97.4967 203.359 96.974C203.583 96.4513 203.905 96.0407 204.325 95.742C204.754 95.434 205.253 95.28 205.823 95.28C206.765 95.28 207.465 95.546 207.923 96.078C208.389 96.6007 208.623 97.3613 208.623 98.36L208.595 98.92H204.353C204.353 99.704 204.521 100.343 204.857 100.838C205.193 101.333 205.655 101.58 206.243 101.58C206.681 101.58 207.05 101.487 207.349 101.3C207.657 101.113 207.941 100.833 208.203 100.46L208.483 100.67C208.175 101.183 207.815 101.557 207.405 101.79C206.994 102.023 206.513 102.14 205.963 102.14ZM207.293 98.36C207.293 97.5387 207.171 96.9133 206.929 96.484C206.686 96.0547 206.317 95.84 205.823 95.84C205.543 95.84 205.291 95.952 205.067 96.176C204.843 96.3907 204.665 96.6893 204.535 97.072C204.413 97.4547 204.353 97.884 204.353 98.36H207.293ZM210.63 104.38C211.087 104.38 211.461 104.273 211.75 104.058C212.049 103.853 212.305 103.47 212.52 102.91L212.8 102.14L210.56 96.68C210.299 96.008 209.785 95.6347 209.02 95.56V95.28H210.21C211.022 95.28 211.582 95.6533 211.89 96.4L213.486 100.278L215.25 95.42H215.95L213.22 102.91C212.949 103.647 212.651 104.147 212.324 104.408C211.997 104.669 211.573 104.8 211.05 104.8H210.63V104.38ZM220.146 95.98V95.42H221.126V95C221.126 93.4133 221.942 92.62 223.576 92.62C224.164 92.62 224.56 92.69 224.766 92.83C224.924 92.9513 225.088 93.1613 225.256 93.46L224.836 93.81C224.556 93.39 224.112 93.18 223.506 93.18C222.759 93.18 222.386 93.7867 222.386 95V95.42H224.346V95.98H222.386V102H221.126V95.98H220.146ZM225.688 97.1C225.688 96.624 225.623 96.274 225.492 96.05C225.362 95.8167 225.1 95.7 224.708 95.7H224.568V95.42H225.688C226.043 95.42 226.309 95.4713 226.486 95.574C226.673 95.6673 226.804 95.826 226.878 96.05H226.948C227.116 95.8353 227.34 95.6533 227.62 95.504C227.91 95.3547 228.246 95.28 228.628 95.28C229.002 95.28 229.282 95.35 229.468 95.49C229.627 95.6113 229.79 95.8213 229.958 96.12L229.398 96.54C229.296 96.4 229.146 96.2973 228.95 96.232C228.754 96.1573 228.53 96.12 228.278 96.12C227.998 96.12 227.742 96.1853 227.508 96.316C227.275 96.4373 227.088 96.6053 226.948 96.82V102H225.688V97.1ZM233.72 102.14C233.085 102.14 232.534 101.991 232.068 101.692C231.601 101.384 231.246 100.969 231.004 100.446C230.761 99.9233 230.64 99.3447 230.64 98.71C230.64 98.0753 230.761 97.4967 231.004 96.974C231.246 96.4513 231.601 96.0407 232.068 95.742C232.534 95.434 233.085 95.28 233.72 95.28C234.354 95.28 234.905 95.434 235.372 95.742C235.838 96.0407 236.193 96.4513 236.436 96.974C236.678 97.4967 236.8 98.0753 236.8 98.71C236.8 99.3447 236.678 99.9233 236.436 100.446C236.193 100.969 235.838 101.384 235.372 101.692C234.905 101.991 234.354 102.14 233.72 102.14ZM233.72 101.58C234.065 101.58 234.368 101.454 234.63 101.202C234.9 100.95 235.106 100.605 235.246 100.166C235.395 99.7273 235.47 99.242 235.47 98.71C235.47 98.178 235.395 97.6927 235.246 97.254C235.106 96.8153 234.9 96.47 234.63 96.218C234.368 95.966 234.065 95.84 233.72 95.84C233.374 95.84 233.066 95.966 232.796 96.218C232.534 96.47 232.329 96.8153 232.18 97.254C232.04 97.6927 231.97 98.178 231.97 98.71C231.97 99.242 232.04 99.7273 232.18 100.166C232.329 100.605 232.534 100.95 232.796 101.202C233.066 101.454 233.374 101.58 233.72 101.58ZM238.652 97.1C238.652 96.624 238.586 96.274 238.456 96.05C238.325 95.8167 238.064 95.7 237.672 95.7H237.392V95.42H238.652C238.997 95.42 239.258 95.4667 239.436 95.56C239.622 95.6533 239.758 95.7933 239.842 95.98H239.912C240.108 95.784 240.36 95.6207 240.668 95.49C240.985 95.35 241.34 95.28 241.732 95.28C242.124 95.28 242.46 95.3547 242.74 95.504C243.02 95.644 243.244 95.896 243.412 96.26C243.654 95.952 243.962 95.714 244.336 95.546C244.718 95.3687 245.11 95.28 245.512 95.28C246.109 95.28 246.585 95.4667 246.94 95.84C247.294 96.2133 247.472 96.8667 247.472 97.8V102H246.212V97.8C246.212 97.128 246.118 96.6473 245.932 96.358C245.745 96.0593 245.465 95.91 245.092 95.91C244.83 95.91 244.555 96.008 244.266 96.204C243.976 96.3907 243.762 96.596 243.622 96.82C243.668 96.96 243.692 97.2867 243.692 97.8V102H242.432V97.8C242.432 97.128 242.338 96.6473 242.152 96.358C241.965 96.0593 241.685 95.91 241.312 95.91C240.817 95.91 240.35 96.1573 239.912 96.652V102H238.652V97.1ZM255.132 102.14C254.058 102.14 253.335 101.953 252.962 101.58C252.803 101.421 252.705 101.244 252.668 101.048C252.63 100.843 252.612 100.53 252.612 100.11H252.892C252.976 100.577 253.176 100.941 253.494 101.202C253.82 101.454 254.273 101.58 254.852 101.58C255.365 101.58 255.748 101.491 256 101.314C256.261 101.137 256.392 100.899 256.392 100.6C256.392 100.329 256.289 100.096 256.084 99.9C255.888 99.704 255.57 99.5173 255.132 99.34L254.292 98.99C253.732 98.766 253.312 98.5047 253.032 98.206C252.752 97.9073 252.612 97.5387 252.612 97.1C252.612 96.5307 252.826 96.0873 253.256 95.77C253.685 95.4433 254.24 95.28 254.922 95.28C255.948 95.28 256.648 95.4667 257.022 95.84C257.18 95.9987 257.278 96.176 257.316 96.372C257.353 96.568 257.372 96.8807 257.372 97.31H257.092C257.017 96.8433 256.821 96.484 256.504 96.232C256.186 95.9707 255.752 95.84 255.202 95.84C254.763 95.84 254.418 95.9333 254.166 96.12C253.923 96.2973 253.802 96.5307 253.802 96.82C253.802 97.3053 254.175 97.702 254.922 98.01L255.762 98.36C256.396 98.6213 256.858 98.9013 257.148 99.2C257.437 99.4893 257.582 99.8627 257.582 100.32C257.582 100.889 257.353 101.337 256.896 101.664C256.438 101.981 255.85 102.14 255.132 102.14ZM261.884 102.14C261.212 102.14 260.642 101.991 260.176 101.692C259.718 101.384 259.373 100.973 259.14 100.46C258.916 99.9373 258.804 99.354 258.804 98.71C258.804 98.066 258.916 97.4873 259.14 96.974C259.373 96.4513 259.718 96.0407 260.176 95.742C260.642 95.434 261.212 95.28 261.884 95.28C262.91 95.28 263.587 95.4433 263.914 95.77C264.072 95.9287 264.17 96.1247 264.208 96.358C264.245 96.582 264.264 96.9927 264.264 97.59H263.984C263.946 97.0113 263.764 96.5773 263.438 96.288C263.111 95.9893 262.686 95.84 262.164 95.84C261.492 95.84 260.983 96.106 260.638 96.638C260.302 97.17 260.134 97.8607 260.134 98.71C260.134 99.5593 260.302 100.25 260.638 100.782C260.983 101.314 261.492 101.58 262.164 101.58C262.64 101.58 263.032 101.491 263.34 101.314C263.648 101.127 263.932 100.843 264.194 100.46L264.474 100.67C264.166 101.193 263.802 101.571 263.382 101.804C262.962 102.028 262.462 102.14 261.884 102.14ZM266.061 97.1C266.061 96.624 265.996 96.274 265.865 96.05C265.735 95.8167 265.473 95.7 265.081 95.7H264.941V95.42H266.061C266.416 95.42 266.682 95.4713 266.859 95.574C267.046 95.6673 267.177 95.826 267.251 96.05H267.321C267.489 95.8353 267.713 95.6533 267.993 95.504C268.283 95.3547 268.619 95.28 269.001 95.28C269.375 95.28 269.655 95.35 269.841 95.49C270 95.6113 270.163 95.8213 270.331 96.12L269.771 96.54C269.669 96.4 269.519 96.2973 269.323 96.232C269.127 96.1573 268.903 96.12 268.651 96.12C268.371 96.12 268.115 96.1853 267.881 96.316C267.648 96.4373 267.461 96.6053 267.321 96.82V102H266.061V97.1ZM273.082 102.14C272.783 102.14 272.48 102.079 272.172 101.958C271.864 101.827 271.598 101.617 271.374 101.328C271.159 101.039 271.052 100.656 271.052 100.18C271.052 99.4707 271.379 98.9667 272.032 98.668C272.695 98.3693 273.558 98.22 274.622 98.22H275.042C275.042 97.3053 274.916 96.68 274.664 96.344C274.412 96.008 274.048 95.84 273.572 95.84C273.152 95.84 272.816 95.9287 272.564 96.106C272.312 96.2833 272.135 96.5913 272.032 97.03H271.402C271.402 96.7127 271.421 96.4653 271.458 96.288C271.495 96.1013 271.593 95.9287 271.752 95.77C271.92 95.602 272.195 95.4807 272.578 95.406C272.97 95.322 273.395 95.28 273.852 95.28C274.608 95.28 275.205 95.4853 275.644 95.896C276.083 96.2973 276.302 97.072 276.302 98.22V102H275.602L275.112 101.37H275.042C274.874 101.585 274.627 101.767 274.3 101.916C273.973 102.065 273.567 102.14 273.082 102.14ZM273.712 101.51C274.02 101.51 274.277 101.435 274.482 101.286C274.687 101.137 274.874 100.931 275.042 100.67V98.78H274.622C273.931 98.78 273.385 98.9107 272.984 99.172C272.583 99.424 272.382 99.76 272.382 100.18C272.382 100.609 272.508 100.941 272.76 101.174C273.021 101.398 273.339 101.51 273.712 101.51ZM280.2 102.14C279.677 102.14 279.267 101.991 278.968 101.692C278.669 101.393 278.52 100.936 278.52 100.32V95.98H277.54V95.42H278.52V94.16L279.22 93.32H279.78V95.42H281.46V95.98H279.78V100.32C279.78 101.16 280.107 101.58 280.76 101.58C280.984 101.58 281.171 101.557 281.32 101.51C281.479 101.463 281.642 101.393 281.81 101.3L281.95 101.58C281.735 101.739 281.497 101.874 281.236 101.986C280.975 102.089 280.629 102.14 280.2 102.14ZM285.687 102.14C285.015 102.14 284.445 101.991 283.979 101.692C283.521 101.384 283.176 100.973 282.943 100.46C282.719 99.9373 282.607 99.354 282.607 98.71C282.607 98.066 282.719 97.4873 282.943 96.974C283.176 96.4513 283.521 96.0407 283.979 95.742C284.445 95.434 285.015 95.28 285.687 95.28C286.713 95.28 287.39 95.4433 287.717 95.77C287.875 95.9287 287.973 96.1247 288.011 96.358C288.048 96.582 288.067 96.9927 288.067 97.59H287.787C287.749 97.0113 287.567 96.5773 287.241 96.288C286.914 95.9893 286.489 95.84 285.967 95.84C285.295 95.84 284.786 96.106 284.441 96.638C284.105 97.17 283.937 97.8607 283.937 98.71C283.937 99.5593 284.105 100.25 284.441 100.782C284.786 101.314 285.295 101.58 285.967 101.58C286.443 101.58 286.835 101.491 287.143 101.314C287.451 101.127 287.735 100.843 287.997 100.46L288.277 100.67C287.969 101.193 287.605 101.571 287.185 101.804C286.765 102.028 286.265 102.14 285.687 102.14ZM289.752 94.44C289.752 93.964 289.687 93.614 289.556 93.39C289.425 93.1567 289.164 93.04 288.772 93.04H288.492V92.76H289.752C290.097 92.76 290.354 92.8067 290.522 92.9C290.699 92.984 290.825 93.1427 290.9 93.376C290.975 93.6093 291.012 93.964 291.012 94.44V95.98C291.208 95.784 291.46 95.6207 291.768 95.49C292.085 95.35 292.44 95.28 292.832 95.28C293.532 95.28 294.101 95.4667 294.54 95.84C294.988 96.2133 295.212 96.8667 295.212 97.8V102H293.952V97.8C293.952 97.1467 293.803 96.6707 293.504 96.372C293.215 96.064 292.851 95.91 292.412 95.91C291.917 95.91 291.451 96.1573 291.012 96.652V102H289.752V94.44Z" fill="#565656"/>
</svg>
